<svg width="65" height="65" viewBox="0 0 65 65" fill="none" xmlns="http://www.w3.org/2000/svg">
<g id="svg" clip-path="url(#clip0_643_35701)">
<path id="Vector" d="M32 63.9844C49.3883 63.9844 63.4844 49.8883 63.4844 32.5C63.4844 15.1117 49.3883 1.01562 32 1.01562C14.6117 1.01562 0.515625 15.1117 0.515625 32.5C0.515625 49.8883 14.6117 63.9844 32 63.9844Z" stroke="#1C1C1C" stroke-width="2" stroke-miterlimit="10"/>
<path id="Vector_2" d="M32 59.9219H47.2344" stroke="#1C1C1C" stroke-width="2" stroke-miterlimit="10"/>
<path id="Vector_3" d="M32 53.8281H55.3594" stroke="#1C1C1C" stroke-width="2" stroke-miterlimit="10"/>
<path id="Vector_4" d="M32 47.7344H59.4219" stroke="#1C1C1C" stroke-width="2" stroke-miterlimit="10"/>
<path id="Vector_5" d="M32 41.6406H62.4688" stroke="#1C1C1C" stroke-width="2" stroke-miterlimit="10"/>
<path id="Vector_6" d="M32 35.5469H63.4844" stroke="#1C1C1C" stroke-width="2" stroke-miterlimit="10"/>
<path id="Vector_7" d="M32 1.01562V63.9844" stroke="#1C1C1C" stroke-width="2" stroke-miterlimit="10"/>
<path id="Vector_8" d="M32 29.4531H63.4844" stroke="#1C1C1C" stroke-width="2" stroke-miterlimit="10"/>
<path id="Vector_9" d="M32 23.3594H62.4688" stroke="#1C1C1C" stroke-width="2" stroke-miterlimit="10"/>
<path id="Vector_10" d="M32 17.2656H59.4219" stroke="#1C1C1C" stroke-width="2" stroke-miterlimit="10"/>
<path id="Vector_11" d="M32 11.1719H55.3594" stroke="#1C1C1C" stroke-width="2" stroke-miterlimit="10"/>
<path id="Vector_12" d="M32 5.07812H47.2344" stroke="#1C1C1C" stroke-width="2" stroke-miterlimit="10"/>
</g>
<defs>
<clipPath id="clip0_643_35701">
<rect width="65" height="65" fill="white"/>
</clipPath>
</defs>
</svg>
