<svg width="77" height="27" viewBox="0 0 77 27" fill="none" xmlns="http://www.w3.org/2000/svg">
<path id="image 9 (Traced)" fill-rule="evenodd" clip-rule="evenodd" d="M7.44474 0.282474C7.08132 0.486366 6.61245 0.984179 6.40251 1.38907C5.98986 2.18514 0.745174 16.4508 0.745174 16.7772C0.745174 17.0384 3.39913 18.0247 3.74541 17.892C3.8931 17.8355 4.26786 17.0724 4.57794 16.1959L5.14189 14.6028H8.74252C11.4064 14.6028 12.3707 14.681 12.4481 14.9037C13.2073 17.0837 13.6226 17.9729 13.8818 17.9729C14.4665 17.9729 16.6718 16.947 16.6677 16.6771C16.6655 16.5293 15.416 12.9979 13.8912 8.82956C12.076 3.86755 10.9237 1.05616 10.5538 0.687128C9.83663 -0.0282985 8.34459 -0.222321 7.44474 0.282474ZM11.1216 11.2866C11.1216 11.3894 10.0357 11.4734 8.70849 11.4734C7.38127 11.4734 6.29537 11.4419 6.29537 11.4031C6.29537 11.3059 8.43388 4.93708 8.61583 4.49247C8.73793 4.19445 11.1216 10.6576 11.1216 11.2866ZM29.4158 8.87482C29.1028 9.11434 26.3243 16.5298 26.3243 17.1258C26.3243 17.1947 26.6887 17.2507 27.1339 17.2507C27.8407 17.2507 27.9722 17.1511 28.1677 16.4684C28.3885 15.6976 28.4153 15.6851 29.9911 15.6153L31.5903 15.5447L31.7551 16.2936C31.9373 17.1215 32.2531 17.3254 33.1716 17.2086L33.7852 17.1304L32.4387 13.0381C31.6979 10.7874 31.0777 8.92753 31.0603 8.90515C30.8637 8.65167 29.735 8.63072 29.4158 8.87482ZM34.529 12.9177V17.2507H35.2529H35.9768V12.9177V8.58475H35.2529H34.529V12.9177ZM38.39 9.06619C38.0683 9.38707 37.9073 9.86852 37.9073 10.5105C37.9073 11.206 37.8067 11.4734 37.5454 11.4734C37.3202 11.4734 37.1834 11.7007 37.1834 12.0752C37.1834 12.4498 37.3202 12.677 37.5454 12.677C37.8417 12.677 37.9073 13.0915 37.9073 14.9639V17.2507H38.6313H39.3552V14.9639V12.677H40.1998C40.9399 12.677 41.0444 12.6024 41.0444 12.0752C41.0444 11.5459 40.9409 11.4734 40.1846 11.4734C39.3598 11.4734 39.3277 11.4414 39.4003 10.6911C39.4662 10.0093 39.5734 9.89933 40.2346 9.8353C40.8195 9.77849 41.0191 9.62707 41.1059 9.17331C41.2131 8.61435 41.1597 8.58475 40.0456 8.58475C39.1943 8.58475 38.7401 8.7169 38.39 9.06619ZM52.8687 13.0381V17.4915H54.5656C56.4452 17.4915 57.7613 17.0637 58.1583 16.324C58.8101 15.109 58.2929 13.2369 57.2056 12.8754C56.9983 12.8065 57.1168 12.5535 57.5661 12.1053C58.132 11.5408 58.2133 11.3018 58.0939 10.5531C58.0099 10.0276 57.6988 9.44798 57.3277 9.12637C56.7925 8.6625 56.4278 8.58475 54.7857 8.58475H52.8687V13.0381ZM72.1737 12.9177V17.2507H72.8977C73.6055 17.2507 73.6216 17.224 73.6216 16.0471C73.6216 14.4218 74.1894 14.4194 74.904 16.0414C75.3796 17.1217 75.5084 17.2399 76.2157 17.245C76.6472 17.2481 77 17.193 77 17.1224C77 16.861 75.7225 14.4774 75.5092 14.3409C75.2712 14.1885 76.4718 12.1956 76.8016 12.1956C76.9107 12.1956 77 11.9789 77 11.7141C77 11.3403 76.839 11.2327 76.2809 11.2327C75.6774 11.2327 75.4783 11.3971 75.042 12.2558C74.5432 13.2372 74.1921 13.6284 73.8026 13.6363C73.7029 13.6382 73.6216 12.5025 73.6216 11.1123V8.58475H72.8977H72.1737V12.9177ZM56.3678 10.9862C56.3678 11.673 56.2539 11.8629 55.7324 12.0458C54.7145 12.4028 54.3166 12.1048 54.3166 10.9857V10.0014L55.3422 10.0755C56.3378 10.1473 56.3678 10.174 56.3678 10.9862ZM31.0007 13.7297C31.1549 14.3426 31.126 14.3621 30.0693 14.3621C29.4126 14.3621 28.9788 14.2528 28.9788 14.0872C28.9788 13.936 29.2126 13.0422 29.4986 12.1012L30.0181 10.3902L30.4298 11.7437C30.6564 12.4883 30.9131 13.3819 31.0007 13.7297ZM42.251 11.8345C42.251 12.3961 42.3313 12.4363 43.4575 12.4363C44.5837 12.4363 44.6641 12.4765 44.6641 13.0381C44.6641 13.5809 44.5683 13.6399 43.688 13.6399C41.9353 13.6399 40.9394 15.3437 41.896 16.7062C42.3482 17.3504 43.5876 17.6133 44.515 17.2616C44.9742 17.0873 45.3021 17.0798 45.4942 17.2387C45.6906 17.4014 45.9515 17.36 46.3103 17.1092C46.7271 16.8179 46.7869 16.6463 46.5956 16.2895C46.4624 16.0411 46.3533 15.188 46.3533 14.3936C46.3533 12.8867 46.0427 11.7317 45.5538 11.4219C45.3962 11.3218 44.5888 11.2385 43.7592 11.2363C42.3103 11.2329 42.251 11.2563 42.251 11.8345ZM60.1081 11.8345C60.1081 12.3961 60.1885 12.4363 61.3147 12.4363C61.9783 12.4363 62.5212 12.5357 62.5212 12.6573C62.5212 12.7788 62.5871 13.0497 62.6677 13.2591C62.7884 13.5728 62.6161 13.6399 61.6916 13.6399C60.3291 13.6399 59.3842 14.4134 59.3842 15.5281C59.3842 16.6446 60.112 17.3514 61.2225 17.3133C61.7377 17.2958 62.5936 17.2647 63.1245 17.2445C64.1923 17.2038 64.7828 16.8615 64.5104 16.4412C64.4129 16.2907 64.2727 15.2065 64.1984 14.0323C64.0352 11.4455 63.84 11.2327 61.6305 11.2327C60.1675 11.2327 60.1081 11.2563 60.1081 11.8345ZM65.9599 11.392C65.7423 11.4797 65.6583 12.3126 65.6583 14.3821V17.2507H66.3822H67.1062V14.8291V12.4072L68.0111 12.482L68.916 12.5567L68.985 14.9037L69.0541 17.2507H69.7693H70.4846V14.6401C70.4846 11.3829 70.3649 11.224 67.9317 11.2517C67.0133 11.2621 66.126 11.3254 65.9599 11.392ZM48.7862 13.7364C48.1163 14.5417 49.3103 15.7328 50.1175 15.0645C50.3168 14.8994 50.4474 14.4844 50.4076 14.1421C50.353 13.6753 50.1788 13.5015 49.7109 13.4471C49.3678 13.4074 48.9517 13.5376 48.7862 13.7364ZM56.4884 13.8806C57.1028 14.4935 57.0989 14.9567 56.4742 15.5799C56.1334 15.9198 55.7353 16.0522 55.2073 16.0012C54.5034 15.933 54.4307 15.8471 54.3608 14.9988C54.3188 14.4882 54.3427 13.9196 54.4136 13.735C54.6064 13.2341 55.9336 13.3272 56.4884 13.8806ZM44.7343 15.2633C44.8945 16.0991 44.7734 16.2879 44.076 16.2879C43.3564 16.2879 42.8916 15.725 43.0919 15.0958C43.201 14.7528 43.4554 14.6028 43.9283 14.6028C44.4776 14.6028 44.632 14.7294 44.7343 15.2633ZM62.7174 15.3851C62.6513 16.07 62.555 16.1675 61.9443 16.1675C61.0758 16.1675 60.5999 15.533 61.0565 14.9841C61.2309 14.7744 61.6931 14.6028 62.0835 14.6028C62.7387 14.6028 62.7874 14.6627 62.7174 15.3851ZM0.0709459 25.2548L0.141892 27H8.70849H17.2751L17.346 25.2548L17.417 23.5095H8.70849H0L0.0709459 25.2548Z" fill="#EE2A23"/>
</svg>
