<svg width="97" height="30" viewBox="0 0 97 30" fill="none" xmlns="http://www.w3.org/2000/svg">
<g id="Amazon Logo" clip-path="url(#clip0_643_35326)">
<path id="path8" fill-rule="evenodd" clip-rule="evenodd" d="M60.1763 23.461C54.5394 27.725 46.3692 30.0001 39.3348 30.0001C29.4714 30.0001 20.5918 26.256 13.874 20.0289C13.3462 19.5393 13.8191 18.8719 14.4525 19.2533C21.7022 23.5823 30.6663 26.1867 39.9259 26.1867C46.1707 26.1867 53.0405 24.8607 59.3571 22.109C60.3114 21.693 61.1094 22.7503 60.1763 23.461Z" fill="#1C1C1C"/>
<path id="path10" fill-rule="evenodd" clip-rule="evenodd" d="M62.5194 20.7093C61.8016 19.7646 57.7566 20.2629 55.941 20.4839C55.3879 20.5533 55.3035 20.0593 55.8017 19.7039C59.0233 17.3769 64.3097 18.0486 64.9262 18.8286C65.5426 19.6129 64.7657 25.0513 61.7383 27.647C61.2738 28.0457 60.8305 27.8333 61.0374 27.3047C61.7172 25.5627 63.2415 21.6583 62.5194 20.7093Z" fill="#1C1C1C"/>
<path id="path12" fill-rule="evenodd" clip-rule="evenodd" d="M56.0674 3.27617V1.01414C56.0674 0.671807 56.3208 0.442139 56.6248 0.442139H66.4924C66.8091 0.442139 67.0624 0.676141 67.0624 1.01414V2.95116C67.0582 3.27617 66.7922 3.70084 66.3193 4.37251L61.206 11.8649C63.1061 11.8173 65.1117 12.1076 66.8344 13.1043C67.2229 13.3296 67.3284 13.6589 67.358 13.9839V16.3976C67.358 16.727 67.0033 17.1126 66.6318 16.9133C63.5959 15.2796 59.5635 15.102 56.2068 16.9306C55.8648 17.1213 55.5059 16.74 55.5059 16.4106V14.1183C55.5059 13.7499 55.5101 13.1216 55.869 12.5626L61.7929 3.84384H56.6374C56.3208 3.84384 56.0674 3.61417 56.0674 3.27617Z" fill="#1C1C1C"/>
<path id="path14" fill-rule="evenodd" clip-rule="evenodd" d="M20.0735 17.3898H17.0714C16.7843 17.3681 16.5563 17.1471 16.5352 16.8654V1.05296C16.5352 0.73662 16.7927 0.485282 17.1136 0.485282H19.913C20.2044 0.498274 20.4366 0.727951 20.4577 1.01395V3.08098H20.5126C21.2431 1.08329 22.6153 0.151611 24.4647 0.151611C26.3437 0.151611 27.5175 1.08329 28.362 3.08098C29.0882 1.08329 30.7391 0.151611 32.5083 0.151611C33.7666 0.151611 35.143 0.684617 35.9833 1.88063C36.9333 3.21097 36.7391 5.14366 36.7391 6.83801L36.7349 16.8178C36.7349 17.1341 36.4773 17.3898 36.1564 17.3898H33.1585C32.8588 17.3681 32.6181 17.1211 32.6181 16.8178V8.43703C32.6181 7.76969 32.6772 6.10567 32.5336 5.473C32.3099 4.41132 31.6385 4.11232 30.7687 4.11232C30.0424 4.11232 29.2824 4.61066 28.9742 5.408C28.666 6.20534 28.6955 7.54002 28.6955 8.43703V16.8178C28.6955 17.1341 28.438 17.3898 28.1171 17.3898H25.1192C24.8152 17.3681 24.5787 17.1211 24.5787 16.8178L24.5745 8.43703C24.5745 6.67334 24.8574 4.07765 22.7251 4.07765C20.5675 4.07765 20.6519 6.60834 20.6519 8.43703V16.8178C20.6519 17.1341 20.3944 17.3898 20.0735 17.3898" fill="#1C1C1C"/>
<path id="path16" fill-rule="evenodd" clip-rule="evenodd" d="M75.5595 0.151855C80.0141 0.151855 82.425 4.0779 82.425 9.06995C82.425 13.893 79.7607 17.7194 75.5595 17.7194C71.1851 17.7194 68.8037 13.7933 68.8037 8.90095C68.8037 3.97823 71.2147 0.151855 75.5595 0.151855ZM75.5848 3.38022C73.3723 3.38022 73.233 6.47425 73.233 8.40261C73.233 10.3353 73.2034 14.4607 75.5595 14.4607C77.886 14.4607 77.9958 11.1326 77.9958 9.10461C77.9958 7.76994 77.9409 6.17525 77.5482 4.9099C77.2104 3.80923 76.5391 3.38022 75.5848 3.38022Z" fill="#1C1C1C"/>
<path id="path18" fill-rule="evenodd" clip-rule="evenodd" d="M88.2011 17.3899H85.2117C84.9119 17.3682 84.6712 17.1212 84.6712 16.8179L84.667 1.00108C84.6923 0.710739 84.9414 0.485404 85.2455 0.485404H88.028C88.2898 0.498396 88.5051 0.680406 88.5642 0.927409V3.34543H88.6191C89.4594 1.18308 90.6374 0.151733 92.7106 0.151733C94.0575 0.151733 95.3706 0.650073 96.2151 2.01509C97.0005 3.28043 97.0005 5.40812 97.0005 6.9378V16.8916C96.9667 17.1689 96.7176 17.3899 96.422 17.3899H93.4115C93.137 17.3682 92.909 17.1602 92.8795 16.8916V8.30282C92.8795 6.5738 93.0737 4.0431 91.0005 4.0431C90.27 4.0431 89.5987 4.54578 89.2651 5.30845C88.8429 6.2748 88.788 7.23681 88.788 8.30282V16.8179C88.7838 17.1342 88.522 17.3899 88.2011 17.3899" fill="#1C1C1C"/>
<path id="path28" fill-rule="evenodd" clip-rule="evenodd" d="M48.2013 9.83677C48.2013 11.0371 48.2308 12.0381 47.6397 13.1041C47.1626 13.9708 46.4026 14.5038 45.5623 14.5038C44.4096 14.5038 43.734 13.6025 43.734 12.2721C43.734 9.6461 46.0268 9.16943 48.2013 9.16943V9.83677ZM51.2287 17.3465C51.0303 17.5285 50.7431 17.5415 50.5194 17.4202C49.5229 16.5708 49.3413 16.1765 48.7966 15.3662C47.1499 17.0908 45.9803 17.6065 43.848 17.6065C41.3189 17.6065 39.3555 16.0075 39.3555 12.8051C39.3555 10.3048 40.6728 8.60176 42.556 7.76975C44.1858 7.03307 46.4617 6.90307 48.2013 6.69941V6.30073C48.2013 5.56839 48.2562 4.70171 47.8339 4.06905C47.4708 3.50137 46.7699 3.26737 46.1492 3.26737C45.005 3.26737 43.9874 3.86971 43.7383 5.11772C43.6876 5.39506 43.4892 5.66806 43.2147 5.68106L40.3055 5.36039C40.0606 5.30406 39.7861 5.10039 39.8579 4.71472C40.5251 1.09201 43.7172 0 46.5715 0C48.0324 0 49.9409 0.398672 51.0936 1.53402C52.5545 2.9337 52.4152 4.80138 52.4152 6.83374V11.6351C52.4152 13.0781 52.9979 13.7108 53.5468 14.4908C53.7368 14.7682 53.779 15.1018 53.5341 15.3098C52.9219 15.8342 51.8325 16.8092 51.2329 17.3552L51.2287 17.3465" fill="#1C1C1C"/>
<path id="path30" fill-rule="evenodd" clip-rule="evenodd" d="M8.84582 9.83701C8.84582 11.0374 8.87537 12.0384 8.28425 13.1044C7.80712 13.9711 7.05132 14.5041 6.20685 14.5041C5.05415 14.5041 4.3828 13.6027 4.3828 12.2724C4.3828 9.64634 6.67553 9.16967 8.84582 9.16967V9.83701ZM11.8732 17.3468C11.6748 17.5288 11.3877 17.5418 11.1639 17.4204C10.1674 16.5711 9.99007 16.1767 9.44117 15.3664C7.79445 17.0911 6.62909 17.6068 4.49258 17.6068C1.96761 17.6068 0 16.0077 0 12.8054C0 10.305 1.32159 8.602 3.20054 7.76999C4.83036 7.03332 7.10621 6.90332 8.84582 6.69965V6.30098C8.84582 5.56863 8.90071 4.70196 8.4827 4.06929C8.11535 3.50161 7.41444 3.26761 6.79798 3.26761C5.65372 3.26761 4.63192 3.86995 4.3828 5.11796C4.33213 5.3953 4.13368 5.6683 3.86345 5.6813L0.950028 5.36063C0.705132 5.3043 0.434901 5.10063 0.502459 4.71496C1.17381 1.09226 4.36168 0.000244141 7.21599 0.000244141C8.67692 0.000244141 10.5854 0.398916 11.7381 1.53426C13.1991 2.93394 13.0597 4.80163 13.0597 6.83398V11.6354C13.0597 13.0784 13.6424 13.7111 14.1913 14.4911C14.3855 14.7684 14.4278 15.1021 14.1829 15.3101C13.5706 15.8344 12.4813 16.8094 11.8817 17.3554L11.8732 17.3467" fill="#1C1C1C"/>
</g>
<defs>
<clipPath id="clip0_643_35326">
<rect width="97" height="30" fill="white"/>
</clipPath>
</defs>
</svg>
