<svg width="40" height="40" viewBox="0 0 40 40" fill="none" xmlns="http://www.w3.org/2000/svg">
<rect width="40" height="40" fill="#BBC8D4"/>
<path d="M18.84 27.16C18.1067 27.16 17.3667 27.1333 16.62 27.08C15.8733 27.04 15.22 26.9467 14.66 26.8V13.34C14.9533 13.2867 15.2667 13.24 15.6 13.2C15.9333 13.1467 16.2733 13.1067 16.62 13.08C16.9667 13.0533 17.3067 13.0333 17.64 13.02C17.9867 13.0067 18.3133 13 18.62 13C19.46 13 20.24 13.0667 20.96 13.2C21.68 13.32 22.3 13.5267 22.82 13.82C23.3533 14.1133 23.7667 14.5 24.06 14.98C24.3533 15.46 24.5 16.0533 24.5 16.76C24.5 17.4133 24.34 17.9733 24.02 18.44C23.7133 18.9067 23.28 19.28 22.72 19.56C23.56 19.84 24.18 20.2533 24.58 20.8C24.98 21.3467 25.18 22.04 25.18 22.88C25.18 24.3067 24.66 25.38 23.62 26.1C22.58 26.8067 20.9867 27.16 18.84 27.16ZM17.14 20.76V24.98C17.42 25.0067 17.72 25.0267 18.04 25.04C18.36 25.0533 18.6533 25.06 18.92 25.06C19.44 25.06 19.92 25.0267 20.36 24.96C20.8133 24.8933 21.2 24.78 21.52 24.62C21.8533 24.4467 22.1133 24.22 22.3 23.94C22.5 23.66 22.6 23.3 22.6 22.86C22.6 22.0733 22.3133 21.5267 21.74 21.22C21.1667 20.9133 20.3733 20.76 19.36 20.76H17.14ZM17.14 18.78H18.92C19.88 18.78 20.6333 18.6467 21.18 18.38C21.7267 18.1 22 17.6067 22 16.9C22 16.2333 21.7133 15.76 21.14 15.48C20.58 15.2 19.8467 15.06 18.94 15.06C18.5533 15.06 18.2067 15.0667 17.9 15.08C17.6067 15.0933 17.3533 15.1133 17.14 15.14V18.78Z" fill="#1C1C1C"/>
</svg>
