<svg width="24" height="24" viewBox="0 0 24 24" fill="none" xmlns="http://www.w3.org/2000/svg">
<g clip-path="url(#clip0_643_34148)">
<circle cx="12" cy="12" r="12" fill="#1C1C1C"/>
<path d="M17.2178 18.261L17.4647 18.0848L17.344 17.8065L16.9477 16.8927L16.7664 16.4748L16.3911 16.733C15.9936 17.0065 15.5642 17.2219 15.0687 17.4091C14.5978 17.587 14.0641 17.6786 13.4939 17.6786C12.6771 17.6786 11.9757 17.5535 11.3714 17.2595L11.3714 17.2595L11.3655 17.2568C10.7078 16.9507 10.1716 16.5567 9.72064 16.0438C9.26213 15.5223 8.89253 14.912 8.66605 14.2453L8.6663 14.2453L8.66127 14.2321C8.40614 13.5645 8.28963 12.828 8.28963 12.049C8.28963 11.2137 8.43366 10.474 8.69366 9.76279C8.95171 9.05691 9.32234 8.44811 9.80451 7.93199C10.2893 7.41307 10.829 7.01717 11.4561 6.71113C12.0815 6.43823 12.7295 6.28875 13.4329 6.28875C13.9715 6.28875 14.5053 6.37999 14.9772 6.55826L14.9772 6.55832L14.9837 6.56065C15.506 6.74701 15.9335 6.96144 16.3301 7.23433L16.7115 7.49677L16.889 7.06921L17.2549 6.18809L17.3752 5.89831L17.1112 5.72876C16.6257 5.41695 16.0487 5.14312 15.4433 4.93845C14.8209 4.72808 14.1396 4.625 13.4329 4.625C12.464 4.625 11.5557 4.83261 10.7427 5.21552C9.94167 5.59277 9.19712 6.11089 8.57928 6.80702C7.96964 7.49393 7.48978 8.28251 7.13906 9.16985L7.13903 9.16984L7.13733 9.1743C6.78375 10.1033 6.625 11.063 6.625 12.1142C6.625 13.1015 6.78417 14.0275 7.10604 14.8888C7.42717 15.7482 7.90852 16.5384 8.48748 17.1926L8.48738 17.1927L8.49427 17.2001C9.10058 17.849 9.81041 18.4038 10.6563 18.7868C11.4992 19.1685 12.4362 19.375 13.4634 19.375C13.9958 19.375 14.4844 19.3417 14.9497 19.235C15.398 19.1321 15.8177 18.9943 16.2076 18.8203C16.5873 18.651 16.9163 18.4761 17.2178 18.261Z" fill="white" stroke="white" stroke-width="0.75"/>
</g>
<defs>
<clipPath id="clip0_643_34148">
<rect width="24" height="24" fill="white"/>
</clipPath>
</defs>
</svg>
