<svg width="94" height="28" viewBox="0 0 94 28" fill="none" xmlns="http://www.w3.org/2000/svg">
<g id="FedEx Logo" clip-path="url(#clip0_643_35337)">
<g id="g15">
<g id="g17">
<path id="polygon19" d="M69.9023 27.1619L77.7415 18.5411L69.9023 9.91907H78.1735L82.0561 14.1071L85.7949 9.91907H93.7775L85.9755 18.5055L93.8846 27.1619H85.5795L81.732 22.9395L77.9209 27.1619H69.9023Z" fill="#BBC8D4"/>
<path id="polygon21" d="M69.9022 6.054H61.0237V9.9192H69.9022V15.7444H61.0237V21.0912H69.9022V27.162H54.498V0H69.9022V6.054Z" fill="#BBC8D4"/>
</g>
<path id="path23" d="M47.9997 0V11.116H47.9282C46.4895 9.4976 44.6921 8.9352 42.6065 8.9352C38.3344 8.9352 35.1164 11.7776 33.9867 15.5356C32.6985 11.3948 29.3762 8.8576 24.4498 8.8576C20.4491 8.8576 17.2899 10.6152 15.6412 13.4792V9.9196H7.37164V6.0548H16.3961V0H0V27.1624H7.37164V15.7444H14.7192C14.5001 16.5832 14.3832 17.4812 14.3832 18.4288C14.3832 24.0948 18.8057 28.0704 24.4498 28.0704C29.196 28.0704 32.3237 25.8896 33.9781 21.9136H27.6609C26.8063 23.108 26.1582 23.4628 24.4498 23.4628C22.4689 23.4628 20.7609 21.7712 20.7609 19.766H33.6242C34.1821 24.2664 37.7639 28.1476 42.6793 28.1476C44.7996 28.1476 46.7409 27.1268 47.9282 25.4032H47.9997V27.1616H54.4979V0H47.9997ZM20.9661 15.8256C21.376 14.1004 22.7431 12.9728 24.4498 12.9728C26.3286 12.9728 27.6262 14.0656 27.9675 15.8256C28.1113 15.8256 20.9661 15.8256 20.9661 15.8256ZM44.0562 23.0264C41.6608 23.0264 40.1723 20.842 40.1723 18.5612C40.1723 16.1232 41.4671 13.7788 44.0562 13.7788C46.7409 13.7788 47.8104 16.1232 47.8104 18.5612C47.81 20.8732 46.6767 23.0264 44.0562 23.0264Z" fill="#18191F"/>
</g>
</g>
<defs>
<clipPath id="clip0_643_35337">
<rect width="94" height="28" fill="white"/>
</clipPath>
</defs>
</svg>
