<svg width="26" height="12" viewBox="0 0 26 12" fill="none" xmlns="http://www.w3.org/2000/svg">
<g id="GooglePay">
<g id="Pay">
<path id="Union" fill-rule="evenodd" clip-rule="evenodd" d="M11.9912 8.72718V5.58539H13.6128C14.2772 5.58539 14.8381 5.36274 15.2953 4.92363L15.405 4.81231C16.2401 3.90316 16.1853 2.48688 15.2953 1.64577C14.8503 1.20048 14.2407 0.959275 13.6128 0.971645H11.0098V8.72718H11.9912ZM11.9914 4.63287V1.924H13.6376C13.9912 1.924 14.3265 2.06006 14.5765 2.30744C15.1069 2.82695 15.1191 3.6928 14.607 4.23087C14.357 4.49681 14.0034 4.64524 13.6376 4.63287H11.9914ZM19.9832 3.83513C19.5626 3.4455 18.9895 3.24759 18.2641 3.24759C17.3314 3.24759 16.6304 3.59393 16.1671 4.28043L17.0327 4.83086C17.3497 4.36083 17.7825 4.12581 18.3312 4.12581C18.6786 4.12581 19.0139 4.25569 19.2761 4.4907C19.5321 4.71335 19.6784 5.03495 19.6784 5.37511V5.60394C19.3004 5.39366 18.825 5.28234 18.2397 5.28234C17.557 5.28234 17.0083 5.44314 16.5999 5.77093C16.1915 6.09871 15.9842 6.53164 15.9842 7.08207C15.972 7.58303 16.1854 8.05924 16.5633 8.38084C16.9474 8.72718 17.4351 8.90035 18.0081 8.90035C18.6847 8.90035 19.2212 8.59731 19.6296 7.99121H19.6723V8.72718H20.6111V5.45551C20.6111 4.76901 20.4038 4.22476 19.9832 3.83513ZM17.3194 7.75003C17.1182 7.6016 16.9962 7.3604 16.9962 7.10064C16.9962 6.80997 17.1304 6.56876 17.3925 6.37704C17.6608 6.18532 17.9961 6.08636 18.3924 6.08636C18.9412 6.08018 19.368 6.20387 19.6728 6.45126C19.6728 6.87181 19.5082 7.23671 19.185 7.54594C18.8924 7.8428 18.4961 8.00979 18.0815 8.00979C17.8071 8.01597 17.5389 7.9232 17.3194 7.75003ZM22.7202 11.0588L25.9999 3.42075H24.9331L23.4152 7.23049H23.3969L21.8424 3.42075H20.7756L22.9275 8.38702L21.7083 11.0588H22.7202Z" fill="#D4D5D6"/>
</g>
<g id="G">
<path id="Blue" d="M8.60297 4.90503C8.60297 4.60199 8.57858 4.29894 8.52982 4.00208H4.39062V5.71522H6.76197C6.66444 6.26565 6.34744 6.76042 5.88415 7.06966V8.18289H7.29842C8.12748 7.40981 8.60297 6.26565 8.60297 4.90503Z" fill="#4285F4"/>
<path id="Green" d="M4.39093 9.25901C5.57355 9.25901 6.5733 8.86319 7.29872 8.18288L5.88445 7.06964C5.48821 7.34177 4.98224 7.49638 4.39093 7.49638C3.24488 7.49638 2.27561 6.71094 1.92814 5.65955H0.471191V6.80989C1.2149 8.31276 2.73281 9.25901 4.39093 9.25901Z" fill="#34A853"/>
<path id="Yellow" d="M1.92817 5.65959C1.74526 5.10916 1.74526 4.50925 1.92817 3.95263V2.80847H0.470992C-0.156997 4.06395 -0.156997 5.54827 0.470992 6.80375L1.92817 5.65959Z" fill="#FBBC04"/>
<path id="Red" d="M4.39093 2.1158C5.01882 2.10343 5.62232 2.34463 6.07342 2.78374L7.3292 1.5097C6.53063 0.755176 5.48211 0.340805 4.39093 0.353174C2.73281 0.353174 1.2149 1.30561 0.471191 2.80848L1.92814 3.95882C2.27561 2.90125 3.24488 2.1158 4.39093 2.1158Z" fill="#EA4335"/>
</g>
</g>
</svg>
