<svg width="89" height="30" viewBox="0 0 89 30" fill="none" xmlns="http://www.w3.org/2000/svg">
<g id="Google Logo" clip-path="url(#clip0_643_35354)">
<path id="Vector" d="M37.8751 15.3847C37.8751 19.5488 34.6063 22.6173 30.5948 22.6173C26.5832 22.6173 23.3145 19.5488 23.3145 15.3847C23.3145 11.1912 26.5832 8.1521 30.5948 8.1521C34.6063 8.1521 37.8751 11.1912 37.8751 15.3847ZM34.6881 15.3847C34.6881 12.7825 32.7936 11.0021 30.5948 11.0021C28.396 11.0021 26.5014 12.7825 26.5014 15.3847C26.5014 17.9608 28.396 19.7673 30.5948 19.7673C32.7936 19.7673 34.6881 17.9575 34.6881 15.3847Z" fill="#1C1C1C"/>
<path id="Vector_2" d="M53.5792 15.3847C53.5792 19.5488 50.3104 22.6173 46.2989 22.6173C42.2873 22.6173 39.0186 19.5488 39.0186 15.3847C39.0186 11.1945 42.2873 8.1521 46.2989 8.1521C50.3104 8.1521 53.5792 11.1912 53.5792 15.3847ZM50.3922 15.3847C50.3922 12.7825 48.4977 11.0021 46.2989 11.0021C44.1001 11.0021 42.2055 12.7825 42.2055 15.3847C42.2055 17.9608 44.1001 19.7673 46.2989 19.7673C48.4977 19.7673 50.3922 17.9575 50.3922 15.3847Z" fill="#1C1C1C"/>
<path id="Vector_3" d="M68.6325 8.58906V21.5738C68.6325 26.9151 65.4717 29.0967 61.735 29.0967C58.2176 29.0967 56.1005 26.7521 55.3022 24.8347L58.0769 23.6836C58.5709 24.8608 59.7816 26.2499 61.7318 26.2499C64.1236 26.2499 65.6059 24.7793 65.6059 22.0108V20.9706H65.4946C64.7813 21.8478 63.4071 22.6141 61.6729 22.6141C58.0441 22.6141 54.7197 19.4641 54.7197 15.4108C54.7197 11.3282 58.0441 8.1521 61.6729 8.1521C63.4038 8.1521 64.778 8.9184 65.4946 9.76949H65.6059V8.59232H68.6325V8.58906ZM65.8317 15.4108C65.8317 12.8641 64.1269 11.0021 61.9575 11.0021C59.7587 11.0021 57.9165 12.8641 57.9165 15.4108C57.9165 17.9314 59.7587 19.7673 61.9575 19.7673C64.1269 19.7673 65.8317 17.9314 65.8317 15.4108Z" fill="#1C1C1C"/>
<path id="Vector_4" d="M73.6221 0.978271V22.1739H70.5137V0.978271H73.6221Z" fill="#1C1C1C"/>
<path id="Vector_5" d="M85.7349 17.7652L88.2085 19.4087C87.4101 20.5859 85.4862 22.6141 82.1618 22.6141C78.039 22.6141 74.96 19.4381 74.96 15.3815C74.96 11.0804 78.0651 8.14893 81.8051 8.14893C85.5713 8.14893 87.4134 11.1359 88.0155 12.75L88.346 13.5718L78.6443 17.5761C79.3871 19.0272 80.5421 19.7674 82.1618 19.7674C83.7847 19.7674 84.9103 18.9718 85.7349 17.7652ZM78.1208 15.1631L84.606 12.4794C84.2493 11.5761 83.1761 10.9468 81.9131 10.9468C80.2934 10.9468 78.039 12.3718 78.1208 15.1631Z" fill="#1C1C1C"/>
<path id="Vector_6" d="M11.5475 13.5033V10.4348H21.9232C22.0246 10.9696 22.077 11.6022 22.077 12.287C22.077 14.5892 21.4454 17.4359 19.4102 19.4642C17.4306 21.5185 14.9013 22.6142 11.5507 22.6142C5.34037 22.6142 0.118164 17.5729 0.118164 11.3838C0.118164 5.19462 5.34037 0.15332 11.5507 0.15332C14.9864 0.15332 17.4339 1.4968 19.2728 3.24789L17.1001 5.4131C15.7815 4.18049 13.995 3.2218 11.5475 3.2218C7.01239 3.2218 3.46548 6.86419 3.46548 11.3838C3.46548 15.9033 7.01239 19.5457 11.5475 19.5457C14.489 19.5457 16.1643 18.3685 17.2376 17.299C18.1079 16.4316 18.6806 15.1925 18.9063 13.5001L11.5475 13.5033Z" fill="#1C1C1C"/>
</g>
<defs>
<clipPath id="clip0_643_35354">
<rect width="89" height="30" fill="white"/>
</clipPath>
</defs>
</svg>
