<svg width="16" height="16" viewBox="0 0 16 16" fill="none" xmlns="http://www.w3.org/2000/svg">
<g id="Linkedin" clip-path="url(#clip0_643_33455)">
<path id="Vector" d="M14.0601 0.897217H1.78763C1.19995 0.897217 0.723633 1.35898 0.723633 1.9289V14.2651C0.723633 14.835 1.20011 15.2972 1.78763 15.2972H14.0601C14.6478 15.2972 15.1235 14.8348 15.1235 14.2651V1.9289C15.1235 1.35914 14.6478 0.897217 14.0601 0.897217ZM5.08923 12.951H2.91355V6.44954H5.08923V12.951ZM4.00155 5.56138H3.98699C3.25739 5.56138 2.78443 5.06234 2.78443 4.4377C2.78443 3.80042 3.27131 3.31498 4.01531 3.31498C4.75947 3.31498 5.21723 3.80026 5.23163 4.4377C5.23163 5.0625 4.75963 5.56138 4.00155 5.56138ZM12.9321 12.951H10.7571V9.47258C10.7571 8.59834 10.4419 8.00202 9.65531 8.00202C9.05355 8.00202 8.69643 8.40442 8.53963 8.79274C8.48139 8.93162 8.46715 9.12554 8.46715 9.31946V12.9508H6.29243C6.29243 12.9508 6.32091 7.05914 6.29243 6.44938H8.46731V7.37114C8.75611 6.92826 9.27195 6.29642 10.4272 6.29642C11.8587 6.29642 12.9321 7.22506 12.9321 9.22298V12.951ZM8.45323 7.39178C8.45707 7.3857 8.46219 7.37834 8.46731 7.3713V7.39178H8.45323Z" fill="#FBFFFE"/>
</g>
<defs>
<clipPath id="clip0_643_33455">
<rect width="16" height="16" fill="white"/>
</clipPath>
</defs>
</svg>
