<svg width="288" height="55" viewBox="0 0 288 55" fill="none" xmlns="http://www.w3.org/2000/svg">
<g clip-path="url(#clip0_643_35732)">
<path d="M80.547 22.7659C80.234 22.9748 79.8862 23.1488 79.4688 23.3229C79.0515 23.4969 78.5994 23.6362 78.1125 23.7406C77.6256 23.845 77.1039 23.8798 76.5127 23.8798C75.3998 23.8798 74.3912 23.671 73.4869 23.2881C72.5827 22.9052 71.8176 22.3482 71.1568 21.6868C70.5308 21.0254 70.0091 20.2248 69.6613 19.3545C69.3135 18.4843 69.1396 17.5444 69.1396 16.5349C69.1396 15.4558 69.3135 14.4811 69.6961 13.5412C70.0787 12.6362 70.6003 11.8355 71.2611 11.1393C71.9219 10.4431 72.7218 9.92097 73.5913 9.53806C74.4607 9.15515 75.4345 8.94629 76.4779 8.94629C77.243 8.94629 77.9734 9.05072 78.6342 9.25958C79.2949 9.46844 79.921 9.74692 80.4426 10.0602L80.0253 11.0001C79.5384 10.6868 79.0167 10.4431 78.3907 10.2343C77.7995 10.0254 77.1387 9.92097 76.4779 9.92097C75.6084 9.92097 74.8085 10.095 74.0434 10.4083C73.2783 10.7564 72.6175 11.2089 72.0263 11.8007C71.435 12.3925 70.9829 13.0887 70.6699 13.8893C70.3569 14.69 70.183 15.5254 70.183 16.4653C70.183 17.3355 70.3221 18.171 70.6351 18.9368C70.9133 19.7026 71.3655 20.3988 71.9219 20.9906C72.4784 21.5824 73.1392 22.0349 73.9391 22.383C74.7042 22.7311 75.5737 22.8703 76.5475 22.8703C77.243 22.8703 77.9038 22.7659 78.495 22.557C79.0863 22.3482 79.6079 22.1045 80.0948 21.7912L80.547 22.7659Z" fill="#1C1C1C"/>
<path d="M84.2686 9.15503H85.2771V22.7658H93.2414V23.7057H84.2686V9.15503Z" fill="#1C1C1C"/>
<path d="M97.6228 9.15503H96.6143V23.7405H97.6228V9.15503Z" fill="#1C1C1C"/>
<path d="M102.283 23.7056V8.80688L109.482 19.0063L109.03 18.9714L116.195 8.80688H116.229V23.7056H115.221V11.1392L115.325 11.6265L109.239 20.1898H109.204L103.083 11.6265L103.257 11.174V23.7056H102.283Z" fill="#1C1C1C"/>
<path d="M119.568 23.7057L125.724 8.49365H125.794L131.984 23.7057H130.871L125.515 10.0949L126.211 9.71201L120.612 23.7057H119.568ZM122.559 17.962H129.028L129.306 18.9019H122.316L122.559 17.962Z" fill="#1C1C1C"/>
<path d="M133.062 9.15503H142.627V10.0949H138.314V23.7057H137.305V10.0949H133.062V9.15503Z" fill="#1C1C1C"/>
<path d="M146.069 9.15503H155.077V10.0949H147.078V15.9082H154.277V16.8481H147.078V22.7658H155.355V23.7057H146.069V9.15503Z" fill="#1C1C1C"/>
<path d="M52.6545 0H0V55H52.6545V0Z" stroke="#1C1C1C" stroke-miterlimit="10"/>
<path d="M31.9611 37.8735H31.6133V43.1299H31.9611V37.8735Z" fill="#1C1C1C"/>
<path d="M33.3174 40.5189C33.3174 40.136 33.3869 39.7879 33.5261 39.4746C33.6652 39.1613 33.8738 38.848 34.1173 38.6043C34.3607 38.3607 34.639 38.1518 34.9867 38.0126C35.2998 37.8733 35.6475 37.8037 36.0301 37.8037C36.4127 37.8037 36.7604 37.8733 37.0734 38.0126C37.3865 38.1518 37.6995 38.3607 37.9429 38.6043C38.1864 38.848 38.395 39.1265 38.5341 39.4746C38.6733 39.7879 38.7428 40.136 38.7428 40.5189C38.7428 40.9018 38.6733 41.2499 38.5341 41.5632C38.395 41.8765 38.1864 42.1898 37.9429 42.4335C37.6995 42.6771 37.4212 42.886 37.0734 43.0252C36.7604 43.1645 36.4127 43.2341 36.0301 43.2341C35.6475 43.2341 35.2998 43.1645 34.9867 43.0252C34.6737 42.886 34.3607 42.7119 34.1173 42.4683C33.8738 42.2246 33.6652 41.9461 33.5261 41.598C33.3869 41.2499 33.3174 40.9018 33.3174 40.5189ZM33.6652 40.5189C33.6652 40.8322 33.7347 41.1455 33.8391 41.424C33.9434 41.7024 34.1173 41.9461 34.326 42.155C34.5346 42.3638 34.7781 42.5379 35.0563 42.6423C35.3345 42.7467 35.6475 42.8164 35.9605 42.8164C36.2735 42.8164 36.5866 42.7467 36.8648 42.6423C37.143 42.5379 37.3865 42.3638 37.5951 42.155C37.8038 41.9461 37.9777 41.7024 38.082 41.424C38.1864 41.1455 38.2559 40.8322 38.2559 40.5189C38.2559 40.2056 38.1864 39.8923 38.082 39.6138C37.9777 39.3354 37.8038 39.0917 37.5951 38.848C37.3865 38.6392 37.143 38.4651 36.8648 38.3259C36.5866 38.1866 36.2735 38.1518 35.9605 38.1518C35.6475 38.1518 35.3345 38.2214 35.0563 38.3259C34.7781 38.4651 34.5346 38.6392 34.326 38.848C34.1173 39.0569 33.9434 39.3005 33.8391 39.6138C33.7347 39.8923 33.6652 40.2056 33.6652 40.5189Z" fill="#1C1C1C"/>
<path d="M44.4124 43.269L40.2737 38.5697L40.3781 38.5001V43.1298H40.0303V37.769H40.0651L44.2037 42.4684L44.0993 42.5032V37.8735H44.4471V43.269H44.4124Z" fill="#1C1C1C"/>
<path d="M8.79883 13.4368L20.5539 20.4684" stroke="#1C1C1C" stroke-width="0.75" stroke-miterlimit="10"/>
<path d="M8.76367 20.2943L20.6579 13.75" stroke="#1C1C1C" stroke-width="0.75" stroke-miterlimit="10"/>
<path d="M14.7457 9.99048L14.7109 23.8101" stroke="#1C1C1C" stroke-width="0.75" stroke-miterlimit="10"/>
<path d="M17.0762 10.9651L14.7461 13.5758" stroke="#1C1C1C" stroke-width="0.75" stroke-miterlimit="10"/>
<path d="M12.3809 10.9651L14.711 13.5758" stroke="#1C1C1C" stroke-width="0.75" stroke-miterlimit="10"/>
<path d="M21.1108 16.3608L17.7373 15.3513" stroke="#1C1C1C" stroke-width="0.75" stroke-miterlimit="10"/>
<path d="M19.1284 12.0791L17.7373 15.3513" stroke="#1C1C1C" stroke-width="0.75" stroke-miterlimit="10"/>
<path d="M12.3809 23.1139L14.711 20.5032" stroke="#1C1C1C" stroke-width="0.75" stroke-miterlimit="10"/>
<path d="M17.0759 23.1487L14.7109 20.5032" stroke="#1C1C1C" stroke-width="0.75" stroke-miterlimit="10"/>
<path d="M18.6416 22.0349L17.5635 18.6931" stroke="#1C1C1C" stroke-width="0.75" stroke-miterlimit="10"/>
<path d="M21.0413 17.9968L17.5635 18.6582" stroke="#1C1C1C" stroke-width="0.75" stroke-miterlimit="10"/>
<path d="M8.27734 17.8923L11.7552 18.5885" stroke="#1C1C1C" stroke-width="0.75" stroke-miterlimit="10"/>
<path d="M10.6768 21.9304L11.7549 18.5886" stroke="#1C1C1C" stroke-width="0.75" stroke-miterlimit="10"/>
<path d="M10.6426 11.9399L11.9294 15.2469" stroke="#1C1C1C" stroke-width="0.75" stroke-miterlimit="10"/>
<path d="M8.52051 16.1519L11.9288 15.2468" stroke="#1C1C1C" stroke-width="0.75" stroke-miterlimit="10"/>
<path d="M14.3985 39.0918C14.3985 40.5539 13.1465 41.7374 11.6163 41.7374C10.086 41.7374 8.83398 40.5539 8.83398 39.0918C8.83398 37.6298 11.6163 34.7754 11.6163 34.7754C13.1465 36.4115 14.3985 37.6298 14.3985 39.0918Z" stroke="#1C1C1C" stroke-width="0.75" stroke-miterlimit="10"/>
<path d="M12.9377 36.2026C14.1897 34.5317 15.5113 33.1741 15.5113 33.1741C18.1544 36.0285 20.2759 38.0823 20.2759 40.6234C20.2759 43.1298 18.1544 45.1836 15.5113 45.1836C13.2507 45.1836 11.3726 43.6867 10.8857 41.6677" stroke="#1C1C1C" stroke-width="0.75" stroke-miterlimit="10"/>
<path d="M18.7799 40.3796C18.7799 40.3796 19.0233 41.9809 17.2148 43.1296" stroke="#1C1C1C" stroke-width="0.75" stroke-miterlimit="10"/>
<path d="M38.4998 17.7185C38.4998 19.6678 36.9348 21.2343 34.9872 21.2343C33.0744 21.2343 31.4746 19.6678 31.4746 17.7185C31.4746 15.7691 33.0396 14.2026 34.9872 14.2026C36.9348 14.2026 38.4998 15.7691 38.4998 17.7185Z" stroke="#1C1C1C" stroke-width="0.75" stroke-miterlimit="10"/>
<path d="M40.5866 13.8892C41.547 13.8892 42.3255 13.11 42.3255 12.1487C42.3255 11.1875 41.547 10.4082 40.5866 10.4082C39.6262 10.4082 38.8477 11.1875 38.8477 12.1487C38.8477 13.11 39.6262 13.8892 40.5866 13.8892Z" stroke="#1C1C1C" stroke-width="0.75" stroke-miterlimit="10"/>
<path d="M41.9423 23.3925C43.2868 23.3925 44.3768 22.3015 44.3768 20.9558C44.3768 19.61 43.2868 18.519 41.9423 18.519C40.5978 18.519 39.5078 19.61 39.5078 20.9558C39.5078 22.3015 40.5978 23.3925 41.9423 23.3925Z" stroke="#1C1C1C" stroke-width="0.75" stroke-miterlimit="10"/>
<path d="M4.76465 27.6392H48.3768" stroke="#1C1C1C" stroke-width="0.25" stroke-miterlimit="10"/>
<path d="M27.127 49.4651V5.81323" stroke="#1C1C1C" stroke-width="0.25" stroke-miterlimit="10"/>
<path d="M69.1738 38.5C69.1738 37.4906 69.3825 36.5159 69.7651 35.6108C70.1476 34.7057 70.6693 33.9051 71.3649 33.2437C72.0604 32.5475 72.8256 32.0254 73.7298 31.6076C74.634 31.2247 75.5731 31.0159 76.6164 31.0159C77.625 31.0159 78.5988 31.2247 79.503 31.6076C80.4073 31.9906 81.2072 32.5475 81.8679 33.2437C82.5635 33.9399 83.0852 34.7406 83.4678 35.6108C83.8503 36.5159 84.059 37.4557 84.059 38.5C84.059 39.5095 83.8503 40.4842 83.4678 41.3893C83.0852 42.2944 82.5287 43.0602 81.8679 43.7564C81.1724 44.4526 80.4073 44.9747 79.503 45.3576C78.5988 45.7406 77.625 45.9494 76.6164 45.9494C75.6078 45.9494 74.634 45.7754 73.7298 45.3924C72.8256 45.0095 72.0604 44.4874 71.3649 43.826C70.6693 43.1646 70.1476 42.364 69.7651 41.4589C69.3477 40.5538 69.1738 39.5792 69.1738 38.5ZM70.1824 38.5349C70.1824 39.4399 70.3563 40.2754 70.6693 41.0412C70.9823 41.807 71.4692 42.5032 72.0604 43.095C72.6517 43.6868 73.3125 44.1393 74.1124 44.4874C74.8775 44.8355 75.7122 44.9747 76.5816 44.9747C77.4859 44.9747 78.3206 44.8007 79.1205 44.4874C79.8856 44.1393 80.5811 43.6868 81.1724 43.095C81.7636 42.5032 82.2157 41.807 82.5635 41.0412C82.9113 40.2754 83.0504 39.4051 83.0504 38.5C83.0504 37.595 82.8765 36.7595 82.5635 35.9937C82.2157 35.1931 81.7636 34.5317 81.1724 33.9051C80.5811 33.3133 79.8856 32.826 79.1205 32.5127C78.3553 32.1646 77.5206 31.9906 76.6164 31.9906C75.7122 31.9906 74.8775 32.1646 74.0776 32.5127C73.2777 32.8608 72.6169 33.3481 72.0257 33.9399C71.4344 34.5317 70.9823 35.2279 70.6693 36.0285C70.3563 36.8292 70.1824 37.6646 70.1824 38.5349Z" fill="#1C1C1C"/>
<path d="M87.7803 31.2246H95.9184V32.1645H88.7888V38.1866H95.1185V39.1265H88.7888V45.7752H87.7803V31.2246Z" fill="#1C1C1C"/>
<path d="M104.753 31.2246H114.282V32.1645H110.004V45.7752H108.996V32.1645H104.753V31.2246Z" fill="#1C1C1C"/>
<path d="M128.541 31.2246V45.7752H127.533V38.9176H118.768V45.7752H117.76V31.2246H118.768V37.9778H127.533V31.2246H128.541Z" fill="#1C1C1C"/>
<path d="M133.167 31.2246H142.175V32.1645H134.176V37.9778H141.375V38.9176H134.176V44.8354H142.453V45.7752H133.167V31.2246Z" fill="#1C1C1C"/>
<path d="M152.573 31.2246H160.746V32.1645H153.582V38.1866H159.911V39.1265H153.582V45.7752H152.573V31.2246Z" fill="#1C1C1C"/>
<path d="M165.371 40.867C165.371 41.7025 165.545 42.4335 165.893 43.0601C166.24 43.6866 166.727 44.1392 167.318 44.4873C167.91 44.8354 168.605 44.9746 169.37 44.9746C170.136 44.9746 170.831 44.8006 171.457 44.4873C172.048 44.1392 172.535 43.6866 172.883 43.0601C173.231 42.4335 173.405 41.7025 173.405 40.867V31.2246H174.378V40.9018C174.378 41.9461 174.17 42.8512 173.718 43.617C173.266 44.3828 172.674 44.9398 171.909 45.3575C171.144 45.7404 170.309 45.9493 169.37 45.9493C168.431 45.9493 167.562 45.7404 166.832 45.3575C166.066 44.9746 165.475 44.3828 165.023 43.617C164.571 42.8512 164.362 41.9461 164.362 40.9018V31.2246H165.371V40.867Z" fill="#1C1C1C"/>
<path d="M177.752 31.2246H187.316V32.1645H183.004V45.7752H181.995V32.1645H177.752V31.2246Z" fill="#1C1C1C"/>
<path d="M191.699 40.867C191.699 41.7025 191.873 42.4335 192.221 43.0601C192.568 43.6866 193.055 44.1392 193.647 44.4873C194.238 44.8354 194.933 44.9746 195.699 44.9746C196.464 44.9746 197.159 44.8006 197.785 44.4873C198.376 44.1392 198.863 43.6866 199.211 43.0601C199.559 42.4335 199.733 41.7025 199.733 40.867V31.2246H200.707V40.9018C200.707 41.9461 200.498 42.8512 200.046 43.617C199.594 44.3828 199.002 44.9398 198.237 45.3575C197.472 45.7404 196.638 45.9493 195.699 45.9493C194.76 45.9493 193.89 45.7404 193.16 45.3575C192.395 44.9746 191.803 44.3828 191.351 43.617C190.899 42.8512 190.69 41.9461 190.69 40.9018V31.2246H191.699V40.867Z" fill="#1C1C1C"/>
<path d="M208.6 31.2246C209.157 31.2246 209.679 31.2942 210.235 31.4683C210.791 31.6423 211.278 31.886 211.696 32.1993C212.148 32.5474 212.496 32.9651 212.774 33.4873C213.052 34.0094 213.191 34.636 213.191 35.367C213.191 35.924 213.122 36.4461 212.948 36.9683C212.774 37.4904 212.53 37.943 212.148 38.3607C211.765 38.7784 211.313 39.0917 210.722 39.3354C210.131 39.579 209.4 39.7183 208.531 39.7183H206.27V45.7752H205.262V31.2246H208.6ZM208.461 38.7088C209.192 38.7088 209.783 38.6044 210.27 38.3955C210.757 38.1866 211.139 37.9082 211.383 37.5949C211.661 37.2816 211.835 36.8987 211.974 36.5158C212.078 36.1328 212.148 35.7499 212.148 35.367C212.148 34.9145 212.078 34.5316 211.904 34.1487C211.73 33.7657 211.522 33.4176 211.209 33.1392C210.896 32.8607 210.548 32.617 210.131 32.443C209.713 32.2689 209.226 32.1993 208.705 32.1993H206.236V38.7436H208.461V38.7088ZM210.548 39.1613L214.582 45.7752H213.4L209.331 39.1613H210.548Z" fill="#1C1C1C"/>
<path d="M218.234 31.2246H227.242V32.1645H219.243V37.9778H226.442V38.9176H219.243V44.8354H227.52V45.7752H218.234V31.2246Z" fill="#1C1C1C"/>
</g>
<defs>
<clipPath id="clip0_643_35732">
<rect width="288" height="55" fill="white"/>
</clipPath>
</defs>
</svg>
