<svg width="115" height="24" viewBox="0 0 115 24" fill="none" xmlns="http://www.w3.org/2000/svg">
<g id="Microsoft Logo" clip-path="url(#clip0_643_35345)">
<path id="Vector" d="M40.5923 13.8231L39.9068 15.7208H39.8497C39.7355 15.2929 39.526 14.6417 39.1833 13.8603L35.5087 4.83705H31.9102V19.2185H34.2901V10.344C34.2901 9.78589 34.2901 9.15333 34.2711 8.37194C34.252 7.98124 34.214 7.68357 34.1949 7.46031H34.252C34.3663 8.01845 34.4996 8.42775 34.5948 8.68822L39.012 19.1812H40.6875L45.0666 8.59519C45.1618 8.35333 45.257 7.86961 45.3522 7.46031H45.4093C45.3522 8.52077 45.3141 9.46961 45.2951 10.0464V19.1626H47.8274V4.79984H44.3621L40.5923 13.8231ZM50.2264 8.85566H52.7015V19.1626H50.2264V8.85566ZM51.483 4.50217C51.0641 4.50217 50.7214 4.65101 50.4358 4.91147C50.1502 5.17194 49.9979 5.50682 49.9979 5.91612C49.9979 6.30682 50.1502 6.64171 50.4358 6.90217C50.7214 7.16264 51.0641 7.29287 51.483 7.29287C51.9019 7.29287 52.2636 7.14403 52.5302 6.90217C52.8158 6.64171 52.9681 6.30682 52.9681 5.91612C52.9681 5.52543 52.8158 5.19054 52.5302 4.91147C52.2827 4.65101 51.9209 4.50217 51.483 4.50217ZM61.4789 8.76264C61.0219 8.66961 60.5459 8.6138 60.089 8.6138C58.9656 8.6138 57.9375 8.85566 57.0807 9.33938C56.2239 9.8231 55.5385 10.4929 55.1005 11.3301C54.6436 12.1859 54.4151 13.1719 54.4151 14.3068C54.4151 15.2929 54.6436 16.1673 55.0815 16.9673C55.5194 17.7487 56.1287 18.3812 56.9474 18.8091C57.728 19.2371 58.6419 19.4603 59.6701 19.4603C60.8505 19.4603 61.8597 19.2185 62.6593 18.7719L62.6784 18.7533V16.5208L62.5832 16.5952C62.2214 16.8557 61.8025 17.0789 61.3837 17.2091C60.9457 17.358 60.5459 17.4324 60.2032 17.4324C59.2131 17.4324 58.4325 17.1533 57.8803 16.5394C57.3092 15.944 57.0236 15.1254 57.0236 14.1022C57.0236 13.0417 57.3092 12.2045 57.8994 11.5905C58.4896 10.9766 59.2702 10.6603 60.2222 10.6603C61.0219 10.6603 61.8406 10.9208 62.5832 11.4417L62.6784 11.5161V9.15333L62.6593 9.13473C62.3356 9.0045 61.9739 8.85566 61.4789 8.76264ZM69.6469 8.68822C69.0376 8.68822 68.4664 8.87426 67.9714 9.26496C67.5525 9.59984 67.2669 10.0836 67.0194 10.6603H67.0004V8.85566H64.5252V19.1626H67.0004V13.8975C67.0004 13.0045 67.1908 12.2603 67.6096 11.7208C68.0285 11.1626 68.5616 10.8836 69.209 10.8836C69.4375 10.8836 69.6659 10.9394 69.9515 10.9766C70.2181 11.051 70.4085 11.1254 70.5418 11.2184L70.637 11.2929V8.87426L70.5798 8.85566C70.4085 8.74403 70.0658 8.68822 69.6469 8.68822ZM76.387 8.6324C74.6544 8.6324 73.2645 9.13473 72.2934 10.1208C71.3034 11.1068 70.8274 12.465 70.8274 14.1766C70.8274 15.7766 71.3224 17.0789 72.2744 18.0278C73.2264 18.958 74.5211 19.4417 76.1395 19.4417C77.834 19.4417 79.1858 18.9394 80.1568 17.9347C81.1469 16.9301 81.6229 15.5905 81.6229 13.9347C81.6229 12.2975 81.1659 10.9952 80.233 10.0464C79.3381 9.09752 78.0244 8.6324 76.387 8.6324ZM78.3671 16.558C77.9101 17.1347 77.1866 17.4138 76.2918 17.4138C75.3969 17.4138 74.6734 17.1347 74.1593 16.5208C73.6452 15.944 73.3977 15.1068 73.3977 14.0464C73.3977 12.9487 73.6643 12.1115 74.1593 11.5161C74.6734 10.9208 75.3779 10.6231 76.2727 10.6231C77.1486 10.6231 77.834 10.9022 78.329 11.4789C78.8241 12.0557 79.0906 12.8929 79.0906 13.9905C79.0525 15.1068 78.8431 15.9812 78.3671 16.558ZM87.1444 13.1347C86.3638 12.8184 85.8688 12.5766 85.6403 12.3719C85.4499 12.1859 85.3547 11.9254 85.3547 11.5905C85.3547 11.3115 85.4689 11.0324 85.7545 10.8464C86.0401 10.6603 86.3638 10.5673 86.8398 10.5673C87.2587 10.5673 87.6966 10.6417 88.1154 10.7533C88.5343 10.865 88.9151 11.0324 89.2197 11.2557L89.3149 11.3301V9.06031L89.2578 9.04171C88.9722 8.93008 88.5914 8.81845 88.1345 8.72543C87.6775 8.65101 87.2587 8.6138 86.9159 8.6138C85.7355 8.6138 84.7645 8.89287 84.0029 9.50682C83.2413 10.0836 82.8795 10.865 82.8795 11.7766C82.8795 12.2603 82.9557 12.6882 83.127 13.0417C83.2984 13.3952 83.5459 13.7301 83.8886 14.0091C84.2313 14.2696 84.7264 14.5673 85.4118 14.8464C85.983 15.0882 86.4209 15.2743 86.6875 15.4231C86.954 15.5719 87.1254 15.7394 87.2587 15.8696C87.3538 16.0185 87.411 16.2045 87.411 16.4464C87.411 17.1347 86.8779 17.4696 85.7926 17.4696C85.3737 17.4696 84.9358 17.3952 84.4217 17.2278C83.9077 17.0603 83.4317 16.8184 83.0318 16.5394L82.9366 16.465V18.8278L82.9938 18.8464C83.3555 19.0138 83.7934 19.1254 84.3265 19.2557C84.8596 19.3487 85.3356 19.4231 85.7545 19.4231C87.0302 19.4231 88.0774 19.144 88.8199 18.5301C89.5815 17.9347 89.9813 17.1719 89.9813 16.1859C89.9813 15.4975 89.7909 14.8836 89.3721 14.4185C88.8199 13.9719 88.1345 13.5068 87.1444 13.1347ZM96.512 8.6324C94.7793 8.6324 93.3894 9.13473 92.4184 10.1208C91.4474 11.1068 90.9524 12.465 90.9524 14.1766C90.9524 15.7766 91.4474 17.0789 92.3994 18.0278C93.3514 18.958 94.6461 19.4417 96.2644 19.4417C97.959 19.4417 99.3108 18.9394 100.282 17.9347C101.272 16.9301 101.748 15.5905 101.748 13.9347C101.748 12.2975 101.291 10.9952 100.358 10.0464C99.4631 9.09752 98.1494 8.6324 96.512 8.6324ZM98.4731 16.558C98.0161 17.1347 97.2926 17.4138 96.3977 17.4138C95.4838 17.4138 94.7793 17.1347 94.2653 16.5208C93.7512 15.944 93.5037 15.1068 93.5037 14.0464C93.5037 12.9487 93.7702 12.1115 94.2653 11.5161C94.7793 10.9208 95.4838 10.6231 96.3787 10.6231C97.2355 10.6231 97.9399 10.9022 98.435 11.4789C98.93 12.0557 99.1966 12.8929 99.1966 13.9905C99.1966 15.1068 98.9491 15.9812 98.4731 16.558ZM114.981 10.8464V8.85566H112.486V5.8045L112.41 5.8231L110.049 6.51147L109.992 6.53008V8.85566H106.26V7.55333C106.26 6.95798 106.413 6.49287 106.679 6.19519C106.946 5.89752 107.346 5.74868 107.841 5.74868C108.183 5.74868 108.545 5.8231 108.945 5.99054L109.04 6.04636V3.94403L108.983 3.92543C108.64 3.8138 108.183 3.73938 107.593 3.73938C106.851 3.73938 106.203 3.90682 105.613 4.18589C105.023 4.50217 104.585 4.93008 104.261 5.50682C103.937 6.06496 103.766 6.69752 103.766 7.4231V8.85566H102.033V10.8278H103.766V19.1626H106.26V10.8464H109.992V16.1487C109.992 18.3254 111.039 19.4231 113.134 19.4231C113.476 19.4231 113.838 19.3673 114.181 19.3115C114.543 19.2371 114.809 19.144 114.961 19.0696L114.981 19.051V17.0603L114.885 17.1347C114.733 17.2278 114.6 17.3022 114.371 17.358C114.181 17.4138 114.009 17.4324 113.876 17.4324C113.381 17.4324 113.038 17.3208 112.791 17.0417C112.562 16.7812 112.448 16.3533 112.448 15.7208V10.8464H114.981Z" fill="#737373"/>
<path id="Vector_2" d="M0 0H11.6714V11.4047H0V0Z" fill="#838383"/>
<path id="Vector_3" d="M12.8887 0H24.56V11.4047H12.8887V0Z" fill="#B0B0B0"/>
<path id="Vector_4" d="M0 12.5953H11.6714V24H0V12.5953Z" fill="#BBC8D4"/>
<path id="Vector_5" d="M12.8887 12.5955H24.56V24.0001H12.8887V12.5955Z" fill="#4F4F4F"/>
</g>
<defs>
<clipPath id="clip0_643_35345">
<rect width="115" height="24" fill="white"/>
</clipPath>
</defs>
</svg>
