<svg width="92" height="32" viewBox="0 0 92 32" fill="none" xmlns="http://www.w3.org/2000/svg">
<g id="OLA logo" clip-path="url(#clip0_643_35363)">
<g id="Group">
<path id="Vector" fill-rule="evenodd" clip-rule="evenodd" d="M81.0886 14.9089L75.2332 25.1059L70.2375 25.1259L81.0886 5.93292L91.8991 25.1259H86.8242L81.0886 14.9079V14.9089ZM65.322 20.6869H70.9172L68.3194 25.1259H61.0267L61.0464 19.7209V6.05092H65.3428L65.323 20.6869H65.322ZM49.9768 6.05192C55.3118 6.07192 59.6279 10.3319 59.6081 15.5979C59.5883 20.8449 55.2722 25.1059 49.9362 25.1059C44.621 25.0859 40.3049 20.8259 40.3049 15.5589C40.3247 10.3119 44.6408 6.05192 49.9768 6.05192ZM49.957 20.6679C52.8139 20.6679 55.111 18.3989 55.111 15.5979C55.1317 12.7979 52.8139 10.5089 49.9768 10.5089C47.1386 10.4889 44.8208 12.7779 44.8208 15.5789C44.801 18.3789 47.1188 20.6679 49.956 20.6679H49.957ZM32.3523 14.0829C32.293 13.2929 32.0922 12.2479 31.7924 11.2429C31.1756 9.16704 30.1034 7.25863 28.6555 5.65992C27.8958 4.83192 27.0371 4.06192 25.757 3.15492C24.7812 2.66811 23.8218 2.14849 22.8803 1.59692C22.261 1.24192 21.5211 0.806916 20.5427 0.491916C19.3826 0.215118 18.1968 0.0632712 17.0052 0.0389162C15.8477 -0.00108384 14.6873 0.0989162 13.5685 0.314916C12.3893 0.511916 11.41 0.826916 10.1111 1.14292C7.17303 2.42492 4.89578 4.35792 2.93707 6.92292C-3.89665 16.5679 2.27823 30.0799 13.6882 31.6769C15.5668 31.9339 17.4454 31.8349 19.223 31.4209L20.4824 31.0859C20.5219 31.0659 20.5823 31.0459 20.6218 31.0459L22.0612 30.4939C22.1403 30.4539 22.2007 30.4339 22.2808 30.3949L22.8803 30.1189C24.0305 29.5451 25.1102 28.8369 26.0973 28.0089C25.1988 28.8342 24.2216 29.5674 23.18 30.1979L23.2394 30.2379C23.4402 30.1779 23.6193 30.1189 23.8191 30.0799C23.8191 30.0799 23.8191 30.3949 23.7795 30.3359C23.46 30.5729 23.9596 30.3559 24.5986 30.0199C25.2387 29.6849 25.8579 29.2699 26.4169 28.7969C27.2369 28.1069 27.9561 27.3569 28.975 26.1349C30.0138 24.2999 31.3136 22.7019 31.9131 20.5519C32.1129 19.9799 32.292 19.3099 32.4127 18.6189C32.5314 17.9289 32.6125 17.2189 32.6125 16.4889C32.5927 15.7589 32.5126 15.0089 32.3523 14.0829ZM17.5651 30.2969C21.0621 29.7439 23.9991 27.7919 26.3971 25.1289C27.0569 24.1619 27.5763 23.2739 28.2153 22.3079C29.0146 20.3349 28.9553 18.5799 29.2144 17.3379C29.535 15.0879 28.7752 13.2739 28.1362 11.3409C27.1568 9.09192 25.8579 7.41592 23.5797 6.11392C17.8243 2.52392 9.99139 3.52892 6.255 8.89492C6.23522 8.89492 6.13432 9.03292 5.93449 9.30892C6.19466 8.20492 6.85449 7.55392 7.51333 6.92192C9.47204 5.30492 11.7503 4.02192 14.348 3.39192C17.2861 3.07592 20.2024 3.39192 22.82 4.67392C26.7374 6.92192 29.3351 10.4539 29.994 14.6339V18.5009C29.1749 24.8329 23.7795 29.6459 17.5651 30.2969ZM31.9329 15.8969C31.7924 6.62692 22.6607 0.373916 13.7683 1.63692C11.1706 2.28692 8.33242 3.58892 6.31436 5.40392C5.335 6.05392 4.87599 7.25792 3.89664 8.22392C-0.0207803 14.0039 0.659822 21.4009 5.53483 25.8989C6.16017 26.5239 6.82788 27.1039 7.53311 27.6349C3.45741 25.1679 1.6184 21.4389 0.979349 16.9039C0.979349 15.2859 1.29888 13.6879 1.63819 12.0709C3.91741 4.98892 11.0904 -0.159084 18.9045 1.14292C20.2034 1.45892 21.5023 1.79392 22.8219 2.10992C24.4601 2.75992 26.0785 3.72692 27.3774 5.00992C28.6763 6.29092 29.6556 7.90892 30.635 9.50592C31.2938 10.7889 31.6144 12.4059 31.9339 13.6879C31.9932 14.4179 31.9932 15.1679 31.9339 15.8979L31.9329 15.8969Z" fill="#1C1C1C"/>
<path id="Vector_2" fill-rule="evenodd" clip-rule="evenodd" d="M23.819 16.0359C23.819 20.0209 20.5021 23.2559 16.4056 23.2559C12.3101 23.2559 8.99219 20.0209 8.99219 16.0359C8.99219 12.0519 12.3091 8.81689 16.4056 8.81689C20.5021 8.81689 23.819 12.0519 23.819 16.0369V16.0359Z" fill="#FBFFFE"/>
<path id="Vector_3" fill-rule="evenodd" clip-rule="evenodd" d="M23.86 14.813C23.7601 14.261 23.5998 13.827 23.4406 13.216C22.8005 11.874 21.8617 10.829 20.6222 9.94098C15.9866 6.84498 9.61189 9.82298 8.93327 15.11C8.67408 17.201 9.41305 19.213 10.7317 20.752C10.3321 20.337 9.89284 19.904 9.59309 19.41L9.55352 19.45C9.59309 19.568 9.75335 19.647 9.79292 19.765C9.79292 19.765 9.63266 19.765 9.67322 19.745C9.55352 19.608 9.65344 19.825 9.83249 20.12C9.99275 20.416 10.1926 20.693 10.432 20.949C10.7723 21.324 11.1314 21.659 11.7309 22.113C12.6113 22.566 13.3898 23.158 14.4088 23.434C14.6887 23.514 15.0082 23.592 15.3288 23.651C15.6681 23.711 15.9876 23.731 16.3477 23.731C16.687 23.731 17.0471 23.691 17.4863 23.611C17.9392 23.557 18.3869 23.4651 18.8248 23.336C19.8027 23.0384 20.7036 22.5262 21.4631 21.836C21.8429 21.482 22.3831 21.028 22.8015 20.436C23.1418 19.766 23.1814 19.43 23.3417 19.134C23.5009 18.838 23.7008 18.503 23.8412 18.049C23.9557 17.5104 24.0226 16.9626 24.0411 16.412C24.0213 15.86 23.9817 15.327 23.861 14.814L23.86 14.813ZM19.1037 11.145C19.7833 11.539 19.8832 11.598 19.5232 11.342C20.0435 11.46 20.363 11.756 20.6826 12.052C21.4621 12.94 22.1011 13.985 22.4207 15.188C22.6007 16.549 22.4602 17.91 21.8815 19.114C20.8428 20.948 19.1838 22.171 17.2054 22.506C16.9857 22.506 16.7463 22.506 16.5257 22.526C17.0857 22.427 17.4457 22.072 18.4647 21.697C19.5627 21.303 20.8023 19.469 21.4027 18.403C23.1606 15.503 21.0822 12.821 19.1037 11.145ZM15.3475 22.545C12.3106 22.23 9.97198 19.725 9.65245 16.825C9.93142 18.443 10.891 19.685 12.1899 20.79C12.6499 21.086 13.3285 21.5 13.7885 21.796C14.568 22.092 15.027 22.408 15.7868 22.546H15.3475V22.545ZM23.5197 17.279C23.3812 17.891 23.2408 18.482 23.1003 19.094C22.8005 19.844 22.3613 20.613 21.7618 21.224C21.1623 21.836 20.4026 22.309 19.6438 22.763C19.0444 23.078 18.2846 23.236 17.6654 23.393C17.3053 23.433 16.8858 23.275 16.5257 23.256C20.9625 23.137 23.9995 18.976 23.3407 14.853C23.0201 13.65 22.3811 12.604 21.6016 11.559C21.282 11.105 20.6618 10.829 20.2028 10.375C17.425 8.61998 13.7489 8.97498 11.6507 11.283C11.3565 11.5863 11.0825 11.909 10.8306 12.249C11.9505 10.592 13.7489 9.42898 15.9065 9.09298C16.6662 9.07298 17.4457 9.21198 18.2045 9.34998C21.562 10.375 24.0598 13.65 23.5197 17.28V17.279Z" fill="#FBFFFE"/>
</g>
</g>
<defs>
<clipPath id="clip0_643_35363">
<rect width="92" height="32" fill="white"/>
</clipPath>
</defs>
</svg>
