<svg width="79" height="30" viewBox="0 0 79 30" fill="none" xmlns="http://www.w3.org/2000/svg">
<g id="OYO Logo">
<path id="Vector" d="M64.9529 28.725C72.4564 28.725 78.5618 22.5405 78.5618 14.94C78.5618 7.33503 72.4564 1.15503 64.9529 1.15503C57.4479 1.15503 51.344 7.33503 51.344 14.94C51.344 22.5405 57.4479 28.725 64.9529 28.725ZM64.9529 10.0245C67.627 10.0245 69.8047 12.2295 69.8047 14.9385C69.8047 17.6475 67.6255 19.8495 64.9514 19.8495C62.2759 19.8495 60.1011 17.6475 60.1011 14.937C60.1011 12.225 62.2773 10.0215 64.9514 10.0215L64.9529 10.0245ZM13.6089 28.725C21.1124 28.725 27.2177 22.5405 27.2177 14.94C27.2177 7.33503 21.1124 1.15503 13.6089 1.15503C6.10685 1.15503 0 7.33503 0 14.94C0 22.5405 6.10685 28.725 13.6089 28.725ZM13.6089 10.0245C16.2844 10.0245 18.4607 12.2295 18.4607 14.9385C18.4607 17.6475 16.2844 19.8495 13.6089 19.8495C10.9348 19.8495 8.76006 17.6475 8.76006 14.937C8.76006 12.225 10.9363 10.0215 13.6089 10.0215V10.0245ZM39.2734 9.71403L35.0954 1.33503H25.3128L34.45 19.665V28.2945H44.0984V19.665L53.2356 1.33503H43.4485L39.2749 9.71403H39.2734Z" fill="#BBC8D4"/>
</g>
</svg>
