<svg width="70" height="70" viewBox="0 0 70 70" fill="none" xmlns="http://www.w3.org/2000/svg">
<path d="M6.58301 29.8334H63.4163M11.7497 14.3334H58.2497C61.1031 14.3334 63.4163 16.6466 63.4163 19.5V50.5C63.4163 53.3535 61.1031 55.6667 58.2497 55.6667H11.7497C8.8962 55.6667 6.58301 53.3535 6.58301 50.5V19.5C6.58301 16.6466 8.8962 14.3334 11.7497 14.3334Z" stroke="#FBFFFE" stroke-width="2" stroke-linecap="round" stroke-linejoin="round"/>
<path d="M47.3333 42.65V39.25C47.3333 38.1228 47.7723 37.0418 48.5537 36.2448C49.3351 35.4478 50.3949 35 51.5 35C52.6051 35 53.6649 35.4478 54.4463 36.2448C55.2277 37.0418 55.6667 38.1228 55.6667 39.25V42.65M45.6667 42.65H57.3333C58.2538 42.65 59 43.4111 59 44.35V50.3C59 51.2389 58.2538 52 57.3333 52H45.6667C44.7462 52 44 51.2389 44 50.3V44.35C44 43.4111 44.7462 42.65 45.6667 42.65Z" stroke="#FBFFFE" stroke-width="2" stroke-linecap="round" stroke-linejoin="round"/>
</svg>
