<svg width="70" height="70" viewBox="0 0 70 70" fill="none" xmlns="http://www.w3.org/2000/svg">
<g id="Atom">
<g id="30">
<path d="M31.1167 34.1791C29.9098 33.0351 28.3203 32.4485 26.5247 32.4778L32.7651 26.5821V24.4408H20.5197V26.5234H29.7921L22.7274 33.2111L23.8165 34.9124C24.523 34.5604 25.4061 34.3258 26.1714 34.3258C27.3194 34.3258 28.438 34.6778 29.2917 35.4111C30.3219 36.3497 30.7635 37.699 30.7635 39.1069C30.7635 40.6029 30.3219 42.0108 29.115 42.9494C28.3203 43.5654 27.29 43.8881 26.2303 43.9174C25.1706 43.9174 24.1403 43.6241 23.2867 43.0081C22.5508 42.4508 22.0209 41.6588 21.7265 40.7495L19.666 41.3655C20.0487 42.6268 20.8435 43.8001 21.9326 44.5921C23.1689 45.56 24.729 46 26.2303 45.9707C27.7315 45.9707 29.3211 45.5307 30.528 44.5627C32.1764 43.3014 32.9712 41.2775 33.0006 39.1069C33.0301 37.2883 32.4413 35.4404 31.1167 34.1791Z" fill="#FBFFFE"/>
<path d="M43.7485 46C41.7763 46 39.8629 45.208 38.5677 43.7414C37.3609 42.3628 36.831 40.8375 36.831 38.9016V31.0699C36.831 29.134 37.3903 27.55 38.656 26.1421C39.9218 24.7928 41.7468 23.9715 43.7485 24.0008C45.6913 23.9715 47.5458 24.7341 48.841 26.1421C50.1067 27.4914 50.666 29.1046 50.666 31.0699V38.9016C50.666 40.8082 50.1362 42.3921 48.8998 43.7708C47.6341 45.1787 45.7796 46 43.7485 46ZM43.7485 26.0834C42.159 26.0541 40.6577 26.9047 39.8041 28.166C39.2742 28.9873 39.0093 29.9553 39.0093 31.0699V38.9016C39.0093 39.9576 39.2153 40.9549 39.8041 41.8055C40.6577 43.0961 42.1295 43.9174 43.7485 43.9174C45.3675 43.9174 46.8393 43.0961 47.693 41.7762C48.2817 40.9549 48.4877 40.0456 48.4877 38.9016V31.0699C48.4877 29.9846 48.2522 29.0753 47.693 28.1953C46.8393 26.9047 45.3675 26.0541 43.7485 26.0834Z" fill="#FBFFFE"/>
</g>
<path id="Icon" d="M4.66602 18.6084C4.66602 25.6378 4.66602 28.972 4.66602 28.972M4.66602 28.972H14.5894M4.66602 28.972L18.355 15.892C22.429 11.7563 27.7144 9.07892 33.4148 8.26336C39.1153 7.4478 44.922 8.53822 49.9601 11.3703C54.9981 14.2024 58.9946 18.6227 61.3473 23.9653C63.7 29.3079 64.2814 35.2832 63.0041 40.9911C61.7268 46.6989 58.6598 51.83 54.2653 55.6112C49.8708 59.3925 44.3869 61.619 38.6398 61.9554C32.8927 62.2917 27.1937 60.7197 22.4017 57.4761C17.6096 54.2325 13.9839 49.4931 12.071 43.972" stroke="#FBFFFE" stroke-width="2" stroke-linecap="round" stroke-linejoin="round"/>
</g>
</svg>
