<svg width="113" height="26" viewBox="0 0 113 26" fill="none" xmlns="http://www.w3.org/2000/svg">
<g id="Walmart Logo" clip-path="url(#clip0_643_35370)">
<path id="Shape" d="M40.2137 9.2479V10.7214H40.2595C40.7993 9.93248 41.6953 9.0034 43.6815 9.0034C45.2267 9.0034 46.412 9.776 46.9201 10.943H46.9659C47.3998 10.353 47.8973 9.9064 48.4547 9.59019C49.1144 9.2153 49.8481 9.00014 50.7724 9.00014C52.8644 9.00014 54.7165 10.3367 54.7165 13.7074V20.1001H51.5274V14.1541C51.5274 12.4459 50.8994 11.4581 49.5941 11.4581C48.6381 11.4581 47.9431 12.0514 47.6785 12.7816C47.5868 13.0326 47.5445 13.3749 47.5445 13.6618V20.1034H44.3553V13.9128C44.3553 12.4622 43.7521 11.4549 42.4644 11.4549C41.4343 11.4549 40.7887 12.2046 40.5241 12.8468C40.4112 13.1207 40.3759 13.4369 40.3759 13.7335V20.1001H37.1833V9.2479H40.2137ZM71.1774 9.2479V11.2951H71.2656C71.8512 9.73036 73.2411 9.0034 74.4618 9.0034C74.7687 9.0034 74.938 9.02622 75.185 9.07186V11.9145C74.8922 11.8754 74.6205 11.8363 74.2395 11.8363C72.8566 11.8363 71.8935 12.5795 71.6501 13.7433C71.5972 13.9845 71.5795 14.2453 71.5795 14.5452V20.1034H68.3057V9.2479H71.1774ZM79.63 5.65222V9.0686H82.3958V11.833H79.63V15.9111C79.63 17.2314 79.9934 17.8703 81.0729 17.8703C81.5809 17.8703 81.9549 17.8117 82.2794 17.7367L82.3218 20.0284C81.8878 20.1784 80.9635 20.3414 80.0251 20.3414C78.9209 20.3414 78.0002 19.986 77.4393 19.4351C76.7972 18.8059 76.5009 17.7758 76.5009 16.3089V5.65222H79.63ZM34.9607 20.1001H31.7857V5.65222H34.9607V20.1001ZM26.494 16.2241C26.494 16.4229 26.4763 16.6316 26.4163 16.8109C26.1694 17.5639 25.3262 18.1996 24.275 18.1996C23.3965 18.1996 22.698 17.74 22.698 16.7652C22.698 15.2755 24.476 14.8615 26.4975 14.8712V16.2241H26.494ZM29.6655 13.626C29.6655 11.1647 28.5295 9.0034 24.6877 9.0034C22.7157 9.0034 21.1493 9.51521 20.2956 9.9716L20.92 11.9471C21.6996 11.4907 22.945 11.1158 24.1233 11.1158C26.0741 11.1126 26.3916 12.1362 26.3916 12.7914V12.9479C22.1406 12.9414 19.4559 14.3008 19.4559 17.0717C19.4559 18.7636 20.8212 20.3479 23.199 20.3479C24.663 20.3479 25.8836 19.81 26.6174 18.9461H26.688C26.688 18.9461 27.1748 20.8206 29.8489 20.1034C29.7078 19.321 29.6619 18.4897 29.6619 17.4889V13.626H29.6655ZM3.50666 5.65222C3.83474 7.18112 4.76609 11.6211 4.76609 11.6211C5.15768 13.4467 5.51752 15.3602 5.78916 16.8728H5.83855C6.10313 15.2657 6.51942 13.7433 6.96392 11.8591L8.5338 5.65222H12.0087L13.4763 12.0188C13.8608 13.7889 14.1677 15.1548 14.4112 16.8011H14.457C14.7216 15.1385 15.0673 13.7172 15.4448 11.8982L16.8559 5.65222H20.1897L16.0587 20.1001C13.4269 20.6315 12.4179 19.6535 12.0581 18.1018C11.6983 16.5468 10.9927 13.5901 10.9927 13.5901C10.6293 11.9699 10.3471 10.829 10.1495 9.1664H10.1002C9.81793 10.8127 9.5216 11.9667 9.08415 13.5868L7.35198 20.1034C4.66378 20.5989 3.73244 19.8654 3.21738 17.8736C2.77287 16.1687 0 5.65548 0 5.65548H3.50666V5.65222ZM63.014 16.2241C63.014 16.4229 62.9963 16.6316 62.9364 16.8109C62.6894 17.5639 61.8463 18.1996 60.795 18.1996C59.9166 18.1996 59.218 17.74 59.218 16.7652C59.218 15.2755 60.9961 14.8615 63.0175 14.8712V16.2241H63.014ZM66.1855 13.626C66.1855 11.1647 65.0495 9.0034 61.2077 9.0034C59.2357 9.0034 57.6693 9.51521 56.8156 9.9716L57.44 11.9471C58.2197 11.4907 59.465 11.1158 60.6433 11.1158C62.5906 11.1126 62.9117 12.1362 62.9117 12.7914V12.9479C58.6642 12.9414 55.9795 14.3008 55.9795 17.0717C55.9795 18.7636 57.3483 20.3479 59.7225 20.3479C61.183 20.3479 62.4072 19.81 63.1375 18.9461H63.2115C63.2115 18.9461 63.6984 20.8206 66.3725 20.1034C66.2314 19.321 66.1855 18.4897 66.1855 17.4889V13.626Z" fill="#041E42"/>
<path id="Shape_2" d="M95.2657 15.1241C95.5787 15.6517 95.5576 16.2406 95.2235 16.5096L89.4494 20.4276C88.8481 20.7646 87.9479 20.3561 87.438 19.5017C86.9246 18.6439 87.016 17.6874 87.6174 17.3504L94.0103 14.4705C94.4112 14.3208 94.9528 14.5965 95.2657 15.1241ZM102.865 15.1241C103.181 14.5965 103.719 14.3242 104.12 14.4671L110.517 17.3469C111.118 17.6839 111.206 18.6405 110.696 19.4983C110.183 20.3527 109.279 20.7578 108.681 20.4242L102.907 16.5062C102.576 16.2406 102.552 15.6483 102.865 15.1241ZM99.0635 17.2482C99.693 17.2482 100.21 17.5614 100.28 17.9733L100.903 24.7745C100.903 25.4485 100.09 26 99.067 26C98.0473 26 97.2314 25.4485 97.2314 24.7745L97.8503 17.9733C97.9207 17.5614 98.4376 17.2482 99.0635 17.2482ZM102.907 9.49385L108.681 5.5724C109.279 5.2354 110.183 5.64048 110.696 6.4983C111.206 7.35611 111.118 8.31265 110.517 8.64965L104.12 11.5329C103.719 11.6758 103.178 11.4035 102.865 10.8759C102.552 10.3483 102.576 9.75936 102.907 9.49385ZM94.0103 11.5329L87.6174 8.64965C87.0195 8.31265 86.9281 7.35611 87.438 6.4983C87.9479 5.64048 88.8516 5.2354 89.4494 5.5724L95.2235 9.49385C95.5576 9.75596 95.5787 10.3483 95.2657 10.8759C94.9528 11.4035 94.4112 11.6758 94.0103 11.5329ZM97.8503 8.02671L97.2314 1.22545C97.2314 0.551453 98.0437 0 99.067 0C100.09 0 100.903 0.551453 100.903 1.22545L100.28 8.02671C100.21 8.43519 99.693 8.75177 99.0635 8.75177C98.4376 8.75177 97.9207 8.43519 97.8503 8.02671ZM112.257 20.4004V20.2302H112.416C112.468 20.2302 112.504 20.2642 112.504 20.3153C112.504 20.3629 112.468 20.4004 112.416 20.4004H112.257ZM112.127 20.7101C112.127 20.7272 112.141 20.7442 112.162 20.7442H112.229C112.247 20.7442 112.264 20.7272 112.264 20.7101V20.5161H112.373L112.461 20.7203C112.468 20.734 112.479 20.7442 112.493 20.7442H112.574C112.598 20.7442 112.616 20.7203 112.606 20.6965C112.574 20.6352 112.542 20.5706 112.511 20.5059C112.563 20.4889 112.644 20.4378 112.644 20.3153C112.644 20.1859 112.535 20.111 112.426 20.111H112.162C112.145 20.111 112.127 20.128 112.127 20.1451V20.7101ZM111.842 20.4276C111.842 20.1519 112.075 19.9272 112.359 19.9272C112.644 19.9272 112.876 20.1485 112.876 20.4276C112.876 20.7033 112.648 20.928 112.359 20.928C112.071 20.928 111.842 20.7033 111.842 20.4276ZM111.719 20.4276C111.719 20.768 112.004 21.0471 112.359 21.0471C112.711 21.0471 112.999 20.768 112.999 20.4276C112.999 20.0872 112.711 19.8081 112.359 19.8081C112.004 19.8081 111.719 20.0872 111.719 20.4276Z" fill="#BBC8D4"/>
</g>
<defs>
<clipPath id="clip0_643_35370">
<rect width="113" height="26" fill="white"/>
</clipPath>
</defs>
</svg>
