<svg width="65" height="65" viewBox="0 0 65 65" fill="none" xmlns="http://www.w3.org/2000/svg">
<g id="svg" clip-path="url(#clip0_643_35689)">
<path id="Vector" d="M32.0015 0.900879C49.454 0.900879 63.6006 15.0475 63.5996 32.5C63.6006 49.9535 49.453 64.1012 32.0005 64.0992C14.547 64.1002 0.401329 49.9535 0.402344 32.501C0.399297 15.0475 14.547 0.900879 32.0015 0.900879Z" stroke="#1C1C1C" stroke-width="2" stroke-miterlimit="10"/>
<path id="Vector_2" d="M32 1.01562V63.9844" stroke="#1C1C1C" stroke-width="2" stroke-miterlimit="10"/>
<path id="Vector_3" d="M63.4844 32.5H0.515625" stroke="#1C1C1C" stroke-width="2" stroke-miterlimit="10"/>
<path id="Vector_4" d="M29.9688 1.01562C29.9688 1.01562 15.75 12.1875 15.75 32.5C15.75 52.8125 29.9688 63.9844 29.9688 63.9844" stroke="#1C1C1C" stroke-width="2" stroke-miterlimit="10"/>
<path id="Vector_5" d="M34.0312 1.01562C34.0312 1.01562 48.25 12.1875 48.25 32.5C48.25 52.8125 34.0312 63.9844 34.0312 63.9844" stroke="#1C1C1C" stroke-width="2" stroke-miterlimit="10"/>
<path id="Vector_6" d="M7.625 12.1875C7.625 12.1875 12.7031 22.3438 32 22.3438C51.2969 22.3438 56.375 12.1875 56.375 12.1875" stroke="#1C1C1C" stroke-width="2" stroke-miterlimit="10"/>
<path id="Vector_7" d="M7.625 52.8125C7.625 52.8125 12.7031 42.6562 32 42.6562C51.2969 42.6562 56.375 52.8125 56.375 52.8125" stroke="#1C1C1C" stroke-width="2" stroke-miterlimit="10"/>
</g>
<defs>
<clipPath id="clip0_643_35689">
<rect width="65" height="65" fill="white"/>
</clipPath>
</defs>
</svg>
