<svg width="65" height="65" viewBox="0 0 65 65" fill="none" xmlns="http://www.w3.org/2000/svg">
<g id="svg" clip-path="url(#clip0_643_35718)">
<g id="Group">
<path id="Vector" d="M32 63.9844C49.3883 63.9844 63.4844 49.8883 63.4844 32.5C63.4844 15.1117 49.3883 1.01562 32 1.01562C14.6117 1.01562 0.515625 15.1117 0.515625 32.5C0.515625 49.8883 14.6117 63.9844 32 63.9844Z" stroke="#1C1C1C" stroke-width="2" stroke-miterlimit="10"/>
<path id="Vector_2" d="M32 40.625C36.4873 40.625 40.125 36.9873 40.125 32.5C40.125 28.0127 36.4873 24.375 32 24.375C27.5127 24.375 23.875 28.0127 23.875 32.5C23.875 36.9873 27.5127 40.625 32 40.625Z" stroke="#1C1C1C" stroke-width="2" stroke-miterlimit="10"/>
<path id="Vector_3" d="M32 48.75C23.0239 48.75 15.75 41.4781 15.75 32.5" stroke="#1C1C1C" stroke-width="2" stroke-miterlimit="10"/>
<path id="Vector_4" d="M32 16.25C40.9761 16.25 48.25 23.5239 48.25 32.5" stroke="#1C1C1C" stroke-width="2" stroke-miterlimit="10"/>
<path id="Vector_5" d="M32.003 55.8594C19.1005 55.8594 8.64062 45.4055 8.64062 32.5" stroke="#1C1C1C" stroke-width="2" stroke-miterlimit="10"/>
<path id="Vector_6" d="M32 9.14062C44.9025 9.14062 55.3594 19.5965 55.3594 32.5" stroke="#1C1C1C" stroke-width="2" stroke-miterlimit="10"/>
</g>
</g>
<defs>
<clipPath id="clip0_643_35718">
<rect width="65" height="65" fill="white"/>
</clipPath>
</defs>
</svg>
