<svg width="97" height="30" viewBox="0 0 97 30" fill="none" xmlns="http://www.w3.org/2000/svg">
<g id="Airbnb Logo" clip-path="url(#clip0_643_35322)">
<path id="Vector" d="M27.8068 21.2616C27.6547 20.896 27.512 20.5116 27.3599 20.1835L26.6561 18.6178L26.6276 18.5897C24.5355 14.0897 22.3007 9.51472 19.9327 5.01472L19.8376 4.82722C19.5999 4.38659 19.3621 3.89909 19.1149 3.44909C18.8106 2.91472 18.5158 2.34284 18.0308 1.79909C17.558 1.23015 16.963 0.77177 16.2888 0.45702C15.6145 0.14227 14.8778 -0.0209961 14.1317 -0.0209961C13.3857 -0.0209961 12.649 0.14227 11.9747 0.45702C11.3004 0.77177 10.7055 1.23015 10.2327 1.79909C9.78575 2.34284 9.45291 2.91472 9.1486 3.44909C8.91085 3.93659 8.67311 4.41472 8.42585 4.85534L8.33075 5.04284C6.00085 9.54284 3.72801 14.1178 1.63585 18.6178L1.57879 18.6741C1.36958 19.1616 1.12232 19.6678 0.884576 20.2116C0.732419 20.5397 0.580263 20.896 0.428106 21.2897C0.0173131 22.3208 -0.113866 23.4396 0.0474969 24.5358C0.20886 25.632 0.657195 26.6679 1.34832 27.5414C2.03944 28.4148 2.94949 29.0956 3.98879 29.5167C5.02809 29.9378 6.16076 30.0847 7.27516 29.9428C8.34356 29.8042 9.37234 29.4534 10.2993 28.9116C11.5356 28.2272 12.7243 27.2335 14.0557 25.7991C15.387 27.2335 16.6043 28.2272 17.812 28.921C18.9735 29.593 20.2887 29.9639 21.635 29.9991C23.194 30.0055 24.7027 29.4556 25.8825 28.451C27.0624 27.4464 27.8337 26.0549 28.0541 24.5335C28.3088 23.4401 28.2226 22.2965 27.8068 21.2522V21.2616ZM14.1508 22.8178C12.5151 20.7553 11.45 18.8616 11.0886 17.2397C10.9389 16.6387 10.9066 16.0151 10.9935 15.4022C11.0601 14.9241 11.2408 14.5022 11.488 14.146C12.0586 13.3303 13.0571 12.8241 14.1508 12.8241C14.6701 12.8085 15.1853 12.9202 15.65 13.1493C16.1148 13.3783 16.5146 13.7176 16.8135 14.1366C17.0608 14.5116 17.2414 14.9241 17.2985 15.4022C17.3936 15.946 17.3556 16.5741 17.2034 17.2397C16.842 18.8335 15.7769 20.746 14.1508 22.8178ZM26.2662 24.2053C26.1582 24.9778 25.8467 25.7088 25.3628 26.3257C24.879 26.9425 24.2396 27.4236 23.5084 27.721C22.7857 28.021 21.9868 28.1053 21.207 28.021C20.4462 27.9272 19.6855 27.6835 18.9057 27.2335C17.6109 26.4446 16.4467 25.4644 15.4536 24.3272C17.4507 21.8897 18.6584 19.6678 19.1149 17.6897C19.3336 16.7522 19.3621 15.9085 19.267 15.1303C19.1483 14.3928 18.8693 13.6893 18.4492 13.0678C17.9695 12.394 17.3293 11.8467 16.5847 11.474C15.8402 11.1013 15.0142 10.9146 14.1793 10.9303C12.42 10.9303 10.8509 11.7366 9.89987 13.0585C9.47178 13.6783 9.19511 14.3875 9.09154 15.1303C8.96791 15.9178 8.99644 16.7897 9.24369 17.6897C9.70016 19.6678 10.9364 21.9178 12.905 24.346C11.9288 25.5049 10.7618 26.4937 9.45291 27.271C8.6636 27.721 7.91232 27.9553 7.15154 28.0491C5.96841 28.1985 4.77328 27.8815 3.82592 27.167C2.87857 26.4525 2.25556 25.3983 2.09232 24.2335C1.99722 23.4835 2.06379 22.7335 2.36811 21.8897C2.4632 21.5897 2.60585 21.2897 2.75801 20.9335C2.96722 20.446 3.21448 19.9397 3.45222 19.4335L3.49026 19.3678C5.54438 14.896 7.78869 10.3303 10.1186 5.85847L10.2137 5.67097C10.4514 5.22097 10.6892 4.74284 10.9364 4.29284C11.1837 3.81472 11.45 3.35534 11.7923 2.98034C12.0887 2.63161 12.4589 2.35116 12.8771 2.15873C13.2952 1.96631 13.7511 1.86658 14.2126 1.86658C14.674 1.86658 15.1299 1.96631 15.548 2.15873C15.9662 2.35116 16.3365 2.63161 16.6328 2.98034C16.9657 3.35534 17.2414 3.81472 17.4887 4.29284C17.7264 4.74284 17.9642 5.23034 18.2114 5.67097L18.3065 5.85847C20.6269 10.3303 22.8712 14.896 24.9634 19.3678L24.9919 19.396C25.2392 19.8835 25.4484 20.4272 25.6861 20.896C25.8383 21.2616 25.9905 21.5522 26.0856 21.8616C26.2662 22.7053 26.3613 23.4553 26.2662 24.2053ZM39.5039 22.6116C38.7873 22.6219 38.0775 22.4731 37.4272 22.1761C36.777 21.8791 36.2029 21.4416 35.7475 20.896C34.7243 19.7334 34.1813 18.2345 34.226 16.696C34.2103 15.124 34.7709 13.5993 35.8046 12.4022C36.2827 11.8497 36.8779 11.4072 37.5483 11.1059C38.2187 10.8046 38.9479 10.6519 39.6846 10.6585C40.3778 10.6398 41.0644 10.7952 41.6799 11.11C42.2955 11.4249 42.8196 11.8889 43.2032 12.4585L43.2983 10.9866H46.0752V22.3116H43.2888L43.1937 20.6616C42.7982 21.2697 42.2517 21.7681 41.6059 22.1094C40.9601 22.4507 40.2365 22.6235 39.5039 22.6116ZM40.2266 19.9116C40.7782 19.9116 41.2632 19.7616 41.7197 19.4897C42.1381 19.1897 42.4805 18.796 42.7467 18.3178C42.9845 17.8397 43.1081 17.2678 43.1081 16.6303C43.1452 16.0767 43.0359 15.523 42.7908 15.0234C42.5458 14.5238 42.1734 14.0955 41.7102 13.7803C41.265 13.5069 40.7511 13.362 40.2266 13.362C39.7022 13.362 39.1882 13.5069 38.7431 13.7803C38.3247 14.0803 37.9823 14.4741 37.716 14.9522C37.4646 15.4795 37.3409 16.0572 37.3547 16.6397C37.3176 17.1934 37.4269 17.7471 37.672 18.2467C37.917 18.7462 38.2894 19.1745 38.7526 19.4897C39.1996 19.7616 39.6846 19.9116 40.2266 19.9116ZM50.8301 7.93034C50.8301 8.25847 50.773 8.55847 50.6208 8.80222C50.4687 9.03659 50.2595 9.25222 49.9837 9.40222C49.7079 9.55222 49.4131 9.60847 49.1088 9.60847C48.8045 9.60847 48.5002 9.55222 48.2244 9.40222C47.9636 9.25907 47.7442 9.05252 47.5872 8.80222C47.4399 8.53516 47.3677 8.23415 47.378 7.93034C47.378 7.59284 47.4446 7.29284 47.5872 7.05847C47.7394 6.77722 47.9581 6.60847 48.2244 6.45847C48.5002 6.30847 48.795 6.24284 49.1088 6.24284C49.4115 6.23597 49.7108 6.30664 49.9775 6.44796C50.2442 6.58928 50.4692 6.79641 50.6304 7.04909C50.7688 7.32242 50.8373 7.62494 50.8301 7.93034ZM47.5967 22.2741V10.9678H50.6208V22.2928H47.5872L47.5967 22.2741ZM58.7042 13.9303V13.9678C58.5615 13.9022 58.3713 13.8741 58.2287 13.846C58.0385 13.8085 57.8863 13.8085 57.7057 13.8085C56.8593 13.8085 56.2221 14.0522 55.8037 14.5585C55.3472 15.0741 55.138 15.796 55.138 16.7241V22.2835H52.1044V10.9585H54.8908L54.9859 12.6741C55.2902 12.0741 55.6515 11.6241 56.1651 11.2866C56.6759 10.9587 57.2772 10.7949 57.8863 10.8178C58.1051 10.8178 58.3143 10.8366 58.495 10.8741C58.5901 10.9022 58.6471 10.9022 58.7042 10.9303V13.9303ZM59.9214 22.2741V6.31784H62.9456V12.4116C63.3735 11.8678 63.8585 11.446 64.4671 11.1178C65.4307 10.6521 66.5252 10.52 67.5743 10.7428C68.6233 10.9657 69.5656 11.5304 70.2491 12.346C71.2745 13.5109 71.8177 15.0136 71.7707 16.5553C71.7863 18.1273 71.2257 19.6521 70.192 20.8491C69.7139 21.4016 69.1187 21.8441 68.4483 22.1454C67.7779 22.4467 67.0487 22.5994 66.312 22.5928C65.6188 22.6115 64.9322 22.4562 64.3167 22.1413C63.7011 21.8264 63.177 21.3624 62.7934 20.7928L62.6983 22.2647L59.9214 22.2928V22.2741ZM65.77 19.9116C66.312 19.9116 66.797 19.7616 67.2535 19.4897C67.6719 19.1897 68.0143 18.796 68.2806 18.3178C68.5278 17.8397 68.6419 17.2678 68.6419 16.6303C68.6419 16.0022 68.5278 15.4303 68.2806 14.9522C68.0308 14.4912 67.68 14.0909 67.2535 13.7803C66.8084 13.5069 66.2944 13.362 65.77 13.362C65.2455 13.362 64.7316 13.5069 64.2864 13.7803C63.8585 14.0803 63.5257 14.4741 63.2499 14.9522C62.9984 15.4795 62.8747 16.0572 62.8885 16.6397C62.8514 17.1934 62.9608 17.7471 63.2058 18.2467C63.4508 18.7462 63.8232 19.1745 64.2864 19.4897C64.7334 19.7616 65.2184 19.9116 65.77 19.9116ZM72.9118 22.2835V10.9585H75.6982L75.7933 12.4303C76.1435 11.8661 76.6402 11.4044 77.232 11.0929C77.8239 10.7814 78.4894 10.6314 79.1598 10.6585C79.9264 10.6454 80.6798 10.8555 81.326 11.2623C81.9721 11.6692 82.4822 12.2548 82.7925 12.946C83.1254 13.6585 83.3061 14.5397 83.3061 15.5241V22.3116H80.2724V15.9178C80.2724 15.1303 80.0917 14.5116 79.7304 14.0522C79.369 13.6022 78.8745 13.3585 78.2468 13.3585C77.7904 13.3585 77.391 13.4522 77.0391 13.6585C76.7063 13.8741 76.4305 14.146 76.2213 14.5303C76.0097 14.9189 75.9048 15.3552 75.9169 15.796V22.2835H72.9118ZM84.8181 22.2835V6.30847H87.8517V12.4022C88.2626 11.8554 88.7972 11.4106 89.4129 11.103C90.0286 10.7955 90.7086 10.6336 91.3989 10.6303C92.1155 10.62 92.8253 10.7689 93.4755 11.0659C94.1258 11.3629 94.6999 11.8004 95.1553 12.346C96.1734 13.5108 96.7128 15.009 96.6673 16.546C96.6838 18.1181 96.1232 19.6431 95.0887 20.8397C94.6105 21.3923 94.0153 21.8348 93.345 22.136C92.6746 22.4373 91.9454 22.59 91.2087 22.5835C90.5155 22.6022 89.8289 22.4468 89.2133 22.1319C88.5978 21.817 88.0736 21.353 87.6901 20.7835L87.6045 22.2553L84.8181 22.2835ZM90.6952 19.9116C91.2467 19.9116 91.7317 19.7616 92.1787 19.4897C92.6066 19.1897 92.9395 18.796 93.2153 18.3178C93.453 17.8397 93.5766 17.2678 93.5766 16.6303C93.6137 16.0767 93.5044 15.523 93.2593 15.0234C93.0143 14.5238 92.642 14.0955 92.1787 13.7803C91.7336 13.5069 91.2196 13.362 90.6952 13.362C90.1707 13.362 89.6568 13.5069 89.2116 13.7803C88.7932 14.0803 88.4509 14.4741 88.1846 14.9522C87.9191 15.4748 87.7947 16.056 87.8232 16.6397C87.7861 17.1934 87.8955 17.7471 88.1405 18.2467C88.3855 18.7462 88.7579 19.1745 89.2212 19.4897C89.6681 19.7616 90.1246 19.9116 90.6952 19.9116Z" fill="#1C1C1C"/>
</g>
<defs>
<clipPath id="clip0_643_35322">
<rect width="97" height="30" fill="white"/>
</clipPath>
</defs>
</svg>
