<svg width="28" height="12" viewBox="0 0 28 12" fill="none" xmlns="http://www.w3.org/2000/svg">
<path id="ApplePay" fill-rule="evenodd" clip-rule="evenodd" d="M5.58627 1.91128C5.26901 2.30248 4.7614 2.61104 4.25378 2.56696C4.19033 2.03801 4.43885 1.476 4.72967 1.12887C5.04693 0.726647 5.60214 0.440131 6.05159 0.418091C6.10446 0.969083 5.89824 1.50906 5.58627 1.91128ZM6.04631 2.67163C5.59911 2.64481 5.19106 2.81178 4.86146 2.94664C4.64936 3.03342 4.46975 3.10692 4.33311 3.10692C4.17976 3.10692 3.99274 3.02949 3.78275 2.94257C3.5076 2.82866 3.19302 2.69844 2.86314 2.70469C2.107 2.71571 1.40375 3.16202 1.01775 3.87279C0.224598 5.29435 0.811528 7.39914 1.57824 8.55623C1.95366 9.12926 2.40311 9.75739 2.99533 9.73535C3.25587 9.7251 3.44329 9.64223 3.63725 9.55647C3.86055 9.45774 4.09252 9.35517 4.45472 9.35517C4.80437 9.35517 5.0262 9.45506 5.23914 9.55096C5.44161 9.64214 5.63604 9.7297 5.92469 9.72433C6.53806 9.71331 6.92406 9.1513 7.29948 8.57827C7.70462 7.96325 7.88266 7.36303 7.90968 7.27193L7.91285 7.2614C7.9122 7.26072 7.9072 7.25833 7.89836 7.25412C7.76292 7.18951 6.72777 6.69569 6.71784 5.37149C6.70787 4.26002 7.5389 3.69688 7.66972 3.60823C7.67768 3.60283 7.68305 3.5992 7.68548 3.5973C7.15671 2.78183 6.33184 2.69367 6.04631 2.67163ZM10.2923 9.66378V1.07382H13.3856C14.9825 1.07382 16.0982 2.21988 16.0982 3.8949C16.0982 5.56991 14.9613 6.727 13.3433 6.727H11.5719V9.66378H10.2923ZM11.5719 2.19773H13.0472C14.1576 2.19773 14.7921 2.81485 14.7921 3.9003C14.7921 4.98575 14.1576 5.60837 13.0419 5.60837H11.5719V2.19773ZM20.3231 8.63334C19.9847 9.30555 19.2391 9.72982 18.4354 9.72982C17.2457 9.72982 16.4155 8.99149 16.4155 7.87848C16.4155 6.7765 17.2192 6.14286 18.7051 6.04919L20.3019 5.95001V5.47616C20.3019 4.7764 19.8631 4.39622 19.0805 4.39622C18.4354 4.39622 17.9648 4.74334 17.8696 5.27229H16.7169C16.7539 4.15929 17.7586 3.34933 19.1175 3.34933C20.5822 3.34933 21.534 4.14827 21.534 5.388V9.6637H20.3495V8.63334H20.3231ZM18.779 8.71058C18.0969 8.71058 17.6633 8.36897 17.6633 7.84553C17.6633 7.30555 18.081 6.99149 18.8795 6.9419L20.3019 6.84823V7.3331C20.3019 8.13755 19.6462 8.71058 18.779 8.71058ZM25.4627 9.9998C24.9498 11.504 24.3629 11.9999 23.115 11.9999C23.0198 11.9999 22.7025 11.9889 22.6285 11.9668V10.9365C22.7078 10.9475 22.9035 10.9585 23.0039 10.9585C23.5697 10.9585 23.887 10.7106 24.0826 10.0659L24.1989 9.68573L22.031 3.43198H23.3688L24.8758 8.50661H24.9022L26.4092 3.43198H27.71L25.4627 9.9998Z" fill="#B4B4B4"/>
</svg>
