<svg width="20" height="20" viewBox="0 0 20 20" fill="none" xmlns="http://www.w3.org/2000/svg">
<g id="at-sign" clip-path="url(#clip0_1511_833)">
<path id="Icon" d="M13.3337 6.66672V10.8334C13.3337 11.4964 13.5971 12.1323 14.0659 12.6012C14.5347 13.07 15.1706 13.3334 15.8337 13.3334C16.4967 13.3334 17.1326 13.07 17.6014 12.6012C18.0703 12.1323 18.3337 11.4964 18.3337 10.8334V10.0001C18.3336 8.11924 17.6972 6.29378 16.5281 4.8205C15.3589 3.34721 13.7258 2.31274 11.8942 1.8853C10.0626 1.45786 8.14028 1.66259 6.43979 2.46619C4.7393 3.2698 3.36066 4.62502 2.52805 6.31149C1.69543 7.99796 1.45781 9.9165 1.85381 11.7551C2.24981 13.5938 3.25615 15.2444 4.70919 16.4386C6.16224 17.6328 7.97653 18.3003 9.85706 18.3327C11.7376 18.365 13.5738 17.7603 15.067 16.6167M13.3337 10.0001C13.3337 11.841 11.8413 13.3334 10.0003 13.3334C8.15939 13.3334 6.667 11.841 6.667 10.0001C6.667 8.1591 8.15939 6.66672 10.0003 6.66672C11.8413 6.66672 13.3337 8.1591 13.3337 10.0001Z" stroke="#25313C" stroke-width="1.66667" stroke-linecap="round" stroke-linejoin="round"/>
</g>
<defs>
<clipPath id="clip0_1511_833">
<rect width="20" height="20" fill="white"/>
</clipPath>
</defs>
</svg>
