<svg width="183" height="35" viewBox="0 0 183 35" fill="none" xmlns="http://www.w3.org/2000/svg">
<g id="Logo" clip-path="url(#clip0_1451_3231)">
<path id="Vector" d="M51.181 14.4874C50.9821 14.6203 50.7611 14.7311 50.496 14.8418C50.2308 14.9526 49.9435 15.0412 49.6341 15.1077C49.3247 15.1741 48.9932 15.1963 48.6176 15.1963C47.9104 15.1963 47.2695 15.0634 46.695 14.8197C46.1204 14.576 45.6342 14.2216 45.2143 13.8007C44.8166 13.3798 44.4851 12.8703 44.2641 12.3165C44.0431 11.7627 43.9326 11.1646 43.9326 10.5222C43.9326 9.83552 44.0431 9.21527 44.2862 8.61717C44.5293 8.04122 44.8608 7.53172 45.2806 7.08868C45.7005 6.64565 46.2088 6.31337 46.7613 6.0697C47.3137 5.82603 47.9325 5.69312 48.5955 5.69312C49.0816 5.69312 49.5457 5.75957 49.9656 5.89248C50.3855 6.02539 50.7832 6.20261 51.1147 6.40198L50.8495 7.00008C50.5402 6.80071 50.2087 6.64565 49.8109 6.51274C49.4352 6.37982 49.0153 6.31337 48.5955 6.31337C48.043 6.31337 47.5347 6.42413 47.0485 6.62349C46.5624 6.84501 46.1425 7.13299 45.7668 7.50957C45.3911 7.88615 45.1039 8.32919 44.905 8.83869C44.7061 9.34818 44.5956 9.87982 44.5956 10.4779C44.5956 11.0317 44.684 11.5634 44.8829 12.0507C45.0597 12.5381 45.3469 12.9811 45.7005 13.3577C46.0541 13.7343 46.474 14.0222 46.9822 14.2437C47.4684 14.4653 48.0209 14.5539 48.6397 14.5539C49.0816 14.5539 49.5015 14.4874 49.8772 14.3545C50.2529 14.2216 50.5844 14.0665 50.8937 13.8672L51.181 14.4874Z" fill="#FBFFFE"/>
<path id="Vector_2" d="M53.5449 5.82593H54.1858V14.4873H59.2464V15.0854H53.5449V5.82593Z" fill="#FBFFFE"/>
<path id="Vector_3" d="M62.0315 5.82593H61.3906V15.1076H62.0315V5.82593Z" fill="#FBFFFE"/>
<path id="Vector_4" d="M64.9922 15.0855V5.60449L69.5666 12.095L69.2793 12.0728L73.8317 5.60449H73.8538V15.0855H73.2129V7.08867L73.2792 7.3988L69.4119 12.8482H69.3898L65.5005 7.3988L65.611 7.11082V15.0855H64.9922Z" fill="#FBFFFE"/>
<path id="Vector_5" d="M75.9756 15.0854L79.8871 5.40503H79.9313L83.8649 15.0854H83.1577L79.7545 6.42402L80.1965 6.18035L76.6385 15.0854H75.9756ZM77.8761 11.4303H81.9865L82.1632 12.0284H77.7214L77.8761 11.4303Z" fill="#FBFFFE"/>
<path id="Vector_6" d="M84.5498 5.82593H90.627V6.42403H87.8867V15.0854H87.2459V6.42403H84.5498V5.82593Z" fill="#FBFFFE"/>
<path id="Vector_7" d="M92.8145 5.82593H98.538V6.42403H93.4553V10.1234H98.0298V10.7215H93.4553V14.4873H98.7148V15.0854H92.8145V5.82593Z" fill="#FBFFFE"/>
<path id="Vector_8" d="M33.4576 0H0V35H33.4576V0Z" stroke="#FBFFFE" stroke-miterlimit="10"/>
<path id="Vector_9" d="M20.3089 24.1013H20.0879V27.4463H20.3089V24.1013Z" fill="#FBFFFE"/>
<path id="Vector_10" d="M21.1709 25.7847C21.1709 25.5411 21.2151 25.3195 21.3035 25.1202C21.3919 24.9208 21.5245 24.7214 21.6792 24.5664C21.8339 24.4113 22.0107 24.2784 22.2316 24.1898C22.4305 24.1012 22.6515 24.0569 22.8946 24.0569C23.1377 24.0569 23.3587 24.1012 23.5576 24.1898C23.7565 24.2784 23.9553 24.4113 24.11 24.5664C24.2647 24.7214 24.3973 24.8987 24.4857 25.1202C24.5741 25.3195 24.6183 25.5411 24.6183 25.7847C24.6183 26.0284 24.5741 26.2499 24.4857 26.4493C24.3973 26.6487 24.2647 26.848 24.11 27.0031C23.9553 27.1582 23.7786 27.2911 23.5576 27.3797C23.3587 27.4683 23.1377 27.5126 22.8946 27.5126C22.6515 27.5126 22.4305 27.4683 22.2316 27.3797C22.0327 27.2911 21.8339 27.1803 21.6792 27.0252C21.5245 26.8702 21.3919 26.693 21.3035 26.4714C21.2151 26.2499 21.1709 26.0284 21.1709 25.7847ZM21.3919 25.7847C21.3919 25.9841 21.4361 26.1835 21.5024 26.3607C21.5687 26.5379 21.6792 26.693 21.8118 26.8259C21.9444 26.9588 22.099 27.0695 22.2758 27.136C22.4526 27.2025 22.6515 27.2468 22.8504 27.2468C23.0493 27.2468 23.2482 27.2025 23.425 27.136C23.6018 27.0695 23.7565 26.9588 23.889 26.8259C24.0216 26.693 24.1321 26.5379 24.1984 26.3607C24.2647 26.1835 24.3089 25.9841 24.3089 25.7847C24.3089 25.5854 24.2647 25.386 24.1984 25.2088C24.1321 25.0316 24.0216 24.8765 23.889 24.7214C23.7565 24.5885 23.6018 24.4778 23.425 24.3892C23.2482 24.3006 23.0493 24.2784 22.8504 24.2784C22.6515 24.2784 22.4526 24.3227 22.2758 24.3892C22.099 24.4778 21.9444 24.5885 21.8118 24.7214C21.6792 24.8544 21.5687 25.0094 21.5024 25.2088C21.4361 25.386 21.3919 25.5854 21.3919 25.7847Z" fill="#FBFFFE"/>
<path id="Vector_11" d="M28.22 27.5349L25.5902 24.5444L25.6565 24.5001V27.4463H25.4355V24.0349H25.4576L28.0874 27.0254L28.0211 27.0476V24.1014H28.2421V27.5349H28.22Z" fill="#FBFFFE"/>
<path id="Vector_12" d="M5.59082 8.55054L13.0602 13.0252" stroke="#FBFFFE" stroke-width="0.75" stroke-miterlimit="10"/>
<path id="Vector_13" d="M5.56934 12.9146L13.1271 8.75" stroke="#FBFFFE" stroke-width="0.75" stroke-miterlimit="10"/>
<path id="Vector_14" d="M9.36976 6.35767L9.34766 15.152" stroke="#FBFFFE" stroke-width="0.75" stroke-miterlimit="10"/>
<path id="Vector_15" d="M10.8507 6.97778L9.37012 8.63918" stroke="#FBFFFE" stroke-width="0.75" stroke-miterlimit="10"/>
<path id="Vector_16" d="M7.86719 6.97778L9.34781 8.63918" stroke="#FBFFFE" stroke-width="0.75" stroke-miterlimit="10"/>
<path id="Vector_17" d="M13.4141 10.4114L11.2705 9.76904" stroke="#FBFFFE" stroke-width="0.75" stroke-miterlimit="10"/>
<path id="Vector_18" d="M12.1545 7.68677L11.2705 9.76905" stroke="#FBFFFE" stroke-width="0.75" stroke-miterlimit="10"/>
<path id="Vector_19" d="M7.86719 14.7088L9.34781 13.0474" stroke="#FBFFFE" stroke-width="0.75" stroke-miterlimit="10"/>
<path id="Vector_20" d="M10.8504 14.7309L9.34766 13.0474" stroke="#FBFFFE" stroke-width="0.75" stroke-miterlimit="10"/>
<path id="Vector_21" d="M11.8452 14.0221L11.1602 11.8955" stroke="#FBFFFE" stroke-width="0.75" stroke-miterlimit="10"/>
<path id="Vector_22" d="M13.37 11.4526L11.1602 11.8735" stroke="#FBFFFE" stroke-width="0.75" stroke-miterlimit="10"/>
<path id="Vector_23" d="M5.25977 11.386L7.46964 11.829" stroke="#FBFFFE" stroke-width="0.75" stroke-miterlimit="10"/>
<path id="Vector_24" d="M6.78418 13.9557L7.46924 11.8291" stroke="#FBFFFE" stroke-width="0.75" stroke-miterlimit="10"/>
<path id="Vector_25" d="M6.7627 7.59814L7.58035 9.70257" stroke="#FBFFFE" stroke-width="0.75" stroke-miterlimit="10"/>
<path id="Vector_26" d="M5.41406 10.2786L7.57974 9.70264" stroke="#FBFFFE" stroke-width="0.75" stroke-miterlimit="10"/>
<path id="Vector_27" d="M9.14909 24.8765C9.14909 25.8069 8.35353 26.56 7.38118 26.56C6.40884 26.56 5.61328 25.8069 5.61328 24.8765C5.61328 23.9461 7.38118 22.1296 7.38118 22.1296C8.35353 23.1708 9.14909 23.9461 9.14909 24.8765Z" stroke="#FBFFFE" stroke-width="0.75" stroke-miterlimit="10"/>
<path id="Vector_28" d="M8.22082 23.0381C9.01638 21.9748 9.85613 21.1108 9.85613 21.1108C11.5356 22.9273 12.8837 24.2343 12.8837 25.8513C12.8837 27.4463 11.5356 28.7532 9.85613 28.7532C8.41971 28.7532 7.22638 27.8007 6.91699 26.5159" stroke="#FBFFFE" stroke-width="0.75" stroke-miterlimit="10"/>
<path id="Vector_29" d="M11.9329 25.6963C11.9329 25.6963 12.0876 26.7153 10.9385 27.4463" stroke="#FBFFFE" stroke-width="0.75" stroke-miterlimit="10"/>
<path id="Vector_30" d="M24.463 11.2754C24.463 12.5159 23.4685 13.5128 22.231 13.5128C21.0156 13.5128 19.999 12.5159 19.999 11.2754C19.999 10.0349 20.9935 9.03809 22.231 9.03809C23.4685 9.03809 24.463 10.0349 24.463 11.2754Z" stroke="#FBFFFE" stroke-width="0.75" stroke-miterlimit="10"/>
<path id="Vector_31" d="M25.7895 8.83873C26.3998 8.83873 26.8944 8.34284 26.8944 7.73113C26.8944 7.11942 26.3998 6.62354 25.7895 6.62354C25.1793 6.62354 24.6846 7.11942 24.6846 7.73113C24.6846 8.34284 25.1793 8.83873 25.7895 8.83873Z" stroke="#FBFFFE" stroke-width="0.75" stroke-miterlimit="10"/>
<path id="Vector_32" d="M26.6514 14.8862C27.5057 14.8862 28.1983 14.1919 28.1983 13.3355C28.1983 12.4792 27.5057 11.7849 26.6514 11.7849C25.7971 11.7849 25.1045 12.4792 25.1045 13.3355C25.1045 14.1919 25.7971 14.8862 26.6514 14.8862Z" stroke="#FBFFFE" stroke-width="0.75" stroke-miterlimit="10"/>
<path id="Vector_33" d="M3.02734 17.5886H30.7392" stroke="#FBFFFE" stroke-width="0.25" stroke-miterlimit="10"/>
<path id="Vector_34" d="M17.2373 31.4779V3.69946" stroke="#FBFFFE" stroke-width="0.25" stroke-miterlimit="10"/>
<path id="Vector_35" d="M43.9541 24.5C43.9541 23.8576 44.0867 23.2373 44.3298 22.6614C44.5729 22.0854 44.9043 21.5759 45.3463 21.155C45.7883 20.712 46.2745 20.3797 46.849 20.1139C47.4236 19.8702 48.0203 19.7373 48.6832 19.7373C49.3241 19.7373 49.9429 19.8702 50.5174 20.1139C51.092 20.3576 51.6003 20.712 52.0202 21.155C52.4621 21.5981 52.7936 22.1076 53.0367 22.6614C53.2798 23.2373 53.4124 23.8354 53.4124 24.5C53.4124 25.1424 53.2798 25.7626 53.0367 26.3386C52.7936 26.9145 52.44 27.4019 52.0202 27.8449C51.5782 28.2879 51.092 28.6202 50.5174 28.8639C49.9429 29.1076 49.3241 29.2405 48.6832 29.2405C48.0424 29.2405 47.4236 29.1297 46.849 28.886C46.2745 28.6424 45.7883 28.3101 45.3463 27.8892C44.9043 27.4683 44.5729 26.9588 44.3298 26.3829C44.0646 25.8069 43.9541 25.1867 43.9541 24.5ZM44.595 24.5221C44.595 25.0981 44.7055 25.6297 44.9043 26.1171C45.1032 26.6044 45.4126 27.0474 45.7883 27.424C46.164 27.8006 46.5839 28.0886 47.0921 28.3101C47.5783 28.5316 48.1087 28.6202 48.6611 28.6202C49.2357 28.6202 49.7661 28.5095 50.2744 28.3101C50.7605 28.0886 51.2025 27.8006 51.5782 27.424C51.9539 27.0474 52.2411 26.6044 52.4621 26.1171C52.6831 25.6297 52.7715 25.0759 52.7715 24.5C52.7715 23.924 52.661 23.3924 52.4621 22.905C52.2411 22.3955 51.9539 21.9746 51.5782 21.5759C51.2025 21.1993 50.7605 20.8892 50.2744 20.6898C49.7882 20.4683 49.2578 20.3576 48.6832 20.3576C48.1087 20.3576 47.5783 20.4683 47.07 20.6898C46.5618 20.9114 46.1419 21.2215 45.7662 21.5981C45.3905 21.9746 45.1032 22.4177 44.9043 22.9272C44.7055 23.4367 44.595 23.9683 44.595 24.5221Z" fill="#FBFFFE"/>
<path id="Vector_36" d="M55.7773 19.8704H60.9485V20.4685H56.4182V24.3007H60.4402V24.8988H56.4182V29.1299H55.7773V19.8704Z" fill="#FBFFFE"/>
<path id="Vector_37" d="M66.5615 19.8704H72.6166V20.4685H69.8984V29.1299H69.2576V20.4685H66.5615V19.8704Z" fill="#FBFFFE"/>
<path id="Vector_38" d="M81.6768 19.8704V29.1299H81.0359V24.7659H75.467V29.1299H74.8262V19.8704H75.467V24.1678H81.0359V19.8704H81.6768Z" fill="#FBFFFE"/>
<path id="Vector_39" d="M84.6162 19.8704H90.3398V20.4685H85.2571V24.1678H89.8315V24.7659H85.2571V28.5318H90.5166V29.1299H84.6162V19.8704Z" fill="#FBFFFE"/>
<path id="Vector_40" d="M96.9473 19.8704H102.14V20.4685H97.5881V24.3007H101.61V24.8988H97.5881V29.1299H96.9473V19.8704Z" fill="#FBFFFE"/>
<path id="Vector_41" d="M105.079 26.0064C105.079 26.5381 105.19 27.0033 105.411 27.402C105.632 27.8007 105.941 28.0887 106.317 28.3102C106.693 28.5318 107.135 28.6204 107.621 28.6204C108.107 28.6204 108.549 28.5096 108.947 28.3102C109.322 28.0887 109.632 27.8007 109.853 27.402C110.074 27.0033 110.184 26.5381 110.184 26.0064V19.8704H110.803V26.0286C110.803 26.6931 110.67 27.2691 110.383 27.7564C110.096 28.2438 109.72 28.5982 109.234 28.864C108.748 29.1077 108.217 29.2406 107.621 29.2406C107.024 29.2406 106.472 29.1077 106.007 28.864C105.521 28.6204 105.146 28.2438 104.858 27.7564C104.571 27.2691 104.438 26.6931 104.438 26.0286V19.8704H105.079V26.0064Z" fill="#FBFFFE"/>
<path id="Vector_42" d="M112.947 19.8704H119.024V20.4685H116.284V29.1299H115.643V20.4685H112.947V19.8704Z" fill="#FBFFFE"/>
<path id="Vector_43" d="M121.809 26.0064C121.809 26.5381 121.919 27.0033 122.14 27.402C122.361 27.8007 122.671 28.0887 123.046 28.3102C123.422 28.5318 123.864 28.6204 124.35 28.6204C124.836 28.6204 125.278 28.5096 125.676 28.3102C126.052 28.0887 126.361 27.8007 126.582 27.402C126.803 27.0033 126.914 26.5381 126.914 26.0064V19.8704H127.532V26.0286C127.532 26.6931 127.4 27.2691 127.113 27.7564C126.825 28.2438 126.45 28.5982 125.963 28.864C125.477 29.1077 124.947 29.2406 124.35 29.2406C123.754 29.2406 123.201 29.1077 122.737 28.864C122.251 28.6204 121.875 28.2438 121.588 27.7564C121.301 27.2691 121.168 26.6931 121.168 26.0286V19.8704H121.809V26.0064Z" fill="#FBFFFE"/>
<path id="Vector_44" d="M132.548 19.8704C132.902 19.8704 133.233 19.9147 133.587 20.0254C133.94 20.1362 134.25 20.2912 134.515 20.4906C134.802 20.7121 135.023 20.978 135.2 21.3102C135.377 21.6425 135.465 22.0412 135.465 22.5064C135.465 22.8609 135.421 23.1931 135.311 23.5254C135.2 23.8577 135.045 24.1457 134.802 24.4115C134.559 24.6773 134.272 24.8767 133.896 25.0318C133.521 25.1868 133.057 25.2754 132.504 25.2754H131.068V29.1299H130.427V19.8704H132.548ZM132.46 24.633C132.924 24.633 133.3 24.5666 133.609 24.4337C133.918 24.3007 134.161 24.1235 134.316 23.9242C134.493 23.7248 134.603 23.4811 134.692 23.2375C134.758 22.9938 134.802 22.7501 134.802 22.5064C134.802 22.2185 134.758 21.9748 134.648 21.7311C134.537 21.4875 134.405 21.2659 134.206 21.0887C134.007 20.9115 133.786 20.7564 133.521 20.6457C133.255 20.5349 132.946 20.4906 132.615 20.4906H131.046V24.6552H132.46V24.633ZM133.786 24.921L136.349 29.1299H135.598L133.012 24.921H133.786Z" fill="#FBFFFE"/>
<path id="Vector_45" d="M138.67 19.8704H144.394V20.4685H139.311V24.1678H143.885V24.7659H139.311V28.5318H144.57V29.1299H138.67V19.8704Z" fill="#FBFFFE"/>
</g>
<defs>
<clipPath id="clip0_1451_3231">
<rect width="183" height="35" fill="white"/>
</clipPath>
</defs>
</svg>
