<svg width="508" height="495" viewBox="0 0 508 495" fill="none" xmlns="http://www.w3.org/2000/svg">
<g clip-path="url(#clip0_643_36311)">
<path d="M194.207 244.768C197.561 242.712 207.407 236.058 211.546 223.237C212.276 220.965 217.524 204.762 209.409 195.322C202.538 187.342 192.178 191.183 189.446 184.881C185.929 176.793 201.456 167.083 197.534 157.318C195.532 152.341 189.5 149.879 187.498 149.068C182.575 147.066 180.628 148.446 172.756 147.364C171.403 147.174 157.202 145.119 156.905 141.305C156.688 138.492 164.262 138.086 167.346 131.351C167.616 130.729 169.537 126.428 167.86 121.992C166.291 117.88 162.504 115.933 159.312 114.391C150.413 110.009 144.84 112.281 143.758 109.874C142.108 106.222 154.497 100.028 165.804 86.3408C172.783 77.9014 182.007 66.7301 179.356 54.6391C177.517 46.2268 170.213 38.7613 161.99 36.6244C145.895 32.4047 127.177 48.9318 121.685 64.6744C118.71 73.1678 121.253 76.6572 116.708 84.6908C110.27 96.1055 102.209 94.2933 98.1789 103.084C92.7418 114.986 100.099 134.353 112.407 142.306C120.36 147.445 127.339 145.849 128.691 150.258C130.91 157.426 113.327 164.621 114.923 174.169C116.167 181.662 128.34 185.692 130.693 186.477C142.839 190.507 151.413 185.855 153.605 189.615C156.282 194.186 143.758 201.651 145.814 209.496C147.843 217.097 162.504 220.586 175.245 223.642C186.984 226.429 193.395 226.185 196.019 230.973C198.318 235.111 196.29 240.71 194.207 244.768Z" fill="#FBFFFE"/>
<path d="M194.206 245.417C194.044 245.417 193.882 245.363 193.774 245.255C193.557 245.065 193.503 244.741 193.638 244.47C196.533 238.79 197.128 234.327 195.424 231.216C193.638 227.943 189.689 227.186 183.17 225.915C180.817 225.455 178.112 224.941 175.082 224.211C162.071 221.1 147.302 217.584 145.192 209.604C144.001 205.141 147.139 200.921 149.898 197.243C152.144 194.267 154.064 191.67 153.036 189.912C152.198 188.452 149.898 188.587 146.436 188.749C142.433 188.938 136.941 189.209 130.503 187.072C124.931 185.233 115.437 181.121 114.273 174.251C113.381 168.922 118.006 164.351 122.091 160.32C125.662 156.804 129.016 153.477 128.069 150.42C127.447 148.392 125.364 147.824 122.172 146.958C119.332 146.201 115.815 145.227 112.055 142.82C99.2877 134.57 92.1194 114.743 97.5835 102.787C99.5852 98.3778 102.615 96.5114 105.78 94.5097C109.269 92.3458 112.867 90.1007 116.113 84.3122C118.628 79.8491 118.899 76.9278 119.224 73.5196C119.467 70.8687 119.738 68.1368 121.036 64.404C126.852 47.7958 146.057 31.7556 162.125 35.9483C170.592 38.1663 178.085 45.9294 179.951 54.4499C182.683 66.8384 173.189 78.3073 166.264 86.6925C160.935 93.1573 155.254 98.0532 151.143 101.597C146.95 105.194 143.65 108.061 144.326 109.549C144.651 110.252 145.76 110.388 147.843 110.604C150.521 110.874 154.551 111.28 159.555 113.742C162.585 115.229 166.751 117.258 168.428 121.694C170.159 126.238 168.292 130.702 167.914 131.567C166.074 135.597 162.72 137.464 160.286 138.816C158.527 139.79 157.445 140.439 157.527 141.197C157.689 143.415 165.344 145.633 172.81 146.661C176.083 147.12 178.355 147.147 180.167 147.174C182.818 147.202 184.739 147.229 187.714 148.419C189.77 149.257 196.019 151.773 198.129 157.02C200.293 162.403 196.993 167.57 193.828 172.574C191.069 176.902 188.472 181.013 190.014 184.584C191.204 187.343 194.044 187.938 197.642 188.722C201.645 189.588 206.217 190.588 209.896 194.862C217.442 203.653 214.007 217.746 212.168 223.399C208.273 235.436 199.454 242.279 194.531 245.282C194.45 245.39 194.342 245.417 194.206 245.417ZM149.168 187.343C151.521 187.343 153.226 187.694 154.145 189.263C155.606 191.779 153.334 194.808 150.926 198.027C148.329 201.489 145.408 205.411 146.436 209.279C148.357 216.502 162.72 219.937 175.38 222.939C178.409 223.67 181.087 224.184 183.441 224.643C190.338 225.969 194.504 226.78 196.587 230.594C198.291 233.705 198.021 237.843 195.802 242.983C200.671 239.602 207.65 233.245 210.978 223.047C212.357 218.801 216.279 204.275 208.976 195.755C205.54 191.779 201.212 190.859 197.398 190.02C193.747 189.236 190.311 188.479 188.851 185.124C187.038 180.932 189.797 176.55 192.746 171.924C195.748 167.191 198.832 162.322 196.939 157.561C195.045 152.828 189.175 150.447 187.255 149.663C184.523 148.554 182.791 148.527 180.195 148.5C178.328 148.473 176.002 148.446 172.648 147.986C168.888 147.472 156.553 145.416 156.228 141.332C156.12 139.709 157.662 138.816 159.664 137.707C162.071 136.355 165.074 134.678 166.724 131.053C167.075 130.296 168.752 126.265 167.21 122.208C165.696 118.259 161.963 116.42 158.987 114.959C154.172 112.606 150.439 112.227 147.707 111.929C145.408 111.686 143.758 111.524 143.136 110.117C142.081 107.737 145.165 105.086 150.277 100.65C154.362 97.1065 159.988 92.2647 165.263 85.881C172.025 77.7122 181.249 66.5138 178.68 54.7204C176.894 46.6597 169.807 39.2753 161.8 37.1925C146.382 33.1622 127.88 48.7425 122.253 64.8368C121.009 68.4343 120.738 71.0851 120.522 73.6278C120.197 77.036 119.9 80.2548 117.249 84.9614C113.814 91.0474 109.918 93.4548 106.456 95.6187C103.318 97.5663 100.586 99.2704 98.7467 103.328C93.526 114.77 100.451 133.785 112.732 141.738C116.329 144.064 119.738 144.984 122.47 145.714C125.797 146.606 128.421 147.337 129.259 150.042C130.422 153.856 126.798 157.453 122.957 161.267C118.926 165.27 114.733 169.409 115.518 174.061C116.275 178.633 121.739 182.825 130.855 185.855C137.077 187.911 142.433 187.667 146.328 187.478C147.383 187.397 148.302 187.343 149.168 187.343Z" fill="#1C1C1C"/>
<path d="M185.415 254.993C185.225 254.993 185.036 254.911 184.901 254.749C184.684 254.452 184.738 254.046 185.009 253.83C189.039 250.746 194.558 245.282 197.831 236.897C198.02 236.383 202.592 224.427 199.075 212.174C196.045 201.652 188.85 196.864 178.869 190.21C174.027 186.991 168.562 183.339 162.72 178.416C155.064 171.979 131.774 152.422 126.013 128.538C122.686 114.716 125.282 99.4869 133.722 83.3385C138.618 73.9795 145.516 64.35 153.658 55.4779C153.901 55.2074 154.307 55.2074 154.578 55.4508C154.848 55.6943 154.848 56.1 154.605 56.3705C143.947 67.9475 119.981 98.1074 127.257 128.24C132.91 151.692 155.957 171.059 163.531 177.416C169.32 182.284 174.757 185.909 179.572 189.101C189.391 195.647 197.127 200.813 200.292 211.795C203.89 224.265 199.535 236.058 199.021 237.357C195.64 246.012 189.959 251.639 185.793 254.83C185.685 254.966 185.55 254.993 185.415 254.993Z" fill="#1C1C1C"/>
<path d="M239.217 70.3547C238.892 70.3547 238.595 70.1113 238.568 69.7596C238.216 65.6211 236.512 61.4555 233.834 58.3178C232.752 57.0736 231.535 55.9646 230.345 54.8826C229.317 53.9629 228.262 53.0162 227.288 51.9613C223.69 48.0392 221.283 42.7105 220.715 37.3006C220.147 31.8637 221.445 26.5892 224.285 22.8023C224.502 22.5047 224.908 22.4506 225.205 22.667C225.503 22.8834 225.557 23.2892 225.34 23.5867C222.689 27.1031 221.499 32.0531 222.013 37.1654C222.554 42.3047 224.826 47.39 228.235 51.0957C229.154 52.0965 230.209 53.0433 231.21 53.9359C232.428 55.0449 233.699 56.181 234.835 57.5064C237.675 60.8334 239.488 65.2695 239.866 69.6785C239.893 70.0301 239.623 70.3547 239.271 70.3818C239.244 70.3547 239.244 70.3547 239.217 70.3547Z" fill="#1C1C1C"/>
<path d="M219.011 23.6679L227.532 27.3466L227.91 18.6638L219.011 23.6679Z" fill="#1C1C1C"/>
<path d="M254.338 60.7524C254.014 60.7524 253.716 60.509 253.689 60.1573C253.337 56.0188 251.633 51.8533 248.955 48.7155C247.873 47.4713 246.656 46.3623 245.466 45.2803C244.438 44.3606 243.383 43.4139 242.409 42.359C238.811 38.4369 236.404 33.1082 235.836 27.6983C235.268 22.2614 236.566 16.9869 239.407 13.2C239.623 12.9024 240.029 12.8483 240.326 13.0647C240.624 13.2811 240.678 13.6869 240.461 13.9844C237.811 17.5008 236.62 22.4508 237.134 27.5631C237.675 32.7024 239.948 37.7877 243.356 41.4934C244.276 42.4942 245.33 43.441 246.331 44.3336C247.549 45.4426 248.82 46.5787 249.956 47.9041C252.796 51.2311 254.609 55.6672 254.987 60.0762C255.014 60.4278 254.744 60.7524 254.392 60.7795C254.392 60.7524 254.365 60.7524 254.338 60.7524Z" fill="#1C1C1C"/>
<path d="M234.159 14.0656L242.68 17.7443L243.059 9.03442L234.159 14.0656Z" fill="#1C1C1C"/>
<path d="M269.675 53.2327C269.351 53.2327 269.053 52.9892 269.026 52.6376C268.674 48.4991 266.97 44.3335 264.292 41.1958C263.21 39.9515 261.993 38.8154 260.803 37.7605C259.775 36.8409 258.72 35.8941 257.746 34.8392C254.149 30.9171 251.741 25.5884 251.173 20.1786C250.632 14.7417 251.93 9.46708 254.771 5.6802C254.987 5.38266 255.393 5.32856 255.69 5.54495C255.988 5.76134 256.042 6.16708 255.826 6.46462C253.175 9.98102 251.985 14.931 252.498 20.0433C253.039 25.1827 255.312 30.2679 258.72 33.9736C259.64 34.9745 260.695 35.9212 261.696 36.8138C262.913 37.9228 264.184 39.0589 265.32 40.3843C268.16 43.7113 269.973 48.1474 270.352 52.5564C270.379 52.9081 270.108 53.2327 269.756 53.2597C269.729 53.2327 269.702 53.2327 269.675 53.2327Z" fill="#1C1C1C"/>
<path d="M249.469 6.54585L258.017 10.2245L258.395 1.54175L249.469 6.54585Z" fill="#1C1C1C"/>
<path d="M449.37 53.4763C449.343 53.4763 449.343 53.4763 449.316 53.4763C448.964 53.4492 448.694 53.1246 448.721 52.773C449.072 48.364 450.912 43.9279 453.752 40.6008C454.888 39.2754 456.132 38.1394 457.377 37.0304C458.378 36.1377 459.405 35.191 460.352 34.1902C463.788 30.4845 466.033 25.3992 466.574 20.2599C467.115 15.1476 465.897 10.1976 463.247 6.68118C463.03 6.38364 463.084 5.9779 463.382 5.7615C463.679 5.54511 464.085 5.59921 464.301 5.89675C467.142 9.68364 468.44 14.9582 467.872 20.3951C467.304 25.8049 464.924 31.1607 461.299 35.0558C460.325 36.1107 459.27 37.0574 458.242 37.9771C457.052 39.059 455.808 40.1681 454.753 41.4123C452.102 44.55 450.371 48.7156 450.019 52.8541C449.965 53.2328 449.694 53.4763 449.37 53.4763Z" fill="#1C1C1C"/>
<path d="M469.549 6.78925L461.028 10.4679L460.649 1.78516L469.549 6.78925Z" fill="#1C1C1C"/>
<path d="M432.193 51.718C432.166 51.718 432.166 51.718 432.139 51.718C431.787 51.6909 431.517 51.3663 431.544 51.0147C431.896 46.6057 433.735 42.1696 436.575 38.8425C437.711 37.5171 438.956 36.3811 440.2 35.2721C441.201 34.3794 442.229 33.4327 443.175 32.4319C446.611 28.7262 448.856 23.6409 449.397 18.5016C449.938 13.3893 448.721 8.43927 446.07 4.92288C445.853 4.62533 445.907 4.2196 446.205 4.0032C446.503 3.78681 446.908 3.84091 447.125 4.13845C449.965 7.92533 451.263 13.1999 450.695 18.6368C450.127 24.0466 447.747 29.4024 444.122 33.2975C443.148 34.3524 442.093 35.2991 441.065 36.2188C439.875 37.3007 438.631 38.4098 437.576 39.654C434.925 42.7917 433.194 46.9573 432.842 51.0958C432.815 51.4475 432.518 51.718 432.193 51.718Z" fill="#1C1C1C"/>
<path d="M452.399 5.03115L443.879 8.70984L443.5 0L452.399 5.03115Z" fill="#1C1C1C"/>
<path d="M414.448 52.8813C414.421 52.8813 414.421 52.8813 414.394 52.8813C414.042 52.8542 413.772 52.5296 413.799 52.178C414.15 47.769 415.99 43.3329 418.83 40.0059C419.966 38.6805 421.21 37.5444 422.455 36.4354C423.456 35.5428 424.484 34.596 425.43 33.5952C428.866 29.8895 431.111 24.8042 431.652 19.6649C432.193 14.5526 430.976 9.6026 428.325 6.08621C428.108 5.78866 428.162 5.38293 428.46 5.16653C428.757 4.95014 429.163 5.00424 429.38 5.30178C432.22 9.08866 433.518 14.3633 432.95 19.8001C432.382 25.21 430.002 30.5657 426.377 34.4608C425.403 35.5157 424.348 36.4624 423.32 37.3821C422.13 38.4641 420.886 39.5731 419.831 40.8174C417.18 43.9551 415.449 48.1206 415.097 52.2592C415.043 52.6378 414.773 52.8813 414.448 52.8813Z" fill="#1C1C1C"/>
<path d="M434.654 6.19428L426.106 9.87297L425.728 1.19019L434.654 6.19428Z" fill="#1C1C1C"/>
<path d="M481.559 358.916H495.976C501.982 358.916 506.878 354.047 506.878 348.015V131.297C506.878 120.856 498.411 112.389 487.97 112.389H481.586C471.144 112.389 462.678 120.856 462.678 131.297V340.008C462.651 350.449 471.117 358.916 481.559 358.916Z" fill="#FBFFFE"/>
<path d="M495.95 359.565H481.532C470.739 359.565 461.975 350.801 461.975 340.008V131.297C461.975 120.504 470.739 111.74 481.532 111.74H487.916C498.709 111.74 507.473 120.504 507.473 131.297V348.015C507.5 354.371 502.333 359.565 495.95 359.565ZM481.559 113.039C471.496 113.039 463.3 121.234 463.3 131.297V340.008C463.3 350.071 471.496 358.266 481.559 358.266H495.977C501.63 358.266 506.229 353.668 506.229 348.015V131.297C506.229 121.234 498.032 113.039 487.97 113.039H481.559Z" fill="#1C1C1C"/>
<path d="M219.065 349.746L217.632 119.747L357.156 57.4797L493.895 121.965L495.599 353.344C495.518 356.481 492.812 358.997 489.485 358.97L226.477 356.86C222.366 356.833 219.065 353.641 219.065 349.746Z" fill="#FBFFFE"/>
<path d="M489.539 359.619C489.512 359.619 489.512 359.619 489.485 359.619L226.477 357.509C222.041 357.482 218.443 353.993 218.443 349.746L217.01 119.747C217.01 119.476 217.172 119.26 217.388 119.152L356.913 56.8846C357.075 56.8034 357.292 56.8034 357.454 56.8846L494.165 121.37C494.381 121.478 494.544 121.694 494.544 121.965L496.248 353.344C496.14 356.833 493.137 359.619 489.539 359.619ZM218.281 120.18L219.715 349.746C219.715 353.262 222.744 356.184 226.477 356.211L489.485 358.321C489.512 358.321 489.512 358.321 489.539 358.321C492.461 358.321 494.868 356.103 494.949 353.317L493.245 122.344L357.156 58.1559L218.281 120.18Z" fill="#1C1C1C"/>
<path d="M465.14 248.474H440.605C439.118 248.474 437.9 247.257 437.9 245.769V208.252C437.9 206.764 439.118 205.547 440.605 205.547H465.14C466.628 205.547 467.845 206.764 467.845 208.252V245.769C467.845 247.257 466.628 248.474 465.14 248.474ZM440.605 206.845C439.821 206.845 439.199 207.494 439.199 208.252V245.769C439.199 246.553 439.848 247.176 440.605 247.176H465.14C465.924 247.176 466.546 246.526 466.546 245.769V208.252C466.546 207.467 465.897 206.845 465.14 206.845H440.605Z" fill="#1C1C1C"/>
<path d="M431.273 248.474H407.144C405.521 248.474 404.223 247.149 404.223 245.553V208.468C404.223 206.845 405.548 205.547 407.144 205.547H431.273C432.896 205.547 434.194 206.872 434.194 208.468V245.553C434.194 247.176 432.896 248.474 431.273 248.474ZM407.144 206.845C406.251 206.845 405.521 207.576 405.521 208.468V245.553C405.521 246.445 406.251 247.176 407.144 247.176H431.273C432.165 247.176 432.896 246.445 432.896 245.553V208.468C432.896 207.576 432.165 206.845 431.273 206.845H407.144Z" fill="#1C1C1C"/>
<path d="M465.735 294.755H440.01C438.847 294.755 437.873 293.808 437.873 292.618V253.938C437.873 252.775 438.82 251.801 440.01 251.801H465.735C466.898 251.801 467.872 252.748 467.872 253.938V292.618C467.845 293.808 466.898 294.755 465.735 294.755ZM440.01 253.099C439.55 253.099 439.171 253.478 439.171 253.938V292.618C439.171 293.078 439.55 293.457 440.01 293.457H465.735C466.194 293.457 466.573 293.078 466.573 292.618V253.938C466.573 253.478 466.194 253.099 465.735 253.099H440.01Z" fill="#1C1C1C"/>
<path d="M431.219 294.755H407.198C405.548 294.755 404.223 293.43 404.223 291.78V254.804C404.223 253.154 405.548 251.828 407.198 251.828H431.219C432.869 251.828 434.194 253.154 434.194 254.804V291.78C434.194 293.403 432.869 294.755 431.219 294.755ZM407.225 253.099C406.306 253.099 405.548 253.857 405.548 254.776V291.753C405.548 292.672 406.306 293.43 407.225 293.43H431.246C432.165 293.43 432.923 292.672 432.923 291.753V254.804C432.923 253.884 432.165 253.126 431.246 253.126H407.225V253.099Z" fill="#1C1C1C"/>
<path d="M379.959 125.238H355.425C353.937 125.238 352.72 124.021 352.72 122.533V92.9681C352.72 91.4804 353.937 90.2632 355.425 90.2632H379.959C381.447 90.2632 382.664 91.4804 382.664 92.9681V122.533C382.691 124.021 381.474 125.238 379.959 125.238ZM355.425 91.5345C354.64 91.5345 354.018 92.1837 354.018 92.9411V122.533C354.018 123.317 354.667 123.939 355.425 123.939H379.959C380.744 123.939 381.366 123.29 381.366 122.533V92.9681C381.366 92.1837 380.717 91.5615 379.959 91.5615H355.425V91.5345Z" fill="#1C1C1C"/>
<path d="M346.119 125.238H321.991C320.368 125.238 319.069 123.912 319.069 122.316V93.1845C319.069 91.5615 320.395 90.2632 321.991 90.2632H346.119C347.742 90.2632 349.041 91.5886 349.041 93.1845V122.316C349.041 123.939 347.715 125.238 346.119 125.238ZM321.991 91.5345C321.098 91.5345 320.368 92.2648 320.368 93.1574V122.289C320.368 123.182 321.098 123.912 321.991 123.912H346.119C347.012 123.912 347.742 123.182 347.742 122.289V93.1845C347.742 92.2919 347.012 91.5615 346.119 91.5615H321.991V91.5345Z" fill="#1C1C1C"/>
<path d="M380.554 162.674H354.829C353.666 162.674 352.692 161.727 352.692 160.537V129.809C352.692 128.646 353.639 127.672 354.829 127.672H380.554C381.717 127.672 382.691 128.619 382.691 129.809V160.564C382.691 161.727 381.717 162.674 380.554 162.674ZM354.829 128.998C354.369 128.998 353.991 129.376 353.991 129.836V160.591C353.991 161.051 354.369 161.429 354.829 161.429H380.554C381.014 161.429 381.393 161.051 381.393 160.591V129.809C381.393 129.349 381.014 128.97 380.554 128.97H354.829V128.998Z" fill="#1C1C1C"/>
<path d="M346.038 162.674H322.018C320.367 162.674 319.042 161.348 319.042 159.698V130.675C319.042 129.025 320.367 127.699 322.018 127.699H346.038C347.688 127.699 349.014 129.025 349.014 130.675V159.698C349.041 161.348 347.688 162.674 346.038 162.674ZM322.045 128.998C321.125 128.998 320.367 129.755 320.367 130.675V159.698C320.367 160.618 321.125 161.375 322.045 161.375H346.065C346.985 161.375 347.742 160.618 347.742 159.698V130.675C347.742 129.755 346.985 128.998 346.065 128.998H322.045Z" fill="#1C1C1C"/>
<path d="M300.459 248.42H275.925C274.437 248.42 273.22 247.203 273.22 245.715V208.117C273.22 206.629 274.437 205.412 275.925 205.412H300.459C301.947 205.412 303.164 206.629 303.164 208.117V245.688C303.164 247.203 301.947 248.42 300.459 248.42ZM275.898 206.71C275.113 206.71 274.491 207.359 274.491 208.117V245.688C274.491 246.472 275.14 247.094 275.898 247.094H300.432C301.217 247.094 301.839 246.445 301.839 245.688V208.117C301.839 207.332 301.19 206.71 300.432 206.71H275.898Z" fill="#1C1C1C"/>
<path d="M266.592 248.42H242.463C240.84 248.42 239.542 247.094 239.542 245.498V208.333C239.542 206.71 240.867 205.412 242.463 205.412H266.592C268.215 205.412 269.513 206.737 269.513 208.333V245.498C269.513 247.094 268.215 248.42 266.592 248.42ZM242.463 206.71C241.571 206.71 240.84 207.44 240.84 208.333V245.498C240.84 246.391 241.571 247.121 242.463 247.121H266.592C267.485 247.121 268.215 246.391 268.215 245.498V208.333C268.215 207.44 267.485 206.71 266.592 206.71H242.463Z" fill="#1C1C1C"/>
<path d="M275.302 294.106H301.027C301.838 294.106 302.515 293.457 302.515 292.618V253.884C302.515 253.072 301.865 252.396 301.027 252.396H275.302C274.491 252.396 273.814 253.045 273.814 253.884V292.645C273.842 293.43 274.491 294.106 275.302 294.106Z" fill="#FBFFFE"/>
<path d="M242.518 294.106H266.538C267.837 294.106 268.865 293.051 268.865 291.78V254.722C268.865 253.424 267.81 252.396 266.538 252.396H242.518C241.219 252.396 240.191 253.451 240.191 254.722V291.753C240.191 293.051 241.219 294.106 242.518 294.106Z" fill="#FBFFFE"/>
<path d="M352.99 35.8132L504.525 116.69C507.744 118.394 508.339 121.884 505.823 124.21L493.083 135.949L351.854 63.4575C350.961 62.9976 349.825 62.9976 348.933 63.4575L217.307 131.567L209.057 121.748C205.675 117.718 207.055 112.308 212.194 109.603L347.851 35.8132C349.42 35.0017 351.448 35.0017 352.99 35.8132Z" fill="#1C1C1C"/>
<path d="M316.717 359.889H385.343C387.507 359.889 389.238 358.158 389.238 355.994V206.223C389.238 204.086 387.507 202.328 385.343 202.328H316.717C314.58 202.328 312.821 204.059 312.821 206.223V355.994C312.821 358.158 314.553 359.889 316.717 359.889Z" fill="#1C1C1C"/>
<path d="M319.313 354.344H382.448C383.881 354.344 385.044 353.181 385.044 351.747V209.334C385.044 207.9 383.881 206.737 382.448 206.737H319.313C317.879 206.737 316.716 207.9 316.716 209.334V351.747C316.716 353.181 317.879 354.344 319.313 354.344Z" fill="#FBFFFE"/>
<path d="M382.447 354.993H319.312C317.527 354.993 316.066 353.533 316.066 351.747V209.334C316.066 207.548 317.527 206.088 319.312 206.088H382.447C384.233 206.088 385.693 207.548 385.693 209.334V351.747C385.693 353.533 384.233 354.993 382.447 354.993ZM319.312 207.386C318.23 207.386 317.365 208.252 317.365 209.334V351.747C317.365 352.829 318.23 353.695 319.312 353.695H382.447C383.529 353.695 384.395 352.829 384.395 351.747V209.334C384.395 208.252 383.529 207.386 382.447 207.386H319.312Z" fill="#1C1C1C"/>
<path d="M303.218 361.404H398.489C399.517 361.404 400.328 360.593 400.328 359.565V346.229C400.328 345.202 399.517 344.39 398.489 344.39H303.218C302.19 344.39 301.379 345.202 301.379 346.229V359.592C301.379 360.593 302.217 361.404 303.218 361.404Z" fill="#FBFFFE"/>
<path d="M398.489 362.053H303.218C301.839 362.053 300.729 360.944 300.729 359.565V346.229C300.729 344.85 301.839 343.741 303.218 343.741H398.489C399.868 343.741 400.977 344.85 400.977 346.229V359.592C400.977 360.944 399.868 362.053 398.489 362.053ZM303.218 345.039C302.569 345.039 302.028 345.58 302.028 346.229V359.592C302.028 360.241 302.569 360.782 303.218 360.782H398.489C399.138 360.782 399.679 360.241 399.679 359.592V346.229C399.679 345.58 399.138 345.039 398.489 345.039H303.218Z" fill="#1C1C1C"/>
<path d="M285.608 183.934L241.706 183.853C241.354 183.853 241.057 183.556 241.057 183.204C241.057 182.852 241.354 182.555 241.706 182.555L285.608 182.636C285.96 182.636 286.257 182.934 286.257 183.285C286.257 183.637 285.96 183.934 285.608 183.934Z" fill="#1C1C1C"/>
<path d="M393.025 184.097L309.602 183.961C309.251 183.961 308.953 183.664 308.953 183.312C308.953 182.961 309.251 182.663 309.602 182.663L393.025 182.798C393.376 182.798 393.674 183.096 393.674 183.448C393.674 183.799 393.404 184.097 393.025 184.097Z" fill="#1C1C1C"/>
<path d="M442.769 83.9338C442.418 83.9338 442.12 83.6362 442.12 83.2846V73.5469H427.134V74.3584C427.134 74.71 426.837 75.0075 426.485 75.0075C426.133 75.0075 425.836 74.71 425.836 74.3584V72.8977C425.836 72.5461 426.133 72.2485 426.485 72.2485H442.769C443.121 72.2485 443.419 72.5461 443.419 72.8977V83.2846C443.419 83.6362 443.121 83.9338 442.769 83.9338Z" fill="#1C1C1C"/>
<path d="M442.769 110.145C442.418 110.145 442.12 109.847 442.12 109.495V83.2847C442.12 82.933 442.418 82.6355 442.769 82.6355C443.121 82.6355 443.419 82.933 443.419 83.2847V109.495C443.419 109.847 443.121 110.145 442.769 110.145Z" fill="#FBFFFE"/>
<path d="M484.751 228.944H471.929C471.578 228.944 471.28 228.647 471.28 228.295V192.374H399.192C398.84 192.374 398.57 192.103 398.542 191.752C398.461 191.644 398.407 191.508 398.407 191.346V121.938C398.407 121.586 398.705 121.289 399.056 121.289H425.836V101.056C425.836 100.704 426.134 100.407 426.485 100.407C426.837 100.407 427.134 100.704 427.134 101.056V121.938C427.134 122.29 426.837 122.587 426.485 122.587H399.706V190.967C399.733 190.994 399.76 191.049 399.787 191.076H471.929C472.281 191.076 472.579 191.373 472.579 191.725V227.619H484.102V179.553H411.878C411.527 179.553 411.229 179.255 411.229 178.903V134.949C411.229 134.597 411.527 134.299 411.878 134.299H442.12V109.495C442.12 109.144 442.418 108.846 442.769 108.846C443.121 108.846 443.419 109.144 443.419 109.495V134.949C443.419 135.3 443.121 135.598 442.769 135.598H412.527V178.254H484.751C485.103 178.254 485.4 178.552 485.4 178.903V228.295C485.4 228.647 485.103 228.944 484.751 228.944Z" fill="#1C1C1C"/>
<path d="M426.485 101.705C426.133 101.705 425.836 101.408 425.836 101.056V74.3584C425.836 74.0068 426.133 73.7092 426.485 73.7092C426.837 73.7092 427.134 74.0068 427.134 74.3584V101.056C427.134 101.408 426.864 101.705 426.485 101.705Z" fill="#FBFFFE"/>
<path d="M484.751 228.944H471.929C471.578 228.944 471.28 228.647 471.28 228.295V218.747C471.28 218.395 471.578 218.098 471.929 218.098H484.751C485.103 218.098 485.4 218.395 485.4 218.747V228.295C485.4 228.647 485.103 228.944 484.751 228.944ZM472.579 227.646H484.102V219.369H472.579V227.646Z" fill="#1C1C1C"/>
<path d="M447.449 69.6518H421.994C421.075 69.6518 420.317 68.8945 420.317 67.9748V63.4846C420.317 62.7543 420.777 62.1051 421.481 61.8887C423.915 61.1313 429.677 59.4813 434.519 59.5084C439.063 59.5354 445.176 60.8338 447.827 61.4559C448.585 61.6182 449.126 62.3215 449.126 63.0789V67.9748C449.126 68.8945 448.368 69.6518 447.449 69.6518Z" fill="#1C1C1C"/>
<path d="M440.361 66.7847H429.189V73.7904H440.361V66.7847Z" fill="#1C1C1C"/>
<path d="M442.12 105.249C442.066 105.249 442.039 105.249 441.984 105.221C441.93 105.221 437.819 104.329 434.6 104.139C433.247 104.058 431.678 104.058 429.92 104.139C429.541 104.167 429.271 103.869 429.244 103.517C429.217 103.166 429.514 102.868 429.866 102.841C431.651 102.76 433.274 102.76 434.681 102.841C438.008 103.03 442.093 103.896 442.255 103.95C442.607 104.031 442.823 104.383 442.742 104.735C442.688 105.032 442.417 105.249 442.12 105.249Z" fill="#FBFFFE"/>
<path d="M426.485 104.383C426.161 104.383 425.863 104.139 425.836 103.788C425.809 103.436 426.052 103.112 426.431 103.085C426.485 103.085 427.919 102.949 429.867 102.868C430.218 102.841 430.516 103.139 430.543 103.49C430.57 103.842 430.272 104.139 429.921 104.167C428 104.248 426.566 104.383 426.539 104.383C426.539 104.383 426.512 104.383 426.485 104.383Z" fill="#1C1C1C"/>
<path d="M442.12 111.28C442.066 111.28 442.039 111.28 441.985 111.253C441.931 111.253 437.819 110.361 434.6 110.171C430.921 109.955 426.593 110.388 426.539 110.388C426.188 110.415 425.863 110.171 425.836 109.793C425.809 109.441 426.052 109.117 426.431 109.089C426.62 109.062 430.894 108.657 434.681 108.873C438.009 109.062 442.093 109.928 442.255 109.982C442.607 110.063 442.823 110.415 442.742 110.767C442.688 111.091 442.418 111.28 442.12 111.28Z" fill="#1C1C1C"/>
<path d="M442.12 117.34C442.066 117.34 442.039 117.34 441.985 117.313C441.931 117.313 437.819 116.42 434.6 116.231C430.921 116.014 426.593 116.447 426.539 116.447C426.188 116.474 425.863 116.231 425.836 115.852C425.809 115.5 426.052 115.176 426.431 115.149C426.62 115.122 430.894 114.716 434.681 114.932C438.009 115.122 442.093 115.987 442.255 116.041C442.607 116.122 442.823 116.474 442.742 116.826C442.688 117.123 442.418 117.34 442.12 117.34Z" fill="#1C1C1C"/>
<path d="M442.12 123.372C442.066 123.372 442.039 123.372 441.985 123.344C441.931 123.344 437.819 122.452 434.6 122.263C430.921 122.046 426.593 122.479 426.539 122.479C426.188 122.506 425.863 122.263 425.836 121.884C425.809 121.532 426.052 121.208 426.431 121.181C426.62 121.154 430.894 120.748 434.681 120.964C438.009 121.154 442.093 122.019 442.255 122.073C442.607 122.154 442.823 122.506 442.742 122.858C442.688 123.182 442.418 123.372 442.12 123.372Z" fill="#1C1C1C"/>
<path d="M442.337 99.1894C442.283 99.1894 442.256 99.1894 442.202 99.1624C442.148 99.1624 438.036 98.2697 434.817 98.0804C431.138 97.864 426.81 98.2968 426.756 98.2968C426.405 98.3238 426.08 98.0804 426.053 97.7017C426.026 97.3501 426.269 97.0255 426.648 96.9984C426.837 96.9714 431.111 96.5656 434.898 96.782C438.225 96.9714 442.31 97.837 442.472 97.8911C442.824 97.9722 443.04 98.3238 442.959 98.6755C442.905 98.973 442.635 99.1894 442.337 99.1894Z" fill="#FBFFFE"/>
<path d="M442.689 93.1574C442.634 93.1574 442.607 93.1574 442.553 93.1304C442.499 93.1304 438.388 92.2378 435.169 92.0484C431.49 91.832 427.162 92.2648 427.108 92.2648C426.756 92.2919 426.431 92.0484 426.404 91.6697C426.377 91.3181 426.621 90.9935 426.999 90.9664C427.189 90.9394 431.463 90.5337 435.25 90.7501C438.577 90.9394 442.661 91.805 442.824 91.8591C443.175 91.9402 443.392 92.2919 443.311 92.6435C443.257 92.941 442.986 93.1574 442.689 93.1574Z" fill="#FBFFFE"/>
<path d="M442.363 87.0986C442.309 87.0986 442.282 87.0986 442.228 87.0715C442.174 87.0715 438.062 86.1789 434.843 85.9896C431.165 85.7732 426.837 86.206 426.782 86.206C426.431 86.233 426.106 85.9896 426.079 85.6109C426.052 85.2593 426.296 84.9347 426.674 84.9076C426.864 84.8806 431.138 84.4748 434.925 84.6912C438.252 84.8806 442.336 85.7461 442.499 85.8002C442.85 85.8814 443.067 86.233 442.986 86.5847C442.931 86.8822 442.661 87.0986 442.363 87.0986Z" fill="#FBFFFE"/>
<path d="M442.769 81.0394C442.715 81.0394 442.688 81.0394 442.634 81.0124C442.58 81.0124 438.468 80.1197 435.249 79.9304C434.924 79.9033 434.6 79.9033 434.275 79.9033C433.924 79.9033 433.626 79.6058 433.653 79.2271C433.653 78.8755 433.951 78.5779 434.329 78.605C434.654 78.605 435.006 78.632 435.33 78.6591C438.657 78.8484 442.742 79.714 442.904 79.7681C443.256 79.8492 443.472 80.2009 443.391 80.5525C443.337 80.8501 443.066 81.0394 442.769 81.0394Z" fill="#1C1C1C"/>
<path d="M427.135 80.2009C426.81 80.2009 426.512 79.9574 426.485 79.6058C426.458 79.2542 426.702 78.9296 427.081 78.9025C427.108 78.9025 430.813 78.5509 434.33 78.632C434.682 78.632 434.979 78.9296 434.952 79.3083C434.952 79.6599 434.628 79.9574 434.276 79.9304C430.84 79.8492 427.243 80.2009 427.189 80.2009C427.189 80.2009 427.162 80.2009 427.135 80.2009Z" fill="#FBFFFE"/>
<path d="M442.77 75.0075C442.715 75.0075 442.688 75.0075 442.634 74.9805C442.58 74.9805 438.469 74.0879 435.25 73.8985C431.571 73.6821 427.243 74.1149 427.189 74.1149C426.837 74.142 426.512 73.8985 426.485 73.5198C426.458 73.1682 426.702 72.8436 427.081 72.8166C427.27 72.7895 431.544 72.3838 435.331 72.6002C438.658 72.7895 442.743 73.6551 442.905 73.7092C443.256 73.7903 443.473 74.142 443.392 74.4936C443.338 74.7911 443.067 75.0075 442.77 75.0075Z" fill="#1C1C1C"/>
<path d="M265.24 106.844C264.996 106.844 264.78 106.709 264.672 106.493L254.717 86.6926C254.555 86.3681 254.69 85.9894 255.015 85.8271C255.339 85.6648 255.718 85.8 255.88 86.1246L265.835 105.925C265.997 106.249 265.862 106.628 265.537 106.79C265.429 106.817 265.321 106.844 265.24 106.844Z" fill="#FBFFFE"/>
<path d="M303.705 190.94H291.479C291.127 190.94 290.829 190.643 290.829 190.291V121.289H272.462C272.192 121.289 271.976 121.126 271.867 120.91L271.651 120.423L264.645 106.493C264.483 106.168 264.618 105.789 264.942 105.627C265.267 105.465 265.646 105.6 265.808 105.925L272.895 120.017H291.506C291.857 120.017 292.155 120.315 292.155 120.666V189.669H303.083V108.034H282.282C282.038 108.034 281.822 107.899 281.714 107.683L277.737 99.7844C277.575 99.4598 277.71 99.0812 278.035 98.9189C278.359 98.7566 278.738 98.8918 278.9 99.2164L282.687 106.763H303.732C304.084 106.763 304.382 107.061 304.382 107.412V190.318C304.354 190.67 304.084 190.94 303.705 190.94Z" fill="#1C1C1C"/>
<path d="M278.305 100.136C278.061 100.136 277.845 100.001 277.737 99.7845L267.674 79.7952C267.512 79.4706 267.647 79.0919 267.972 78.9296C268.296 78.7673 268.675 78.9026 268.837 79.2272L278.9 99.2165C279.062 99.5411 278.927 99.9198 278.602 100.082C278.494 100.109 278.386 100.136 278.305 100.136Z" fill="#FBFFFE"/>
<path d="M249.551 84.691L271.786 72.2755C272.598 71.8156 272.895 70.7878 272.435 70.0033L270.244 66.0812C269.893 65.432 269.162 65.1074 268.459 65.2427C265.97 65.7566 260.128 67.1361 255.908 69.5435C251.958 71.7886 247.252 75.9001 245.25 77.7394C244.682 78.2533 244.547 79.1189 244.925 79.7951L247.306 84.0689C247.712 84.8533 248.74 85.1238 249.551 84.691Z" fill="#1C1C1C"/>
<path d="M257.007 84.9963L266.682 79.4106L263.179 73.3437L253.504 78.9293L257.007 84.9963Z" fill="#1C1C1C"/>
<path d="M303.705 191.048H291.478C291.127 191.048 290.829 190.751 290.829 190.399V181.094C290.829 180.743 291.127 180.445 291.478 180.445H303.705C304.057 180.445 304.354 180.743 304.354 181.094V190.399C304.354 190.751 304.084 191.048 303.705 191.048ZM292.155 189.75H303.083V181.716H292.155V189.75Z" fill="#1C1C1C"/>
<path d="M269.026 113.823C268.837 113.823 268.648 113.742 268.512 113.552C268.296 113.255 268.35 112.849 268.648 112.633C268.783 112.525 272.299 109.874 275.681 108.143C278.629 106.628 281.415 105.573 281.442 105.546C281.767 105.411 282.146 105.6 282.281 105.925C282.416 106.249 282.227 106.628 281.902 106.763C281.875 106.763 279.143 107.818 276.276 109.306C273.003 110.983 269.459 113.661 269.432 113.688C269.297 113.796 269.162 113.823 269.026 113.823Z" fill="#1C1C1C"/>
<path d="M266.051 108.494C265.862 108.494 265.645 108.413 265.537 108.224C265.32 107.926 265.375 107.521 265.672 107.304C265.834 107.196 269.405 104.572 272.786 102.841C275.735 101.326 278.71 100.19 278.737 100.163C279.062 100.028 279.441 100.19 279.576 100.542C279.711 100.866 279.549 101.245 279.197 101.38C279.17 101.38 276.276 102.516 273.381 103.977C270.108 105.654 266.484 108.305 266.457 108.332C266.321 108.44 266.186 108.494 266.051 108.494Z" fill="#1C1C1C"/>
<path d="M263.292 102.976C263.076 102.976 262.886 102.868 262.751 102.706C262.535 102.408 262.616 102.003 262.913 101.813C263.076 101.705 266.673 99.1894 270.028 97.4583C273.003 95.9435 276.195 94.8886 276.33 94.8345C276.682 94.7263 277.034 94.9157 277.142 95.2403C277.25 95.5919 277.061 95.9435 276.736 96.0517C276.709 96.0517 273.517 97.1066 270.623 98.5944C267.35 100.271 263.698 102.841 263.671 102.868C263.563 102.949 263.427 102.976 263.292 102.976Z" fill="#FBFFFE"/>
<path d="M260.587 97.5936C260.398 97.5936 260.181 97.5125 260.073 97.3231C259.857 97.0256 259.938 96.6198 260.208 96.4035C260.344 96.3223 263.346 94.1313 266.727 92.4002C269.703 90.8854 273.328 89.6682 273.463 89.6412C273.815 89.533 274.166 89.7223 274.274 90.0469C274.383 90.3985 274.193 90.7502 273.869 90.8584C273.842 90.8584 270.19 92.0756 267.322 93.5362C264.049 95.2133 261.02 97.4313 260.993 97.4584C260.858 97.5395 260.722 97.5936 260.587 97.5936Z" fill="#FBFFFE"/>
<path d="M257.856 92.1838C257.666 92.1838 257.45 92.1026 257.342 91.9133C257.125 91.6157 257.206 91.21 257.477 90.9936C257.612 90.9124 260.615 88.6944 263.996 86.9633C266.971 85.4485 270.38 84.3124 270.515 84.2583C270.867 84.1502 271.218 84.3395 271.327 84.6641C271.435 85.0157 271.245 85.3674 270.921 85.4756C270.894 85.4756 267.458 86.6116 264.591 88.0993C261.318 89.7764 258.261 91.9944 258.234 92.0215C258.126 92.1297 257.991 92.1838 257.856 92.1838Z" fill="#FBFFFE"/>
<path d="M255.258 87.0173C255.069 87.0173 254.907 86.9361 254.771 86.8009C254.528 86.5304 254.555 86.1247 254.825 85.8812C254.934 85.773 257.53 83.5009 260.912 81.7427C263.887 80.2279 267.837 78.9025 267.999 78.8484C268.351 78.7402 268.702 78.9296 268.81 79.2542C268.919 79.6058 268.729 79.9575 268.405 80.0656C268.378 80.0656 264.374 81.3911 261.507 82.8788C258.261 84.5558 255.718 86.8009 255.691 86.8279C255.583 86.9632 255.421 87.0173 255.258 87.0173Z" fill="#FBFFFE"/>
<path d="M153.388 470.71H342.468C352.044 470.71 359.834 462.947 359.834 453.344V262.864C359.834 253.288 352.071 245.498 342.468 245.498H153.388C143.812 245.498 136.021 253.261 136.021 262.864V453.344C136.021 462.947 143.785 470.71 153.388 470.71Z" fill="#1C1C1C"/>
<path d="M133.993 470.71H323.073C332.649 470.71 340.439 462.947 340.439 453.344V264.27C340.439 254.695 332.676 246.905 323.073 246.905H133.993C124.417 246.905 116.627 254.668 116.627 264.27V453.344C116.654 462.947 124.417 470.71 133.993 470.71Z" fill="#FBFFFE"/>
<path d="M323.073 471.359H133.993C124.066 471.359 115.978 463.271 115.978 453.344V264.27C115.978 254.343 124.066 246.256 133.993 246.256H323.073C333 246.256 341.088 254.343 341.088 264.27V453.344C341.088 463.271 333 471.359 323.073 471.359ZM133.993 247.581C124.769 247.581 117.276 255.074 117.276 264.297V453.371C117.276 462.595 124.769 470.088 133.993 470.088H323.073C332.297 470.088 339.79 462.595 339.79 453.371V264.27C339.79 255.047 332.297 247.554 323.073 247.554H133.993V247.581Z" fill="#1C1C1C"/>
<path d="M228.642 440.09C273.549 440.09 309.954 403.686 309.954 358.78C309.954 313.874 273.549 277.47 228.642 277.47C183.734 277.47 147.329 313.874 147.329 358.78C147.329 403.686 183.734 440.09 228.642 440.09Z" fill="#1C1C1C"/>
<path d="M214.737 360.025C214.737 360.025 203.593 366.246 195.694 368.139C186.551 370.357 178.68 357.563 168.455 365.407C160.042 371.872 159.69 389.833 177.165 398.624C185.604 402.871 201.753 397.244 209.787 390.644C219.769 382.421 222.988 369.438 222.988 369.438L214.737 360.025Z" fill="#FBFFFE"/>
<path d="M184.468 400.788C181.655 400.788 179.058 400.301 176.894 399.219C168.373 394.945 163.072 387.885 162.314 379.906C161.746 373.847 163.937 368.085 168.076 364.92C174.351 360.106 179.734 362.648 184.928 365.083C188.553 366.787 191.961 368.383 195.559 367.517C203.268 365.651 214.305 359.511 214.44 359.457C214.71 359.294 215.035 359.375 215.251 359.592L223.502 369.005C223.637 369.167 223.691 369.384 223.637 369.6C223.502 370.141 220.256 382.881 210.22 391.158C204.296 396.054 193.368 400.788 184.468 400.788ZM175.488 363.487C173.378 363.487 171.187 364.163 168.887 365.948C165.1 368.87 163.072 374.171 163.613 379.797C164.316 387.344 169.374 393.998 177.489 398.083C185.307 402.005 201.05 397.055 209.408 390.157C218.227 382.881 221.716 371.656 222.284 369.6L214.602 360.836C212.384 362.053 202.943 367.057 195.856 368.761C191.826 369.735 188.039 367.95 184.36 366.246C181.385 364.839 178.49 363.487 175.488 363.487Z" fill="#1C1C1C"/>
<path d="M227.044 345.662C227.044 345.662 221.337 334.247 219.768 326.294C217.956 317.071 231.102 309.767 223.717 299.191C217.631 290.508 199.697 289.345 190.148 306.386C185.522 314.636 190.419 331.001 196.667 339.332C204.43 349.665 217.279 353.452 217.279 353.452L227.044 345.662Z" fill="#FBFFFE"/>
<path d="M217.28 354.128C217.225 354.128 217.144 354.128 217.09 354.101C216.549 353.938 203.971 350.125 196.153 339.738C190.067 331.65 184.63 314.934 189.58 306.088C194.233 297.784 201.509 292.78 209.543 292.375C215.63 292.077 221.283 294.538 224.258 298.812C228.776 305.277 226.017 310.552 223.339 315.637C221.472 319.18 219.714 322.507 220.417 326.159C221.932 333.949 227.559 345.256 227.64 345.364C227.775 345.634 227.694 345.959 227.477 346.148L217.712 353.966C217.55 354.074 217.415 354.128 217.28 354.128ZM210.544 293.646C210.219 293.646 209.922 293.646 209.597 293.673C202.023 294.052 195.126 298.812 190.716 306.711C186.442 314.338 190.689 330.297 197.181 338.953C204.052 348.096 215.116 352.072 217.144 352.748L226.233 345.472C225.124 343.2 220.526 333.543 219.146 326.402C218.362 322.318 220.309 318.612 222.176 315.042C224.799 310.065 227.261 305.385 223.176 299.57C220.607 295.864 215.819 293.646 210.544 293.646Z" fill="#1C1C1C"/>
<path d="M243.222 359.862C243.222 359.862 253.907 352.856 261.616 350.395C270.569 347.528 279.361 359.727 288.991 351.152C296.916 344.092 295.969 326.159 277.927 318.639C269.19 315.015 253.501 321.777 245.954 328.945C236.594 337.871 234.322 351.044 234.322 351.044L243.222 359.862Z" fill="#FBFFFE"/>
<path d="M243.221 360.511C243.059 360.511 242.897 360.457 242.761 360.322L233.862 351.531C233.7 351.369 233.646 351.179 233.673 350.963C233.754 350.422 236.08 337.465 245.494 328.485C252.824 321.506 268.811 314.149 278.17 318.044C286.961 321.696 292.777 328.35 294.103 336.275C295.103 342.28 293.318 348.177 289.423 351.639C283.526 356.887 277.981 354.75 272.598 352.667C268.865 351.233 265.348 349.881 261.805 350.99C254.258 353.397 243.681 360.322 243.573 360.376C243.465 360.484 243.33 360.511 243.221 360.511ZM234.998 350.855L243.275 359.051C245.385 357.698 254.474 351.991 261.399 349.8C265.348 348.529 269.271 350.043 273.031 351.504C278.278 353.533 283.201 355.426 288.53 350.692C292.101 347.528 293.724 342.091 292.804 336.519C291.56 329.053 286.015 322.751 277.656 319.261C269.595 315.907 254.231 321.993 246.386 329.459C238.082 337.33 235.431 348.772 234.998 350.855Z" fill="#1C1C1C"/>
<path d="M230.372 372.9C230.372 372.9 236.594 384.044 238.487 391.943C240.705 401.085 227.911 408.956 235.755 419.181C242.22 427.593 260.181 427.945 268.973 410.471C273.219 402.032 267.62 385.884 260.993 377.85C252.77 367.869 239.786 364.65 239.786 364.65L230.372 372.9Z" fill="#FBFFFE"/>
<path d="M248.361 425.429C243.005 425.429 238.109 423.265 235.269 419.56C230.454 413.284 232.996 407.902 235.431 402.708C237.135 399.084 238.731 395.675 237.865 392.078C235.999 384.369 229.859 373.306 229.804 373.197C229.642 372.927 229.723 372.602 229.94 372.386L239.353 364.136C239.515 364.001 239.732 363.947 239.948 364.001C240.489 364.136 253.23 367.382 261.507 377.417C267.945 385.234 274.14 401.707 269.568 410.742C265.294 419.235 258.234 424.564 250.227 425.321C249.605 425.402 248.983 425.429 248.361 425.429ZM231.211 373.035C232.428 375.253 237.433 384.72 239.137 391.78C240.111 395.811 238.325 399.597 236.594 403.276C234.214 408.361 231.941 413.149 236.269 418.775C239.191 422.562 244.493 424.591 250.119 424.05C257.666 423.347 264.347 418.288 268.405 410.174C272.327 402.356 267.377 386.614 260.506 378.256C253.23 369.411 242.004 365.948 239.948 365.353L231.211 373.035Z" fill="#1C1C1C"/>
<path d="M219.363 347.555C213.926 352.289 212.546 360.403 216.468 366.76C220.823 373.82 230.075 376.011 237.135 371.656C244.195 367.301 246.386 358.05 242.031 350.99C237.676 343.93 228.424 341.739 221.364 346.094C220.878 346.392 220.391 346.716 219.958 347.068L219.363 347.555Z" fill="#FBFFFE"/>
<path d="M229.263 374.523C223.989 374.523 218.849 371.872 215.901 367.084C211.87 360.539 213.141 352.099 218.93 347.068C219.038 346.96 219.174 346.906 219.309 346.906C219.336 346.771 219.417 346.635 219.525 346.554C219.985 346.175 220.499 345.851 220.986 345.526C228.344 340.982 238.028 343.281 242.545 350.639C247.089 357.996 244.79 367.68 237.432 372.197C234.917 373.793 232.077 374.523 229.263 374.523ZM219.985 347.69C219.958 347.825 219.877 347.934 219.769 348.015C214.467 352.64 213.277 360.376 216.983 366.381C221.148 373.143 230.021 375.226 236.756 371.088C243.519 366.922 245.602 358.05 241.463 351.315C237.297 344.552 228.425 342.47 221.689 346.608C221.229 346.906 220.77 347.203 220.337 347.555C220.229 347.663 220.12 347.69 219.985 347.69Z" fill="#1C1C1C"/>
<path d="M219.957 347.068C219.741 347.23 219.552 347.392 219.362 347.555L219.957 347.068Z" fill="#FBFFFE"/>
<path d="M219.363 348.204C219.173 348.204 219.011 348.123 218.876 347.988C218.632 347.717 218.659 347.311 218.93 347.068C219.119 346.906 219.336 346.716 219.552 346.554C219.823 346.338 220.255 346.392 220.472 346.662C220.688 346.933 220.634 347.365 220.364 347.582C220.174 347.744 219.985 347.879 219.796 348.042C219.66 348.15 219.498 348.204 219.363 348.204Z" fill="#1C1C1C"/>
<path d="M228.533 440.82C182.44 440.82 144.948 404.304 144.948 359.429C144.948 314.582 182.44 278.065 228.533 278.065C274.626 278.065 312.118 314.582 312.118 359.456C312.145 404.304 274.626 440.82 228.533 440.82ZM228.533 279.364C183.143 279.364 146.247 315.285 146.247 359.456C146.247 403.601 183.17 439.549 228.533 439.549C273.896 439.549 310.819 403.628 310.819 359.456C310.846 315.285 273.923 279.364 228.533 279.364Z" fill="#FBFFFE"/>
<path d="M267.16 288.344H190.906C190.554 288.344 190.257 288.046 190.257 287.695C190.257 287.343 190.554 287.046 190.906 287.046H267.133C267.485 287.046 267.782 287.343 267.782 287.695C267.809 288.046 267.512 288.344 267.16 288.344Z" fill="#FBFFFE"/>
<path d="M197.885 300.327H172.594C172.242 300.327 171.944 300.029 171.944 299.678C171.944 299.326 172.242 299.029 172.594 299.029H197.885C198.237 299.029 198.535 299.326 198.535 299.678C198.535 300.029 198.237 300.327 197.885 300.327Z" fill="#FBFFFE"/>
<path d="M222.366 300.327H197.858C197.507 300.327 197.209 300.029 197.209 299.678C197.209 299.326 197.507 299.029 197.858 299.029H222.366C222.717 299.029 223.015 299.326 223.015 299.678C223.015 300.029 222.744 300.327 222.366 300.327Z" fill="#1C1C1C"/>
<path d="M283.878 300.327H222.366C222.014 300.327 221.717 300.029 221.717 299.678C221.717 299.326 222.014 299.029 222.366 299.029H283.878C284.23 299.029 284.527 299.326 284.527 299.678C284.527 300.029 284.257 300.327 283.878 300.327Z" fill="#FBFFFE"/>
<path d="M189.472 312.283H161.394C161.043 312.283 160.745 311.985 160.745 311.634C160.745 311.282 161.043 310.984 161.394 310.984H189.472C189.824 310.984 190.122 311.282 190.122 311.634C190.122 311.985 189.851 312.283 189.472 312.283Z" fill="#FBFFFE"/>
<path d="M222.879 312.283H189.472C189.121 312.283 188.823 311.985 188.823 311.634C188.823 311.282 189.121 310.984 189.472 310.984H222.852C223.204 310.984 223.501 311.282 223.501 311.634C223.529 311.985 223.231 312.283 222.879 312.283Z" fill="#1C1C1C"/>
<path d="M295.239 312.283H222.88C222.528 312.283 222.23 311.985 222.23 311.634C222.23 311.282 222.528 310.984 222.88 310.984H295.239C295.59 310.984 295.888 311.282 295.888 311.634C295.888 311.985 295.59 312.283 295.239 312.283Z" fill="#FBFFFE"/>
<path d="M190.717 324.265H155.119C154.767 324.265 154.47 323.968 154.47 323.616C154.47 323.265 154.767 322.967 155.119 322.967H190.717C191.069 322.967 191.366 323.265 191.366 323.616C191.366 323.968 191.096 324.265 190.717 324.265Z" fill="#FBFFFE"/>
<path d="M218.47 324.265H190.717C190.365 324.265 190.067 323.968 190.067 323.616C190.067 323.265 190.365 322.967 190.717 322.967H218.47C218.822 322.967 219.119 323.265 219.119 323.616C219.119 323.968 218.849 324.265 218.47 324.265Z" fill="#1C1C1C"/>
<path d="M255.529 324.265H218.47C218.119 324.265 217.821 323.968 217.821 323.616C217.821 323.265 218.119 322.967 218.47 322.967H255.529C255.881 322.967 256.178 323.265 256.178 323.616C256.178 323.968 255.908 324.265 255.529 324.265Z" fill="#FBFFFE"/>
<path d="M284.824 324.265H255.529C255.177 324.265 254.88 323.968 254.88 323.616C254.88 323.265 255.177 322.967 255.529 322.967H284.797C285.149 322.967 285.446 323.265 285.446 323.616C285.474 323.968 285.176 324.265 284.824 324.265Z" fill="#1C1C1C"/>
<path d="M302.732 324.265H284.798C284.446 324.265 284.148 323.968 284.148 323.616C284.148 323.265 284.446 322.967 284.798 322.967H302.732C303.084 322.967 303.381 323.265 303.381 323.616C303.381 323.968 303.111 324.265 302.732 324.265Z" fill="#FBFFFE"/>
<path d="M195.451 336.221H149.303C148.952 336.221 148.654 335.924 148.654 335.572C148.654 335.22 148.952 334.923 149.303 334.923H195.451C195.803 334.923 196.1 335.22 196.1 335.572C196.1 335.924 195.803 336.221 195.451 336.221Z" fill="#FBFFFE"/>
<path d="M221.798 336.221H195.451C195.099 336.221 194.802 335.924 194.802 335.572C194.802 335.22 195.099 334.923 195.451 334.923H221.798C222.149 334.923 222.447 335.22 222.447 335.572C222.447 335.924 222.149 336.221 221.798 336.221Z" fill="#1C1C1C"/>
<path d="M242.058 336.221H221.798C221.446 336.221 221.148 335.924 221.148 335.572C221.148 335.22 221.446 334.923 221.798 334.923H242.058C242.41 334.923 242.707 335.22 242.707 335.572C242.707 335.924 242.41 336.221 242.058 336.221Z" fill="#FBFFFE"/>
<path d="M292.642 336.221H242.058C241.707 336.221 241.409 335.924 241.409 335.572C241.409 335.22 241.707 334.923 242.058 334.923H292.642C292.994 334.923 293.291 335.22 293.291 335.572C293.291 335.924 293.021 336.221 292.642 336.221Z" fill="#1C1C1C"/>
<path d="M306.951 336.221H292.641C292.29 336.221 291.992 335.924 291.992 335.572C291.992 335.22 292.29 334.923 292.641 334.923H306.924C307.276 334.923 307.573 335.22 307.573 335.572C307.573 335.924 307.303 336.221 306.951 336.221Z" fill="#FBFFFE"/>
<path d="M207.677 348.204H147.355C147.004 348.204 146.706 347.906 146.706 347.555C146.706 347.203 147.004 346.906 147.355 346.906H207.677C208.029 346.906 208.326 347.203 208.326 347.555C208.326 347.906 208.029 348.204 207.677 348.204Z" fill="#FBFFFE"/>
<path d="M218.471 348.204H207.678C207.326 348.204 207.028 347.906 207.028 347.555C207.028 347.203 207.326 346.906 207.678 346.906H218.471C218.822 346.906 219.12 347.203 219.12 347.555C219.12 347.906 218.849 348.204 218.471 348.204Z" fill="#1C1C1C"/>
<path d="M290.559 348.204H218.47C218.119 348.204 217.821 347.906 217.821 347.555C217.821 347.203 218.119 346.906 218.47 346.906H290.559C290.911 346.906 291.208 347.203 291.208 347.555C291.208 347.906 290.911 348.204 290.559 348.204Z" fill="#1C1C1C"/>
<path d="M309.981 348.204H290.559C290.208 348.204 289.91 347.906 289.91 347.555C289.91 347.203 290.208 346.906 290.559 346.906H309.981C310.333 346.906 310.631 347.203 310.631 347.555C310.631 347.906 310.333 348.204 309.981 348.204Z" fill="#FBFFFE"/>
<path d="M214.224 360.16H146.355C146.004 360.16 145.706 359.862 145.706 359.511C145.706 359.159 146.004 358.861 146.355 358.861H214.224C214.576 358.861 214.873 359.159 214.873 359.511C214.873 359.862 214.576 360.16 214.224 360.16Z" fill="#FBFFFE"/>
<path d="M244.249 360.16H214.223C213.872 360.16 213.574 359.862 213.574 359.511C213.574 359.159 213.872 358.861 214.223 358.861H244.276C244.628 358.861 244.925 359.159 244.925 359.511C244.898 359.862 244.628 360.16 244.249 360.16Z" fill="#1C1C1C"/>
<path d="M311.495 360.16H244.249C243.897 360.16 243.6 359.862 243.6 359.511C243.6 359.159 243.897 358.861 244.249 358.861H311.468C311.82 358.861 312.118 359.159 312.118 359.511C312.145 359.862 311.847 360.16 311.495 360.16Z" fill="#FBFFFE"/>
<path d="M164.966 372.143H146.355C146.004 372.143 145.706 371.845 145.706 371.493C145.706 371.142 146.004 370.844 146.355 370.844H164.966C165.317 370.844 165.615 371.142 165.615 371.493C165.615 371.845 165.317 372.143 164.966 372.143Z" fill="#FBFFFE"/>
<path d="M252.446 372.143H164.966C164.614 372.143 164.316 371.845 164.316 371.493C164.316 371.142 164.614 370.844 164.966 370.844H252.446C252.797 370.844 253.095 371.142 253.095 371.493C253.095 371.845 252.797 372.143 252.446 372.143Z" fill="#1C1C1C"/>
<path d="M310.224 372.143H252.445C252.093 372.143 251.796 371.845 251.796 371.493C251.796 371.142 252.093 370.844 252.445 370.844H310.224C310.576 370.844 310.873 371.142 310.873 371.493C310.873 371.845 310.603 372.143 310.224 372.143Z" fill="#FBFFFE"/>
<path d="M164.289 384.098H149.845C149.493 384.098 149.195 383.801 149.195 383.449C149.195 383.097 149.493 382.8 149.845 382.8H164.289C164.641 382.8 164.938 383.097 164.938 383.449C164.938 383.801 164.668 384.098 164.289 384.098Z" fill="#FBFFFE"/>
<path d="M215.982 384.098H164.289C163.937 384.098 163.64 383.801 163.64 383.449C163.64 383.097 163.937 382.8 164.289 382.8H215.982C216.333 382.8 216.631 383.097 216.631 383.449C216.631 383.801 216.36 384.098 215.982 384.098Z" fill="#1C1C1C"/>
<path d="M236.107 384.098H216.009C215.657 384.098 215.359 383.801 215.359 383.449C215.359 383.097 215.657 382.8 216.009 382.8H236.107C236.458 382.8 236.756 383.097 236.756 383.449C236.756 383.801 236.458 384.098 236.107 384.098Z" fill="#FBFFFE"/>
<path d="M264.023 384.098H236.107C235.756 384.098 235.458 383.801 235.458 383.449C235.458 383.097 235.756 382.8 236.107 382.8H264.023C264.375 382.8 264.672 383.097 264.672 383.449C264.672 383.801 264.375 384.098 264.023 384.098Z" fill="#1C1C1C"/>
<path d="M307.466 384.098H264.023C263.672 384.098 263.374 383.801 263.374 383.449C263.374 383.097 263.672 382.8 264.023 382.8H307.493C307.844 382.8 308.142 383.097 308.142 383.449C308.142 383.801 307.844 384.098 307.466 384.098Z" fill="#FBFFFE"/>
<path d="M172.918 396.081H154.848C154.497 396.081 154.199 395.784 154.199 395.432C154.199 395.08 154.497 394.783 154.848 394.783H172.918C173.27 394.783 173.567 395.08 173.567 395.432C173.567 395.784 173.297 396.081 172.918 396.081Z" fill="#FBFFFE"/>
<path d="M198.859 396.081H172.918C172.566 396.081 172.269 395.784 172.269 395.432C172.269 395.08 172.566 394.783 172.918 394.783H198.859C199.21 394.783 199.508 395.08 199.508 395.432C199.508 395.784 199.237 396.081 198.859 396.081Z" fill="#1C1C1C"/>
<path d="M239.624 396.081H198.859C198.508 396.081 198.21 395.784 198.21 395.432C198.21 395.08 198.508 394.783 198.859 394.783H239.624C239.975 394.783 240.273 395.08 240.273 395.432C240.273 395.784 240.002 396.081 239.624 396.081Z" fill="#FBFFFE"/>
<path d="M268.567 396.081H239.624C239.272 396.081 238.975 395.784 238.975 395.432C238.975 395.08 239.272 394.783 239.624 394.783H268.567C268.919 394.783 269.217 395.08 269.217 395.432C269.217 395.784 268.919 396.081 268.567 396.081Z" fill="#1C1C1C"/>
<path d="M302.461 396.081H268.567C268.216 396.081 267.918 395.784 267.918 395.432C267.918 395.08 268.216 394.783 268.567 394.783H302.461C302.813 394.783 303.11 395.08 303.11 395.432C303.11 395.784 302.84 396.081 302.461 396.081Z" fill="#FBFFFE"/>
<path d="M235.323 408.037H162.369C162.017 408.037 161.72 407.739 161.72 407.387C161.72 407.036 162.017 406.738 162.369 406.738H235.323C235.675 406.738 235.972 407.036 235.972 407.387C235.972 407.739 235.675 408.037 235.323 408.037Z" fill="#FBFFFE"/>
<path d="M269.136 408.037H235.323C234.971 408.037 234.674 407.739 234.674 407.387C234.674 407.036 234.971 406.738 235.323 406.738H269.136C269.487 406.738 269.785 407.036 269.785 407.387C269.785 407.739 269.487 408.037 269.136 408.037Z" fill="#1C1C1C"/>
<path d="M294.968 408.037H269.136C268.784 408.037 268.486 407.739 268.486 407.387C268.486 407.036 268.784 406.738 269.136 406.738H294.968C295.32 406.738 295.618 407.036 295.618 407.387C295.618 407.739 295.32 408.037 294.968 408.037Z" fill="#FBFFFE"/>
<path d="M237.189 420.02H173.891C173.54 420.02 173.242 419.722 173.242 419.37C173.242 419.019 173.54 418.721 173.891 418.721H237.189C237.54 418.721 237.838 419.019 237.838 419.37C237.838 419.722 237.567 420.02 237.189 420.02Z" fill="#FBFFFE"/>
<path d="M260.506 420.02H237.189C236.838 420.02 236.54 419.722 236.54 419.37C236.54 419.019 236.838 418.721 237.189 418.721H260.506C260.858 418.721 261.156 419.019 261.156 419.37C261.156 419.722 260.858 420.02 260.506 420.02Z" fill="#1C1C1C"/>
<path d="M283.932 420.02H260.507C260.155 420.02 259.857 419.722 259.857 419.37C259.857 419.019 260.155 418.721 260.507 418.721H283.932C284.284 418.721 284.581 419.019 284.581 419.37C284.581 419.722 284.284 420.02 283.932 420.02Z" fill="#FBFFFE"/>
<path d="M266.43 431.975H191.258C190.906 431.975 190.608 431.678 190.608 431.326C190.608 430.975 190.906 430.677 191.258 430.677H266.403C266.754 430.677 267.052 430.975 267.052 431.326C267.079 431.705 266.781 431.975 266.43 431.975Z" fill="#FBFFFE"/>
<path d="M103.561 197.08C104.913 196.972 111.514 210.497 132.18 209.929C152.846 209.361 169.428 186.234 169.428 186.234C169.428 186.234 176.569 174.197 181.979 169.842C187.389 165.487 188.255 164.919 188.255 164.919C188.255 164.919 189.959 167.191 188.255 169.842C186.551 172.493 181.871 177.497 181.871 177.497C181.871 177.497 187.037 180.337 184.711 186.234C182.033 193.023 174.486 192.482 174.486 192.482C174.486 192.482 159.176 260.294 95.8516 228.079L103.561 197.08Z" fill="#FBFFFE"/>
<path d="M127.203 237.411C117.573 237.411 106.97 234.489 95.5003 228.647C95.2298 228.512 95.0946 228.214 95.1757 227.917L102.939 196.918C102.993 196.648 103.237 196.458 103.507 196.431C104.102 196.377 104.562 196.891 105.617 198.081C108.728 201.571 116.031 209.712 132.126 209.28C152.224 208.739 168.698 186.099 168.86 185.855C169.131 185.395 176.083 173.71 181.52 169.355C186.903 165.027 187.795 164.432 187.822 164.405C188.12 164.216 188.499 164.27 188.715 164.54C188.796 164.649 190.663 167.191 188.742 170.194C187.362 172.385 184.062 175.982 182.791 177.389C184.198 178.471 187.2 181.5 185.253 186.477C182.872 192.536 176.786 193.104 174.919 193.131C173.892 197.135 166.345 223.535 145.083 233.516C139.592 236.112 133.614 237.411 127.203 237.411ZM96.5553 227.727C115.085 237.059 131.234 238.601 144.542 232.353C166.886 221.858 173.729 192.617 173.783 192.347C173.864 192.022 174.135 191.833 174.46 191.833C174.757 191.86 181.574 192.239 184.035 185.99C186.118 180.716 181.682 178.173 181.493 178.065C181.33 177.957 181.195 177.794 181.168 177.605C181.141 177.416 181.195 177.199 181.33 177.064C181.384 177.01 185.983 172.087 187.633 169.517C188.607 168.003 188.282 166.65 187.985 165.893C187.254 166.461 185.658 167.678 182.331 170.356C177.083 174.576 169.996 186.45 169.942 186.558C169.753 186.829 152.901 209.983 132.153 210.551C131.72 210.551 131.288 210.578 130.855 210.578C115.058 210.578 107.781 202.463 104.616 198.947C104.373 198.676 104.129 198.406 103.913 198.162L96.5553 227.727Z" fill="#1C1C1C"/>
<path d="M1.14941 228.079C1.14941 228.079 7.34389 188.046 29.2545 178.2C51.165 168.354 80.7849 169.734 88.9811 174.63C97.1502 179.553 118.439 201.787 118.439 201.787L103.318 231.649C103.318 231.649 97.8806 255.48 94.4722 274.144C94.4722 274.144 79.5676 319.911 70.6952 316.421C61.8228 312.932 36.1522 298.163 26.0896 275.442L21.1935 224.887L1.14941 228.079Z" fill="#FBFFFE"/>
<path d="M71.6962 317.26C71.2634 317.26 70.8576 317.179 70.4519 317.017C62.0663 313.717 35.8277 299.029 25.4946 275.712C25.4675 275.658 25.4405 275.577 25.4405 275.523L20.6256 225.644L1.2577 228.701C1.0413 228.728 0.851951 228.674 0.689651 228.512C0.5544 228.376 0.47325 228.16 0.5003 227.944C0.743751 226.294 7.01937 187.451 28.9841 177.578C50.5971 167.867 80.4874 168.733 89.3058 174.062C97.4478 178.958 118.033 200.408 118.926 201.327C119.115 201.517 119.169 201.814 119.034 202.058L103.94 231.839C103.588 233.353 98.3946 256.318 95.1215 274.252C95.1215 274.279 95.1215 274.306 95.0945 274.333C94.5805 275.902 82.5703 312.526 73.5085 316.8C72.8864 317.125 72.2913 317.26 71.6962 317.26ZM26.7118 275.28C36.9097 298.163 62.6885 312.58 70.9388 315.826C71.5609 316.07 72.2101 316.016 72.9675 315.664C81.4071 311.688 93.3903 275.442 93.8502 274.008C97.2044 255.534 102.641 231.758 102.696 231.514C102.696 231.46 102.723 231.406 102.75 231.352L117.681 201.895C115.003 199.109 96.1224 179.688 88.6566 175.171C80.9743 170.545 51.4356 168.922 29.5521 178.768C10.0219 187.559 3.04301 221.344 1.96101 227.267L21.0854 224.238C21.2748 224.211 21.4371 224.265 21.5723 224.373C21.7076 224.481 21.8158 224.644 21.8158 224.833L26.7118 275.28Z" fill="#1C1C1C"/>
<path d="M42.9424 274.982L46.8105 206.385C46.8376 204.546 48.3254 203.085 50.1648 203.085H89.6309C91.4703 203.085 92.958 204.573 92.9851 206.385L93.7425 276.335L42.9424 274.982Z" fill="#1C1C1C"/>
<path d="M52.7886 210.226C52.7345 210.226 52.6804 210.226 52.6263 210.226C51.0033 210.145 49.786 208.766 49.8672 207.17C50.7057 191.048 47.1081 183.88 43.9432 180.689C41.13 177.848 35.5847 175.739 35.5847 175.712C33.9617 175.793 38.6143 173.953 40.2103 173.872C40.7513 173.845 43.4563 171.898 48.0819 176.55C53.8706 182.393 56.4403 192.78 55.6829 207.44C55.6018 209.036 54.3304 210.226 52.7886 210.226Z" fill="#1C1C1C"/>
<path d="M88.3862 210.226C88.3321 210.226 88.278 210.226 88.2239 210.226C86.6009 210.145 85.3837 208.766 85.4648 207.143C87.2231 173.764 76.7547 172.79 77.1063 171.221C77.458 169.653 81.813 171.654 83.3819 172.006C85.4919 172.466 91.5781 174.386 91.2806 207.467C91.2806 209.036 89.9281 210.226 88.3862 210.226Z" fill="#1C1C1C"/>
<path d="M98.0431 256.048H55.4121L68.7478 208.441H111.379L98.0431 256.048Z" fill="#FBFFFE"/>
<path d="M98.0429 256.697H55.4119C55.1955 256.697 55.0062 256.589 54.898 256.453C54.7627 256.291 54.7357 256.075 54.7898 255.885L68.1525 208.279C68.2337 208.008 68.4771 207.792 68.7747 207.792H111.406C111.622 207.792 111.811 207.9 111.92 208.035C112.055 208.198 112.082 208.414 112.028 208.603L98.6651 256.21C98.5839 256.508 98.3405 256.697 98.0429 256.697ZM56.2776 255.399H97.556L110.54 209.09H69.2616L56.2776 255.399Z" fill="#1C1C1C"/>
<path d="M4.90912 228.214L26.4951 218.558C26.4951 218.558 23.4655 255.101 67.0973 238.222C67.0973 238.222 65.4743 233.516 65.7177 228.025C65.9341 222.534 69.2343 227.835 69.6941 232.299C70.154 236.762 80.406 234.949 86.5734 233.191C92.7408 231.433 100.829 232.596 86.5734 240.44C72.318 248.285 69.2072 244.795 69.2072 244.795C69.2072 244.795 51.0295 270.249 28.3886 264.839C0.527008 258.239 4.90912 228.214 4.90912 228.214Z" fill="#FBFFFE"/>
<path d="M34.6918 266.272C32.5819 266.272 30.4178 266.029 28.2268 265.515C0.121735 258.807 4.23335 228.43 4.2604 228.133C4.28745 227.917 4.4227 227.727 4.6391 227.646L26.2251 217.989C26.4415 217.908 26.6849 217.908 26.8743 218.044C27.0636 218.179 27.1718 218.395 27.1448 218.639C27.1448 218.774 26.1439 232.001 34.8 238.466C41.4813 243.47 52.085 243.253 66.2863 237.871C65.8535 236.41 64.8797 232.515 65.069 228.052C65.0961 227.321 65.1772 225.13 66.5838 225.103C68.3421 225.049 70.0462 229.377 70.3438 232.298C70.3979 232.867 70.6684 233.326 71.1823 233.678C73.7251 235.382 80.9474 234.192 86.3845 232.65C89.2789 231.839 94.1749 231.298 95.0135 233.353C95.4733 234.489 95.1487 236.518 86.8714 241.089C75.3751 247.419 70.8577 246.553 69.3429 245.769C66.8543 248.961 52.6801 266.272 34.6918 266.272ZM5.50471 228.674C5.3424 230.243 4.77435 236.816 6.83016 243.93C9.94092 254.722 17.2174 261.566 28.5243 264.271C50.462 269.518 68.4773 244.741 68.6667 244.471C68.7749 244.308 68.9642 244.2 69.1536 244.2C69.3429 244.2 69.5323 244.281 69.6675 244.417C69.6946 244.417 72.8865 247.284 86.2222 239.926C94.3372 235.436 93.8233 233.894 93.7962 233.84C93.4987 233.137 90.3879 232.839 86.7091 233.894C83.8148 234.733 74.0767 237.221 70.4249 234.76C69.5864 234.192 69.1265 233.408 69.0183 232.461C68.7208 229.458 67.2601 226.807 66.6379 226.456C66.5568 226.591 66.3945 227.024 66.3404 228.133C66.124 233.435 67.6658 238.033 67.6929 238.087C67.8011 238.412 67.6388 238.79 67.3142 238.898C52.3555 244.687 41.1567 244.903 33.9885 239.548C26.1439 233.678 25.6841 223.075 25.7652 219.639L5.50471 228.674Z" fill="#1C1C1C"/>
<path d="M62.4992 159.969C60.6327 161.673 56.981 163.756 54.1407 162.322C52.0308 161.24 50.8406 158.481 50.8947 155.317C49.9209 155.398 48.6225 155.317 47.7028 154.505C46.2962 153.261 46.5396 150.962 46.6208 149.447C46.8642 142.468 42.8067 141.386 43.8076 136.653C44.592 132.92 47.5134 130.702 48.0544 130.296C50.8135 128.213 52.68 128.889 57.3326 127.672C65.1501 125.617 72.3725 140.034 69.3428 142.766C64.014 147.553 68.0444 154.884 62.4992 159.969Z" fill="#1C1C1C"/>
<path d="M78.0802 147.499L77.7827 147.229C76.2408 145.903 74.6178 144.362 74.2121 142.36C72.4538 133.867 64.6904 130.783 64.3117 138.573C64.2306 140.548 57.0353 140.439 57.8738 142.495C60.0919 147.878 60.146 146.444 57.0082 148.419C56.6566 148.446 56.3049 148.5 55.9533 148.662C54.3302 149.42 53.7622 151.611 54.6819 153.558C55.2229 154.748 56.1967 155.56 57.2517 155.857V164.378C57.2517 167.57 55.3311 170.437 52.3556 171.654L49.4883 172.817C49.4883 172.817 62.9051 181.581 76.5113 171.952L74.699 171.14C71.5071 169.707 69.3972 166.569 69.289 163.08L69.2619 161.403C70.1816 161.484 71.0743 161.43 71.8858 161.186C75.6998 160.077 76.9441 155.695 76.322 150.231L77.8638 149.393C78.5942 149.041 78.7024 148.04 78.0802 147.499Z" fill="#FBFFFE"/>
<path d="M62.7695 177.091C55.0061 177.091 49.2445 173.439 49.1633 173.358C48.9739 173.223 48.8387 173.007 48.8658 172.763C48.8928 172.52 49.0551 172.303 49.2715 172.222L52.1388 171.059C54.8709 169.95 56.6291 167.326 56.6291 164.378V156.317C55.5742 155.885 54.6815 154.992 54.1405 153.856C53.0856 151.584 53.7889 149.014 55.7365 148.121C56.0881 147.959 56.4668 147.851 56.8455 147.824C57.3595 147.499 57.7923 147.283 58.1169 147.094C58.4415 146.931 58.7931 146.742 58.8472 146.634C58.8743 146.444 58.5226 145.66 58.1439 144.74C57.9275 144.199 57.63 143.577 57.3054 142.793C57.1431 142.387 57.1431 141.981 57.3324 141.63C57.7923 140.71 59.1989 140.304 60.8219 139.844C61.8227 139.574 63.6892 139.033 63.6892 138.573C63.8786 134.191 66.2049 133.542 67.1787 133.488C69.9648 133.271 73.6977 136.571 74.8609 142.279C75.2396 144.091 76.7814 145.579 78.2151 146.796L78.5127 147.066C78.9725 147.445 79.1889 148.04 79.1348 148.635C79.0807 149.23 78.702 149.744 78.1881 150.042L77.0249 150.664C77.6471 156.696 75.8617 160.78 72.1018 161.862C71.4255 162.052 70.7222 162.16 69.9648 162.133V163.107C70.073 166.326 72.0477 169.274 74.9961 170.599L76.8085 171.411C77.0249 171.519 77.1602 171.708 77.1872 171.952C77.2143 172.195 77.1061 172.412 76.9167 172.547C71.9936 175.982 67.0705 177.091 62.7695 177.091ZM51.0027 172.926C54.3569 174.657 64.6901 178.849 75.1855 172.087L74.4281 171.762C71.0198 170.248 68.7476 166.839 68.6394 163.107L68.6123 161.43C68.6123 161.24 68.6935 161.078 68.8287 160.943C68.964 160.807 69.1533 160.753 69.3156 160.78C70.1812 160.862 70.9927 160.78 71.696 160.591C74.8879 159.671 76.3216 155.939 75.6453 150.339C75.6183 150.069 75.7535 149.826 75.9699 149.69L77.5118 148.852C77.6741 148.771 77.7553 148.635 77.7823 148.446C77.8094 148.284 77.7282 148.121 77.593 147.986L77.2954 147.716C75.6994 146.336 73.9682 144.686 73.5084 142.468C72.5075 137.626 69.4509 134.543 67.1787 134.732C65.8262 134.84 64.9876 136.247 64.8794 138.6C64.8253 140.007 62.9859 140.521 61.0653 141.062C60.0915 141.332 58.5767 141.765 58.3874 142.144C58.3874 142.144 58.3603 142.171 58.4144 142.252C58.739 143.036 59.0095 143.658 59.2259 144.172C60.2809 146.607 60.5243 147.175 58.6308 148.203C58.2792 148.392 57.8193 148.635 57.3054 148.96C57.1972 149.014 57.089 149.068 56.9808 149.068C56.6832 149.068 56.4398 149.149 56.1963 149.257C54.925 149.853 54.4922 151.665 55.2496 153.288C55.7094 154.235 56.4939 154.965 57.3865 155.235C57.657 155.316 57.8464 155.56 57.8464 155.857V164.378C57.8464 167.84 55.7635 170.951 52.5446 172.249L51.0027 172.926Z" fill="#1C1C1C"/>
<path d="M69.2891 162.079C69.262 162.079 69.235 162.079 69.1809 162.079C63.6626 161.24 61.174 157.021 61.0658 156.831C60.8765 156.534 60.9847 156.128 61.3093 155.939C61.6068 155.749 62.0126 155.857 62.2019 156.182C62.229 156.236 64.5012 160.05 69.3973 160.807C69.7489 160.862 69.9924 161.186 69.9383 161.538C69.8842 161.835 69.6137 162.079 69.2891 162.079Z" fill="#1C1C1C"/>
<path d="M76.6736 131.107C76.4031 130.404 76.1055 129.728 75.7539 129.052C71.0742 120.153 60.0648 116.717 51.1383 121.397C42.2388 126.076 38.8034 137.085 43.4831 146.012C43.8347 146.688 44.2405 147.337 44.6733 147.959L76.6736 131.107Z" fill="#FBFFFE"/>
<path d="M44.6731 148.554C44.4567 148.554 44.2673 148.446 44.1321 148.284C43.6722 147.607 43.2665 146.958 42.9148 146.282C40.5614 141.819 40.1016 136.707 41.6164 131.892C43.1042 127.077 46.4043 123.128 50.8675 120.802C55.3308 118.448 60.4433 117.989 65.2582 119.503C70.0731 120.991 74.0224 124.291 76.3487 128.754C76.7004 129.43 77.025 130.134 77.2955 130.891C77.4037 131.189 77.2684 131.54 76.9979 131.703L44.9706 148.5C44.8624 148.527 44.7542 148.554 44.6731 148.554ZM59.6047 119.909C56.7915 119.909 54.0053 120.585 51.4626 121.938C47.2969 124.129 44.2403 127.78 42.8607 132.271C41.4541 136.761 41.8869 141.521 44.078 145.66C44.3214 146.12 44.5919 146.58 44.8895 147.039L75.8889 130.756C75.6725 130.242 75.4561 129.755 75.2126 129.295C73.0216 125.13 69.3698 122.073 64.8795 120.694C63.1212 120.18 61.363 119.909 59.6047 119.909Z" fill="#1C1C1C"/>
<path d="M44.376 151.719L44.6735 147.905L76.6738 131.107L84.1396 130.837L44.376 151.719Z" fill="#FBFFFE"/>
<path d="M44.3758 152.368C44.2405 152.368 44.1323 152.341 44.0241 152.26C43.8348 152.125 43.7266 151.908 43.7266 151.665L44.0241 147.851C44.0512 147.634 44.1594 147.418 44.3758 147.337L76.4031 130.512C76.4842 130.458 76.5924 130.431 76.6736 130.431L84.1394 130.161C84.437 130.161 84.7075 130.35 84.7886 130.648C84.8698 130.945 84.7345 131.243 84.464 131.378L44.7004 152.26C44.5651 152.341 44.4569 152.368 44.3758 152.368ZM45.2955 148.311L45.1061 150.583L81.3262 131.567L76.8629 131.729L45.2955 148.311Z" fill="#1C1C1C"/>
<path d="M51.0835 156.912C50.8401 156.912 50.5966 156.831 50.4073 156.642C50.0286 156.263 50.0015 155.668 50.3802 155.262C54.4107 151.016 53.4099 146.85 53.4099 146.823C53.2746 146.309 53.5992 145.768 54.1132 145.633C54.6271 145.498 55.1681 145.822 55.3034 146.336C55.3575 146.552 56.5477 151.584 51.8139 156.588C51.5975 156.804 51.327 156.912 51.0835 156.912Z" fill="#FBFFFE"/>
<path d="M73.4548 133.461C73.2384 133.461 73.022 133.353 72.9138 133.163C64.8529 120.612 50.9762 126.536 50.3811 126.807C50.1106 126.942 49.786 126.834 49.5966 126.59L47.5408 123.804C47.3244 123.507 47.3785 123.101 47.6761 122.885C47.9736 122.668 48.3794 122.722 48.5958 123.02L50.354 125.4C53.059 124.399 66.2324 120.288 74.0228 132.433C74.2122 132.73 74.1311 133.136 73.8335 133.326C73.6983 133.407 73.563 133.461 73.4548 133.461Z" fill="#1C1C1C"/>
<path d="M26.0625 452.208L27.6314 466.923L37.5588 468.086V450.639L26.0625 452.208Z" fill="#FBFFFE"/>
<path d="M37.5587 468.735C37.5316 468.735 37.5046 468.735 37.4775 468.735L27.5231 467.572C27.2255 467.545 26.9821 467.302 26.955 467.004L25.4132 452.289C25.3861 451.938 25.6296 451.613 25.9812 451.586L37.4775 450.017C37.6669 449.99 37.8562 450.044 37.9915 450.18C38.1267 450.315 38.2079 450.477 38.2079 450.666V468.113C38.2079 468.303 38.1267 468.465 37.9915 468.6C37.8833 468.681 37.721 468.735 37.5587 468.735ZM28.1993 466.355L36.9095 467.383V451.424L26.7657 452.803L28.1993 466.355Z" fill="#1C1C1C"/>
<path d="M39.1283 493.702C34.9897 494.297 28.1731 494.811 20.1933 493.702C17.5694 493.35 15.8382 490.807 16.4874 488.238C18.2457 481.097 21.2753 467.545 26.4689 461.27L27.7673 464.678L29.5526 461.459C29.7961 461.026 30.2289 460.729 30.7428 460.648L34.638 460.161C35.4495 460.053 36.2069 460.594 36.3692 461.405L36.9914 464.353L38.3439 460.485L42.8883 488.725C43.2129 491.132 41.5358 493.377 39.1283 493.702Z" fill="#FBFFFE"/>
<path d="M29.7415 495C26.8201 495 23.6011 494.811 20.1387 494.351C18.7051 494.162 17.4067 493.35 16.5952 492.16C15.7837 490.97 15.5132 489.482 15.8648 488.103L16.2435 486.561C18.0288 479.176 21.0314 466.842 25.9816 460.864C26.1168 460.675 26.3603 460.594 26.5767 460.648C26.7931 460.675 26.9824 460.837 27.0906 461.053L27.8751 463.163L28.9841 461.189C29.3358 460.566 29.9579 460.161 30.6612 460.053L34.5564 459.566C35.6925 459.43 36.7745 460.188 37.018 461.324L37.1532 462L37.7484 460.323C37.8566 460.053 38.1271 459.863 38.4246 459.89C38.7222 459.917 38.9656 460.134 39.0197 460.431L43.5641 488.671C43.9428 491.457 41.9952 493.999 39.2361 494.405C36.7745 494.703 33.5285 495 29.7415 495ZM26.2791 462.595C21.924 468.627 19.192 479.961 17.4878 486.858L17.1091 488.4C16.8386 489.455 17.055 490.537 17.6501 491.43C18.2452 492.322 19.219 492.917 20.274 493.053C28.1185 494.135 34.7999 493.648 39.0197 493.053C41.0755 492.755 42.5092 490.862 42.2387 488.806L38.1 463.109L37.5861 464.57C37.4779 464.84 37.2073 465.03 36.9368 465.003C36.6393 464.975 36.3958 464.786 36.3417 464.489L35.7196 461.54C35.6114 461.08 35.1786 460.756 34.6917 460.81L30.7965 461.297C30.4989 461.324 30.2555 461.513 30.0932 461.757L28.3079 464.975C28.1726 465.192 27.9292 465.327 27.6857 465.3C27.4423 465.273 27.2259 465.111 27.1177 464.894L26.2791 462.595Z" fill="#1C1C1C"/>
<path d="M27.605 490.267C24.9541 490.267 22.0597 490.023 19.1924 489.374C18.8408 489.293 18.6244 488.941 18.7055 488.59C18.7867 488.238 19.1383 488.021 19.49 488.103C29.2009 490.321 39.3988 487.48 39.507 487.453C39.8587 487.345 40.2103 487.562 40.3185 487.886C40.4267 488.238 40.2103 488.589 39.8857 488.698C39.5611 488.779 34.2864 490.267 27.605 490.267Z" fill="#1C1C1C"/>
<path d="M25.2244 479.339C24.8727 479.339 24.5752 479.068 24.5752 478.716C24.5752 478.365 24.8457 478.067 25.1973 478.04L34.5296 477.743C34.8813 477.743 35.1788 478.013 35.2059 478.365C35.2059 478.716 34.9354 479.014 34.5837 479.041L25.2244 479.339C25.2514 479.339 25.2514 479.339 25.2244 479.339Z" fill="#1C1C1C"/>
<path d="M72.6699 444.391L74.1577 465.841H86.1409L86.6819 444.391H72.6699Z" fill="#FBFFFE"/>
<path d="M86.1407 466.49H74.1575C73.8058 466.49 73.5353 466.22 73.5083 465.895L72.0205 444.418C72.0205 444.229 72.0746 444.066 72.1828 443.931C72.3181 443.796 72.4804 443.715 72.6697 443.715H86.6817C86.844 443.715 87.0333 443.796 87.1415 443.904C87.2768 444.039 87.3309 444.202 87.3309 444.364L86.7628 465.841C86.7628 466.22 86.4923 466.49 86.1407 466.49ZM74.7796 465.192H85.5185L86.0325 445.013H73.373L74.7796 465.192Z" fill="#1C1C1C"/>
<path d="M71.0473 477.986C71.0202 480.015 72.3998 481.8 74.3744 482.26C81.2452 483.856 96.7719 487.426 101.181 488.076C106.916 488.941 113.976 487.183 117.005 483.802C120.035 480.448 110.216 472.441 105.563 469.52C98.6384 465.192 91.984 456.617 89.1979 456.239C86.4117 455.86 81.1911 463.948 81.1911 463.948L72.6703 460.377C72.6703 460.377 71.1825 467.681 71.0473 477.986Z" fill="#FBFFFE"/>
<path d="M104.183 488.941C103.128 488.941 102.101 488.86 101.1 488.725C96.6364 488.049 80.8391 484.424 74.2389 482.882C71.9667 482.368 70.3707 480.285 70.3978 477.959C70.5601 467.708 72.0208 460.323 72.0479 460.242C72.0749 460.053 72.2102 459.89 72.3725 459.809C72.5348 459.728 72.7512 459.701 72.9405 459.782L80.9473 463.136C82.3269 461.08 86.4926 455.211 89.2788 455.59C90.8747 455.806 93.1469 457.97 96.2847 460.945C99.2062 463.704 102.506 466.842 105.888 468.952C109.647 471.305 117.6 477.526 118.168 481.746C118.304 482.72 118.06 483.558 117.465 484.208C114.922 487.102 109.458 488.941 104.183 488.941ZM73.1569 461.297C72.7782 463.434 71.8044 469.79 71.6692 477.986C71.6421 479.69 72.8323 481.232 74.5094 481.611C81.0826 483.153 96.8528 486.777 101.262 487.426C106.997 488.292 113.678 486.507 116.518 483.369C116.843 482.99 116.978 482.531 116.897 481.962C116.437 478.69 109.81 472.955 105.211 470.088C101.695 467.897 98.3405 464.705 95.3921 461.919C92.7682 459.43 90.2796 457.077 89.0894 456.915C87.4394 456.699 83.7876 461.108 81.7318 464.326C81.5695 464.597 81.2178 464.705 80.9473 464.57L73.1569 461.297Z" fill="#1C1C1C"/>
<path d="M104.048 484.992C91.5778 484.992 74.8609 478.23 73.9141 477.851C73.5895 477.716 73.4272 477.337 73.5625 477.013C73.6977 476.688 74.0764 476.526 74.401 476.661C74.6986 476.796 104.968 489.022 113.867 480.989C114.138 480.745 114.543 480.772 114.787 481.043C115.03 481.313 115.003 481.719 114.733 481.963C112.271 484.181 108.43 484.992 104.048 484.992Z" fill="#1C1C1C"/>
<path d="M90.7934 471.981C90.6041 471.981 90.4418 471.9 90.3065 471.765C90.0631 471.495 90.0901 471.089 90.3606 470.845L96.4469 465.354C96.7174 465.111 97.1232 465.138 97.3666 465.408C97.6101 465.679 97.583 466.085 97.3125 466.328L91.2262 471.819C91.091 471.927 90.9557 471.981 90.7934 471.981Z" fill="#1C1C1C"/>
<path d="M26.0894 275.442C26.0894 275.442 18.9752 371.521 17.0276 394.702C15.08 417.883 21.572 455.103 21.572 455.103L40.0472 454.129C40.0472 454.129 41.3186 408.849 42.6981 396.271C42.6981 396.271 50.5156 379.23 52.8149 364.028C55.1412 348.826 63.0127 324.807 63.0127 324.807C63.0127 324.807 69.4236 444.662 70.0187 454.102C70.0187 454.102 84.5176 454.751 89.7112 451.478C89.7112 451.478 98.9082 407.767 97.5828 383.99C96.2573 360.214 94.472 274.171 94.472 274.171L48.054 274.847L26.0894 275.442Z" fill="#1C1C1C"/>
<path d="M39.29 396.92H33.6365C33.2849 396.92 32.9873 396.622 32.9873 396.271C32.9873 395.919 33.2849 395.622 33.6365 395.622H39.29C39.6416 395.622 39.9392 395.919 39.9392 396.271C39.9392 396.649 39.6416 396.92 39.29 396.92Z" fill="#FBFFFE"/>
<path d="M79.5135 431.786C79.1348 431.786 78.8643 431.489 78.8643 431.137C79.0807 420.047 91.2532 400.139 91.7671 399.3C91.9565 399.003 92.3623 398.894 92.6598 399.084C92.9574 399.273 93.0656 399.679 92.8762 399.976C92.741 400.193 80.3791 420.398 80.1627 431.137C80.1627 431.516 79.8651 431.786 79.5135 431.786Z" fill="#FBFFFE"/>
<path d="M436.548 447.312C422.238 447.312 410.634 449.557 410.634 452.316V457.78C410.634 460.539 422.238 462.784 436.548 462.784C450.857 462.784 462.462 460.539 462.462 457.78V452.316C462.489 449.557 450.857 447.312 436.548 447.312Z" fill="#FBFFFE"/>
<path d="M436.548 463.461C425.863 463.461 409.984 461.946 409.984 457.807V452.343C409.984 448.178 425.89 446.69 436.548 446.69C447.205 446.69 463.111 448.205 463.111 452.343V457.807C463.138 461.946 447.232 463.461 436.548 463.461ZM436.548 447.961C420.886 447.961 411.283 450.504 411.283 452.316V457.78C411.283 459.593 420.886 462.135 436.548 462.135C452.21 462.135 461.812 459.593 461.812 457.78V452.316C461.839 450.504 452.21 447.961 436.548 447.961Z" fill="#1C1C1C"/>
<path d="M434.438 458.267C421.535 458.267 412.311 455.589 410.444 453.48C409.984 452.966 409.957 452.506 410.011 452.235C410.065 451.884 410.39 451.64 410.742 451.694C411.093 451.748 411.337 452.073 411.283 452.425C411.472 453.696 421.237 457.429 437.251 456.942C437.602 456.942 437.9 457.212 437.927 457.564C437.927 457.916 437.657 458.213 437.305 458.24C436.304 458.267 435.357 458.267 434.438 458.267Z" fill="#1C1C1C"/>
<path d="M416.558 372.467C416.558 387.263 416.558 402.086 416.558 416.882C416.558 427.35 416.558 437.818 416.558 448.286C416.558 449.449 416.558 450.612 416.558 451.775C416.558 451.775 425.809 454.399 435.249 454.399C445.447 454.399 455.916 451.775 455.916 451.775C455.916 445.635 455.916 439.522 455.916 433.382C455.916 420.128 455.916 406.901 455.916 393.647C455.916 384.639 455.753 375.659 455.591 366.652C455.456 358.402 454.509 349.448 456.294 341.307C457.16 337.357 458.891 333.76 461.948 331.271C464.788 328.918 469.224 326.7 472.714 325.483C476.311 324.212 480.288 324.211 484.021 324.752C484.318 324.807 489.485 325.807 489.431 325.97L501.197 285.775C486.13 281.88 469.765 280.662 454.915 286.126C444.554 289.94 435.736 296.946 429.19 305.818C424.402 312.337 420.155 319.559 418.343 327.403C416.558 335.193 416.558 365.975 416.558 372.467Z" fill="#1C1C1C"/>
<path d="M490.133 304.384C486.914 315.502 486.292 325.077 488.727 325.78C491.161 326.484 495.192 317.557 498.438 306.467C501.657 295.35 502.874 286.288 500.412 285.585C497.951 284.855 493.352 293.267 490.133 304.384Z" fill="#FBFFFE"/>
<path d="M488.997 326.457C488.862 326.457 488.7 326.43 488.565 326.402C485.238 325.429 486.536 314.501 489.511 304.195C492.514 293.889 497.275 283.962 500.602 284.936C502.144 285.396 502.685 287.749 502.198 292.185C501.792 295.945 500.71 300.949 499.06 306.63C497.681 311.39 492.974 326.457 488.997 326.457ZM490.756 304.547C487.293 316.448 487.347 324.698 488.916 325.131C490.215 325.51 493.839 319.911 497.816 306.251C499.439 300.625 500.521 295.702 500.927 292.023C501.359 287.966 500.845 286.343 500.25 286.153C498.681 285.721 494.191 292.672 490.756 304.547Z" fill="#1C1C1C"/>
</g>
<defs>
<clipPath id="clip0_643_36311">
<rect width="507" height="495" fill="white" transform="translate(0.5)"/>
</clipPath>
</defs>
</svg>
