<svg width="12" height="14" viewBox="0 0 12 14" fill="none" xmlns="http://www.w3.org/2000/svg">
<g id="PayPal">
<path id="Fill 7" fill-rule="evenodd" clip-rule="evenodd" d="M3.61451 13.4483L3.83524 11.9992L3.34354 11.9873H0.995605L2.62734 1.2937C2.63242 1.26132 2.64886 1.23126 2.67285 1.20987C2.69697 1.18849 2.72771 1.17676 2.75987 1.17676H6.71885C8.03327 1.17676 8.94028 1.45939 9.41377 2.01734C9.6358 2.27908 9.77719 2.55267 9.84564 2.85364C9.91741 3.16951 9.91859 3.54685 9.8486 4.00715L9.84352 4.04063V4.33561L10.0655 4.46563C10.2525 4.56815 10.4011 4.68546 10.515 4.81975C10.7049 5.04361 10.8277 5.32808 10.8796 5.66521C10.9333 6.012 10.9156 6.42478 10.8277 6.89205C10.7264 7.42946 10.5627 7.89759 10.3415 8.28055C10.1381 8.63344 9.87898 8.92622 9.57125 9.15302C9.27746 9.36857 8.92846 9.53219 8.53383 9.63691C8.15137 9.7398 7.71536 9.79173 7.23714 9.79173H6.92905C6.7088 9.79173 6.49481 9.87372 6.32682 10.0207C6.15835 10.1708 6.04698 10.3758 6.01281 10.6L5.98952 10.7305L5.5995 13.2848L5.58188 13.3785C5.57715 13.4082 5.56912 13.423 5.55729 13.433C5.54677 13.4422 5.53164 13.4483 5.51686 13.4483H3.61451Z" fill="#6D7D8B"/>
<path id="Fill 8" fill-rule="evenodd" clip-rule="evenodd" d="M10.2756 4.07458C10.2639 4.15267 10.2503 4.23246 10.2352 4.31445C9.71307 7.08509 7.92682 8.04225 5.64556 8.04225H4.48401C4.205 8.04225 3.96985 8.25156 3.92646 8.53603L3.16332 13.5393C3.13507 13.7261 3.27433 13.8944 3.45664 13.8944H5.51681C5.76071 13.8944 5.96796 13.7112 6.00638 13.4626L6.0266 13.3544L6.41449 10.8102L6.43944 10.6707C6.47739 10.4211 6.68511 10.2378 6.92901 10.2378H7.2371C9.23308 10.2378 10.7957 9.40032 11.2524 6.97646C11.4431 5.96396 11.3443 5.11849 10.8395 4.52389C10.6868 4.34464 10.4973 4.1958 10.2756 4.07458Z" fill="#298FC2"/>
<path id="Fill 9" fill-rule="evenodd" clip-rule="evenodd" d="M9.72931 3.84956C9.64951 3.82549 9.56723 3.80374 9.48282 3.78407C9.39793 3.76488 9.31104 3.7479 9.22154 3.73299C8.90836 3.68069 8.56516 3.65588 8.1976 3.65588H5.09456C5.01807 3.65588 4.94548 3.67372 4.88058 3.70598C4.73741 3.7771 4.63112 3.91714 4.60535 4.08857L3.94519 8.41011L3.92627 8.53609C3.96966 8.25162 4.20481 8.0423 4.48382 8.0423H5.64537C7.92663 8.0423 9.71288 7.08467 10.235 4.31451C10.2506 4.23252 10.2637 4.15273 10.2754 4.07464C10.1433 4.00218 10.0003 3.94023 9.84624 3.88744C9.80817 3.87437 9.76892 3.86178 9.72931 3.84956Z" fill="#6D7D8B"/>
<path id="Fill 11" fill-rule="evenodd" clip-rule="evenodd" d="M4.60563 4.08862C4.6314 3.91718 4.73769 3.77715 4.88086 3.70652C4.94624 3.67414 5.01835 3.6563 5.09484 3.6563H8.19788C8.56544 3.6563 8.90864 3.68123 9.22182 3.73353C9.31132 3.74831 9.39821 3.76542 9.4831 3.7846C9.56751 3.80415 9.64979 3.82603 9.7296 3.84998C9.7692 3.8622 9.80845 3.8749 9.84687 3.88749C10.0009 3.94028 10.1441 4.00272 10.2761 4.07469C10.4315 3.05082 10.2748 2.3537 9.73929 1.72245C9.14876 1.0274 8.08308 0.72998 6.71937 0.72998H2.76027C2.48173 0.72998 2.2441 0.9393 2.20107 1.22426L0.552072 12.0279C0.51956 12.2416 0.679045 12.4344 0.887593 12.4344H3.33176L4.60563 4.08862Z" fill="#6D7D8B"/>
</g>
</svg>
