<svg width="70" height="70" viewBox="0 0 70 70" fill="none" xmlns="http://www.w3.org/2000/svg">
<g id="Atom">
<g id="0%">
<path d="M16.8113 50C14.014 50 11.3003 48.884 9.46326 46.8174C7.7515 44.8749 7 42.7256 7 39.9977V28.9621C7 26.2342 7.79325 24.0023 9.58851 22.0184C11.3838 20.1171 13.9723 18.9598 16.8113 19.0011C19.5668 18.9598 22.1971 20.0344 24.0341 22.0184C25.8293 23.9196 26.6226 26.1929 26.6226 28.9621V39.9977C26.6226 42.6843 25.8711 44.9162 24.1176 46.8588C22.3223 48.8427 19.692 50 16.8113 50ZM16.8113 21.9357C14.5568 21.8944 12.4275 23.093 11.2168 24.8703C10.4653 26.0276 10.0895 27.3915 10.0895 28.9621V39.9977C10.0895 41.4856 10.3818 42.8909 11.2168 44.0896C12.4275 45.9082 14.515 47.0654 16.8113 47.0654C19.1075 47.0654 21.1951 45.9081 22.4058 44.0482C23.2408 42.8909 23.5331 41.6096 23.5331 39.9977V28.9621C23.5331 27.4328 23.1991 26.1516 22.4058 24.9116C21.1951 23.093 19.1075 21.8944 16.8113 21.9357Z" fill="#FBFFFE"/>
<path d="M39.5782 33.8806C43.7114 33.8806 47.0932 30.5741 47.0932 26.4409C47.0932 22.3077 43.7114 19.0011 39.5782 19.0011C35.5702 19.0011 32.0631 22.3904 32.0631 26.4409C32.0631 30.5741 35.4449 33.8806 39.5782 33.8806ZM35.4032 48.5947L61.7475 22.5144L59.66 20.4891L33.3156 46.5281L35.4032 48.5947ZM39.5782 31.3594C36.8644 31.3594 34.6099 29.1274 34.6099 26.4409C34.6099 23.7543 36.8644 21.5224 39.5782 21.5224C42.2919 21.5224 44.5464 23.7543 44.5464 26.4409C44.5464 29.1274 42.2919 31.3594 39.5782 31.3594ZM55.485 50C59.6182 50 63 46.6935 63 42.5603C63 38.4271 59.6182 35.1206 55.485 35.1206C51.477 35.1206 47.9699 38.5098 47.9699 42.5603C47.9699 46.6935 51.3517 50 55.485 50ZM55.485 47.4788C52.813 47.4788 50.5585 45.2468 50.5585 42.5603C50.5585 39.8737 52.813 37.6418 55.485 37.6418C58.1987 37.6418 60.4532 39.8737 60.4532 42.5603C60.4532 45.2468 58.1987 47.4788 55.485 47.4788Z" fill="#FBFFFE"/>
</g>
</g>
</svg>
