<svg width="86" height="12" viewBox="0 0 86 12" fill="none" xmlns="http://www.w3.org/2000/svg">
<g id="Group 15">
<path id="Vector" d="M12.7278 4.22554L8.78483 3.67806L7.0222 0.264102C6.97406 0.170629 6.89486 0.0949614 6.79702 0.0489671C6.55165 -0.0667604 6.25348 0.0296792 6.1308 0.264102L4.36818 3.67806L0.42518 4.22554C0.316471 4.24038 0.217081 4.28934 0.140986 4.36352C0.0489902 4.45386 -0.00170347 4.5754 4.37098e-05 4.70142C0.00179089 4.82745 0.055836 4.94766 0.150303 5.03563L3.00311 7.69291L2.32912 11.4452C2.31332 11.5324 2.32343 11.6222 2.35831 11.7043C2.39319 11.7864 2.45144 11.8575 2.52646 11.9095C2.60148 11.9616 2.69026 11.9925 2.78275 11.9988C2.87523 12.0051 2.96771 11.9865 3.0497 11.9452L6.5765 10.1736L10.1033 11.9452C10.1996 11.9941 10.3114 12.0104 10.4186 11.9926C10.6888 11.9481 10.8705 11.7033 10.8239 11.4452L10.1499 7.69291L13.0027 5.03563C13.0803 4.96293 13.1316 4.86798 13.1471 4.76412C13.1891 4.50447 12.9996 4.26412 12.7278 4.22554Z" fill="#32D583"/>
<path id="Vector_2" d="M30.9388 4.22554L26.9958 3.67806L25.2331 0.264102C25.185 0.170629 25.1058 0.0949614 25.008 0.0489671C24.7626 -0.0667604 24.4644 0.0296792 24.3417 0.264102L22.5791 3.67806L18.6361 4.22554C18.5274 4.24038 18.428 4.28934 18.3519 4.36352C18.2599 4.45386 18.2092 4.5754 18.211 4.70142C18.2127 4.82745 18.2668 4.94766 18.3612 5.03563L21.2141 7.69291L20.5401 11.4452C20.5243 11.5324 20.5344 11.6222 20.5692 11.7043C20.6041 11.7864 20.6624 11.8575 20.7374 11.9095C20.8124 11.9616 20.9012 11.9925 20.9937 11.9988C21.0862 12.0051 21.1786 11.9865 21.2606 11.9452L24.7874 10.1736L28.3142 11.9452C28.4105 11.9941 28.5223 12.0104 28.6295 11.9926C28.8997 11.9481 29.0814 11.7033 29.0348 11.4452L28.3608 7.69291L31.2136 5.03563C31.2913 4.96293 31.3425 4.86798 31.3581 4.76412C31.4 4.50447 31.2105 4.26412 30.9388 4.22554Z" fill="#32D583"/>
<path id="Vector_3" d="M49.1517 4.22554L45.2087 3.67806L43.446 0.264102C43.3979 0.170629 43.3187 0.0949614 43.2209 0.0489671C42.9755 -0.0667604 42.6773 0.0296792 42.5546 0.264102L40.792 3.67806L36.849 4.22554C36.7403 4.24038 36.6409 4.28934 36.5648 4.36352C36.4728 4.45386 36.4221 4.5754 36.4239 4.70142C36.4256 4.82745 36.4797 4.94766 36.5741 5.03563L39.4269 7.69291L38.753 11.4452C38.7371 11.5324 38.7473 11.6222 38.7821 11.7043C38.817 11.7864 38.8753 11.8575 38.9503 11.9095C39.0253 11.9616 39.1141 11.9925 39.2066 11.9988C39.2991 12.0051 39.3915 11.9865 39.4735 11.9452L43.0003 10.1736L46.5271 11.9452C46.6234 11.9941 46.7352 12.0104 46.8424 11.9926C47.1126 11.9481 47.2943 11.7033 47.2477 11.4452L46.5737 7.69291L49.4265 5.03563C49.5042 4.96293 49.5554 4.86798 49.571 4.76412C49.6129 4.50447 49.4234 4.26412 49.1517 4.22554Z" fill="#32D583"/>
<path id="Vector_4" d="M67.3645 4.22554L63.4215 3.67806L61.6589 0.264102C61.6108 0.170629 61.5316 0.0949614 61.4337 0.0489671C61.1884 -0.0667604 60.8902 0.0296792 60.7675 0.264102L59.0049 3.67806L55.0619 4.22554C54.9532 4.24038 54.8538 4.28934 54.7777 4.36352C54.6857 4.45386 54.635 4.5754 54.6368 4.70142C54.6385 4.82745 54.6926 4.94766 54.787 5.03563L57.6398 7.69291L56.9658 11.4452C56.95 11.5324 56.9601 11.6222 56.995 11.7043C57.0299 11.7864 57.0882 11.8575 57.1632 11.9095C57.2382 11.9616 57.327 11.9925 57.4195 11.9988C57.5119 12.0051 57.6044 11.9865 57.6864 11.9452L61.2132 10.1736L64.74 11.9452C64.8363 11.9941 64.9481 12.0104 65.0553 11.9926C65.3255 11.9481 65.5072 11.7033 65.4606 11.4452L64.7866 7.69291L67.6394 5.03563C67.7171 4.96293 67.7683 4.86798 67.7838 4.76412C67.8258 4.50447 67.6363 4.26412 67.3645 4.22554Z" fill="#32D583"/>
<path id="Vector_5" d="M74.8371 11.2651C74.8145 11.3531 74.8141 11.4446 74.8359 11.5327C74.8576 11.6209 74.901 11.7034 74.9627 11.7741C75.0244 11.8448 75.1028 11.9019 75.1921 11.941C75.2814 11.9801 75.3792 12.0003 75.4783 12C75.6082 12 75.7352 11.965 75.8433 11.8992L79.4242 9.72142L83.0051 11.8992C83.1171 11.9671 83.2492 12.002 83.3837 11.9993C83.5181 11.9966 83.6484 11.9564 83.757 11.8842C83.8657 11.8119 83.9475 11.711 83.9914 11.5951C84.0353 11.4791 84.0393 11.3537 84.0027 11.2357L82.7999 7.39605L85.783 4.94709C85.8786 4.86861 85.9468 4.76631 85.9793 4.65283C86.0117 4.53935 86.0071 4.41967 85.9658 4.3086C85.9245 4.19753 85.8484 4.09993 85.747 4.02788C85.6455 3.95583 85.5232 3.91248 85.395 3.9032L81.6457 3.63082L80.0233 0.354546C79.9716 0.249023 79.8876 0.159398 79.7813 0.0964856C79.675 0.0335734 79.5511 6.35211e-05 79.4244 9.02182e-08C79.2977 -6.33407e-05 79.1737 0.0333224 79.0674 0.0961281C78.961 0.158934 78.8769 0.248475 78.8251 0.353946L77.2026 3.63082L73.4534 3.9026C73.3274 3.9117 73.207 3.95372 73.1065 4.02362C73.006 4.09353 72.9297 4.18836 72.8868 4.29677C72.8439 4.40519 72.8361 4.52259 72.8643 4.63495C72.8926 4.7473 72.9558 4.84983 73.0463 4.93029L75.8176 7.39425L74.8371 11.2651ZM79.4242 2.05838L80.7671 4.77071L81.1538 4.79891H81.1545L83.7667 4.98789L81.6155 6.75411L81.6148 6.75531L81.3103 7.00489L81.4228 7.36305V7.36485L82.2468 9.9956L79.4242 8.27916V2.05838Z" fill="#32D583"/>
</g>
</svg>
