<svg width="29" height="12" viewBox="0 0 29 12" fill="none" xmlns="http://www.w3.org/2000/svg">
<path id="Stripe" fill-rule="evenodd" clip-rule="evenodd" d="M15.4051 1.62617L13.447 2.05875V0.424567L15.4051 0V1.62617ZM19.477 2.53143C18.7125 2.53143 18.2211 2.89992 17.948 3.15627L17.8466 2.6596H16.1304V12.0001L18.0806 11.5755L18.0884 9.30849C18.3693 9.51677 18.7827 9.81317 19.4692 9.81317C20.8656 9.81317 22.1371 8.65963 22.1371 6.12023C22.1293 3.79712 20.8422 2.53143 19.477 2.53143ZM19.0089 8.05076C18.5486 8.05076 18.2756 7.88253 18.0884 7.67426L18.0806 4.70229C18.2834 4.46998 18.5642 4.30976 19.0089 4.30976C19.7187 4.30976 20.2102 5.12686 20.2102 6.17626C20.2102 7.24969 19.7265 8.05076 19.0089 8.05076ZM28.2843 6.20033C28.2843 4.14959 27.3169 2.53143 25.4681 2.53143C23.6115 2.53143 22.4882 4.14959 22.4882 6.18431C22.4882 8.59553 23.8143 9.81316 25.7178 9.81316C26.6461 9.81316 27.3481 9.59687 27.8786 9.29246V7.69032C27.3481 7.96269 26.7397 8.13091 25.9674 8.13091C25.2107 8.13091 24.5398 7.85855 24.454 6.91328H28.2687C28.2687 6.86913 28.2715 6.76883 28.2747 6.65327C28.2791 6.49626 28.2843 6.31108 28.2843 6.20033ZM24.4306 5.43938C24.4306 4.53418 24.9688 4.15767 25.4603 4.15767C25.9361 4.15767 26.4432 4.53418 26.4432 5.43938H24.4306ZM13.4469 2.66761H15.4049V9.67696H13.4469V2.66761ZM11.2239 2.66751L11.3487 3.26031C11.809 2.39515 12.7217 2.57139 12.9713 2.66751V4.50998C12.7295 4.42186 11.9494 4.30971 11.4891 4.92653V9.67688H9.5389V2.66751H11.2239ZM7.44803 0.929289L5.5446 1.34585L5.5368 7.76242C5.5368 8.948 6.4027 9.82117 7.55724 9.82117C8.19691 9.82117 8.66497 9.70101 8.9224 9.55681V7.93064C8.67277 8.03478 7.44022 8.40327 7.44022 7.21769V4.37389H8.9224V2.66761H7.44022L7.44803 0.929289ZM2.83788 4.26975C2.42443 4.26975 2.1748 4.38992 2.1748 4.70233C2.1748 5.04344 2.60442 5.19349 3.13741 5.37965C4.0063 5.68313 5.14992 6.08256 5.15475 7.56216C5.15475 8.99607 4.03922 9.82118 2.41663 9.82118C1.74575 9.82118 1.01247 9.68499 0.286982 9.36457V7.45802C0.942259 7.82651 1.76916 8.09887 2.41663 8.09887C2.85348 8.09887 3.16552 7.97871 3.16552 7.61022C3.16552 7.23238 2.69981 7.05967 2.13757 6.85117C1.28131 6.53363 0.201172 6.13307 0.201172 4.79846C0.201172 3.38057 1.2543 2.53143 2.83788 2.53143C3.48536 2.53143 4.12503 2.63557 4.77251 2.89992V4.78244C4.17964 4.454 3.43075 4.26975 2.83788 4.26975Z" fill="#6461FC"/>
</svg>
