<svg width="64" height="64" viewBox="0 0 64 64" fill="none" xmlns="http://www.w3.org/2000/svg">
<path d="M32.0003 58.6667C32.0003 58.6667 53.3337 48 53.3337 32V13.3334L32.0003 5.33337L10.667 13.3334V32C10.667 48 32.0003 58.6667 32.0003 58.6667Z" stroke="#FBFFFE" stroke-width="2" stroke-linecap="round" stroke-linejoin="round"/>
<path d="M42 31.08V32C41.9988 34.1564 41.3005 36.2547 40.0093 37.9818C38.7182 39.709 36.9033 40.9725 34.8354 41.5839C32.7674 42.1953 30.5573 42.1219 28.5345 41.3746C26.5117 40.6273 24.7847 39.2461 23.611 37.4371C22.4373 35.628 21.8798 33.4881 22.0217 31.3363C22.1636 29.1846 22.9972 27.1363 24.3983 25.4971C25.7994 23.8578 27.6928 22.7154 29.7962 22.2401C31.8996 21.7649 34.1003 21.9823 36.07 22.86M42 24L32 34.01L29 31.01" stroke="#FBFFFE" stroke-width="2" stroke-linecap="round" stroke-linejoin="round"/>
</svg>
